JetBrainsMoro-SemiBoldItalic.ufo
<glyph name="exclam" format="2">
  <advance width="600.0"/>
  <unicode hex="0021"/>
  <outline>
    <contour>
      <point x="252.3" y="224.0" type="line"/>
      <point x="330.7" y="224.0" type="line"/>
      <point x="412.3" y="601.0" type="line"/>
      <point x="432.8" y="730.0" type="line"/>
      <point x="311.2" y="730.0" type="line"/>
      <point x="290.7" y="601.0" type="line"/>
    </contour>
    <contour>
      <point x="240.0" y="-5.0" type="curve" smooth="yes"/>
      <point x="269.7" y="-5.0" type="line" smooth="yes"/>
      <point x="308.0" y="-5.0"/>
      <point x="338.5" y="21.3"/>
      <point x="344.8" y="58.7" type="curve" smooth="yes"/>
      <point x="350.4" y="95.1"/>
      <point x="330.0" y="121.0"/>
      <point x="289.9" y="121.0" type="curve" smooth="yes"/>
      <point x="259.9" y="121.0" type="line" smooth="yes"/>
      <point x="221.9" y="121.0"/>
      <point x="191.4" y="95.1"/>
      <point x="185.8" y="58.0" type="curve" smooth="yes"/>
      <point x="179.8" y="20.9"/>
      <point x="202.0" y="-5.0"/>
    </contour>
  </outline>
</glyph>
<glyph name="quotedbl" format="2">
  <advance width="600.0"/>
  <unicode hex="0022"/>
  <outline>
    <contour>
      <point x="386.3" y="430.0" type="line"/>
      <point x="474.4" y="430.0" type="line"/>
      <point x="515.7" y="619.0" type="line"/>
      <point x="534.0" y="730.0" type="line"/>
      <point x="421.7" y="730.0" type="line"/>
      <point x="403.4" y="619.0" type="line"/>
    </contour>
    <contour>
      <point x="174.6" y="430.0" type="line"/>
      <point x="262.7" y="430.0" type="line"/>
      <point x="304.0" y="619.0" type="line"/>
      <point x="322.3" y="730.0" type="line"/>
      <point x="210.0" y="730.0" type="line"/>
      <point x="191.7" y="619.0" type="line"/>
    </contour>
  </outline>
</glyph>
<glyph name="numbersign" format="2">
  <advance width="600.0"/>
  <unicode hex="0023"/>
  <outline>
    <contour>
      <point x="34.4" y="0.0" type="line"/>
      <point x="117.0" y="0.0" type="line"/>
      <point x="182.1" y="191.0" type="line"/>
      <point x="328.8" y="191.0" type="line"/>
      <point x="263.7" y="0.0" type="line"/>
      <point x="346.3" y="0.0" type="line"/>
      <point x="411.4" y="191.0" type="line"/>
      <point x="522.5" y="191.0" type="line"/>
      <point x="534.3" y="266.5" type="line"/>
      <point x="436.7" y="266.5" type="line"/>
      <point x="503.2" y="463.5" type="line"/>
      <point x="599.2" y="463.5" type="line"/>
      <point x="611.0" y="539.0" type="line"/>
      <point x="528.5" y="539.0" type="line"/>
      <point x="593.6" y="730.0" type="line"/>
      <point x="511.0" y="730.0" type="line"/>
      <point x="445.9" y="539.0" type="line"/>
      <point x="299.2" y="539.0" type="line"/>
      <point x="364.3" y="730.0" type="line"/>
      <point x="281.7" y="730.0" type="line"/>
      <point x="216.6" y="539.0" type="line"/>
      <point x="105.5" y="539.0" type="line"/>
      <point x="93.7" y="463.5" type="line"/>
      <point x="191.3" y="463.5" type="line"/>
      <point x="124.8" y="266.5" type="line"/>
      <point x="28.8" y="266.5" type="line"/>
      <point x="17.0" y="191.0" type="line"/>
      <point x="99.5" y="191.0" type="line"/>
    </contour>
    <contour>
      <point x="207.4" y="266.5" type="line"/>
      <point x="273.9" y="463.5" type="line"/>
      <point x="420.6" y="463.5" type="line"/>
      <point x="354.1" y="266.5" type="line"/>
    </contour>
  </outline>
</glyph>
<glyph name="dollar" format="2">
  <advance width="600.0"/>
  <unicode hex="0024"/>
  <outline>
    <contour>
      <point x="205.7" y="-140.0" type="line"/>
      <point x="267.2" y="-140.0" type="line"/>
      <point x="288.2" y="-9.0" type="line"/>
      <point x="412.2" y="2.4"/>
      <point x="504.5" y="81.5"/>
      <point x="522.4" y="194.8" type="curve" smooth="yes"/>
      <point x="539.0" y="299.5"/>
      <point x="491.7" y="376.8"/>
      <point x="389.8" y="407.5" type="curve" smooth="yes"/>
      <point x="355.4" y="418.4" type="line"/>
      <point x="390.8" y="642.7" type="line"/>
      <point x="443.8" y="633.0"/>
      <point x="468.1" y="596.5"/>
      <point x="459.3" y="542.0" type="curve"/>
      <point x="567.3" y="542.0" type="line"/>
      <point x="583.9" y="653.1"/>
      <point x="521.2" y="728.0"/>
      <point x="406.2" y="739.0" type="curve"/>
      <point x="427.2" y="870.0" type="line"/>
      <point x="365.7" y="870.0" type="line"/>
      <point x="344.7" y="738.0" type="line"/>
      <point x="225.9" y="727.0"/>
      <point x="140.2" y="651.2"/>
      <point x="122.9" y="540.9" type="curve" smooth="yes"/>
      <point x="107.0" y="437.8"/>
      <point x="155.2" y="360.4"/>
      <point x="257.7" y="330.0" type="curve" smooth="yes"/>
      <point x="278.9" y="323.5" type="line"/>
      <point x="241.4" y="87.6" type="line"/>
      <point x="180.1" y="96.9"/>
      <point x="150.3" y="135.4"/>
      <point x="159.1" y="193.0" type="curve"/>
      <point x="51.1" y="193.0" type="line"/>
      <point x="34.2" y="77.1"/>
      <point x="99.6" y="1.6"/>
      <point x="226.7" y="-8.7" type="curve"/>
    </contour>
    <contour>
      <point x="302.6" y="87.0" type="curve"/>
      <point x="341.0" y="326.1" type="line"/>
      <point x="328.0" y="304.7" type="line" smooth="yes"/>
      <point x="391.7" y="293.6"/>
      <point x="423.1" y="249.0"/>
      <point x="414.1" y="191.3" type="curve" smooth="yes"/>
      <point x="405.0" y="133.6"/>
      <point x="363.9" y="96.1"/>
    </contour>
    <contour>
      <point x="289.4" y="388.4" type="line"/>
      <point x="333.8" y="429.5" type="line"/>
      <point x="258.5" y="436.7"/>
      <point x="222.2" y="483.1"/>
      <point x="232.6" y="548.3" type="curve" smooth="yes"/>
      <point x="240.7" y="599.6"/>
      <point x="275.9" y="633.7"/>
      <point x="329.3" y="642.7" type="curve"/>
    </contour>
  </outline>
</glyph>
<glyph name="percent" format="2">
  <advance width="600.0"/>
  <unicode hex="0025"/>
  <outline>
    <contour>
      <point x="-38.7" y="0.0" type="line"/>
      <point x="46.3" y="0.0" type="line"/>
      <point x="666.7" y="730.0" type="line"/>
      <point x="582.0" y="730.0" type="line"/>
    </contour>
    <contour>
      <point x="398.5" y="-5.0" type="curve" smooth="yes"/>
      <point x="483.4" y="-5.0"/>
      <point x="550.1" y="46.9"/>
      <point x="562.8" y="130.0" type="curve" smooth="yes"/>
      <point x="572.8" y="195.0" type="line" smooth="yes"/>
      <point x="585.5" y="278.1"/>
      <point x="536.4" y="330.0"/>
      <point x="451.5" y="330.0" type="curve" smooth="yes"/>
      <point x="366.6" y="330.0"/>
      <point x="300.9" y="278.1"/>
      <point x="288.2" y="195.0" type="curve" smooth="yes"/>
      <point x="278.2" y="130.0" type="line" smooth="yes"/>
      <point x="265.5" y="46.9"/>
      <point x="313.6" y="-5.0"/>
    </contour>
    <contour>
      <point x="410.4" y="68.5" type="curve" smooth="yes"/>
      <point x="369.7" y="68.5"/>
      <point x="353.0" y="87.7"/>
      <point x="359.7" y="130.0" type="curve" smooth="yes"/>
      <point x="369.7" y="195.0" type="line" smooth="yes"/>
      <point x="376.4" y="237.3"/>
      <point x="399.2" y="257.5"/>
      <point x="439.9" y="257.5" type="curve" smooth="yes"/>
      <point x="480.3" y="257.5"/>
      <point x="498.0" y="237.3"/>
      <point x="491.3" y="195.0" type="curve" smooth="yes"/>
      <point x="481.3" y="130.0" type="line" smooth="yes"/>
      <point x="474.6" y="87.7"/>
      <point x="451.1" y="68.5"/>
    </contour>
    <contour>
      <point x="175.5" y="400.0" type="curve" smooth="yes"/>
      <point x="259.5" y="400.0"/>
      <point x="326.8" y="451.0"/>
      <point x="339.8" y="535.0" type="curve" smooth="yes"/>
      <point x="349.8" y="600.0" type="line" smooth="yes"/>
      <point x="362.8" y="684.0"/>
      <point x="312.5" y="735.0"/>
      <point x="228.5" y="735.0" type="curve" smooth="yes"/>
      <point x="144.5" y="735.0"/>
      <point x="78.2" y="684.0"/>
      <point x="65.2" y="600.0" type="curve" smooth="yes"/>
      <point x="55.2" y="535.0" type="line" smooth="yes"/>
      <point x="42.2" y="451.0"/>
      <point x="91.5" y="400.0"/>
    </contour>
    <contour>
      <point x="187.1" y="472.5" type="curve" smooth="yes"/>
      <point x="147.1" y="472.5"/>
      <point x="130.0" y="492.7"/>
      <point x="136.7" y="535.0" type="curve" smooth="yes"/>
      <point x="146.7" y="600.0" type="line" smooth="yes"/>
      <point x="153.4" y="642.3"/>
      <point x="177.6" y="662.5"/>
      <point x="217.6" y="662.5" type="curve" smooth="yes"/>
      <point x="257.6" y="662.5"/>
      <point x="275.0" y="642.3"/>
      <point x="268.3" y="600.0" type="curve" smooth="yes"/>
      <point x="258.3" y="535.0" type="line" smooth="yes"/>
      <point x="251.6" y="492.7"/>
      <point x="227.1" y="472.5"/>
    </contour>
  </outline>
</glyph>
<glyph name="ampersand" format="2">
  <advance width="600.0"/>
  <unicode hex="0026"/>
  <outline>
    <contour>
      <point x="185.5" y="-10.0" type="curve" smooth="yes"/>
      <point x="250.8" y="-10.0"/>
      <point x="315.7" y="20.1"/>
      <point x="371.3" y="76.2" type="curve"/>
      <point x="414.0" y="0.0" type="line"/>
      <point x="526.2" y="0.0" type="line"/>
      <point x="436.9" y="159.2" type="line"/>
      <point x="578.6" y="360.0" type="line"/>
      <point x="470.8" y="360.0" type="line"/>
      <point x="390.0" y="244.4" type="line"/>
      <point x="268.8" y="459.8" type="line" smooth="yes"/>
      <point x="248.3" y="496.8"/>
      <point x="237.8" y="537.6"/>
      <point x="243.5" y="570.3" type="curve" smooth="yes"/>
      <point x="251.2" y="618.6"/>
      <point x="288.8" y="649.4"/>
      <point x="339.9" y="649.4" type="curve" smooth="yes"/>
      <point x="395.2" y="649.4"/>
      <point x="424.8" y="616.5"/>
      <point x="416.4" y="563.3" type="curve"/>
      <point x="519.9" y="563.3" type="line"/>
      <point x="537.2" y="671.0"/>
      <point x="472.1" y="740.0"/>
      <point x="354.0" y="740.0" type="curve" smooth="yes"/>
      <point x="242.4" y="740.0"/>
      <point x="157.7" y="674.3"/>
      <point x="142.1" y="576.2" type="curve" smooth="yes"/>
      <point x="133.8" y="525.2"/>
      <point x="146.3" y="475.6"/>
      <point x="178.6" y="418.7" type="curve" smooth="yes"/>
      <point x="190.3" y="427.6" type="line"/>
      <point x="112.7" y="410.9"/>
      <point x="60.6" y="355.1"/>
      <point x="48.1" y="275.5" type="curve" smooth="yes"/>
      <point x="31.5" y="167.0" type="line" smooth="yes"/>
      <point x="13.3" y="56.2"/>
      <point x="70.8" y="-10.0"/>
    </contour>
    <contour>
      <point x="208.0" y="82.0" type="curve" smooth="yes"/>
      <point x="154.6" y="82.0"/>
      <point x="127.5" y="112.7"/>
      <point x="136.5" y="167.0" type="curve" smooth="yes"/>
      <point x="153.1" y="275.5" type="line" smooth="yes"/>
      <point x="159.5" y="316.2"/>
      <point x="181.6" y="342.0"/>
      <point x="216.7" y="351.1" type="curve"/>
      <point x="327.5" y="153.8" type="line"/>
      <point x="293.7" y="108.9"/>
      <point x="249.4" y="82.0"/>
    </contour>
  </outline>
</glyph>
<glyph name="quotesingle" format="2">
  <advance width="600.0"/>
  <unicode hex="0027"/>
  <outline>
    <contour>
      <point x="276.6" y="430.0" type="line"/>
      <point x="364.7" y="430.0" type="line"/>
      <point x="399.7" y="577.0" type="line"/>
      <point x="424.3" y="730.0" type="line"/>
      <point x="312.0" y="730.0" type="line"/>
      <point x="287.4" y="577.0" type="line"/>
    </contour>
  </outline>
</glyph>
<glyph name="parenleft" format="2">
  <advance width="600.0"/>
  <unicode hex="0028"/>
  <outline>
    <contour>
      <point x="421.0" y="-125.0" type="curve"/>
      <point x="438.0" y="-17.1" type="line"/>
      <point x="319.1" y="12.0"/>
      <point x="258.8" y="120.2"/>
      <point x="282.0" y="264.7" type="curve" smooth="yes"/>
      <point x="312.0" y="455.0" type="line" smooth="yes"/>
      <point x="335.5" y="601.8"/>
      <point x="430.5" y="711.1"/>
      <point x="558.0" y="740.5" type="curve"/>
      <point x="575.0" y="845.0" type="line"/>
      <point x="375.8" y="796.0"/>
      <point x="234.7" y="648.5"/>
      <point x="204.0" y="455.0" type="curve" smooth="yes"/>
      <point x="174.0" y="264.7" type="line" smooth="yes"/>
      <point x="142.3" y="67.5"/>
      <point x="233.4" y="-75.0"/>
    </contour>
  </outline>
</glyph>
<glyph name="parenright" format="2">
  <advance width="600.0"/>
  <unicode hex="0029"/>
  <outline>
    <contour>
      <point x="51.0" y="-125.0" type="line"/>
      <point x="255.2" y="-75.0"/>
      <point x="390.3" y="67.5"/>
      <point x="422.0" y="264.7" type="curve" smooth="yes"/>
      <point x="452.0" y="455.0" type="line" smooth="yes"/>
      <point x="482.7" y="648.5"/>
      <point x="389.0" y="796.0"/>
      <point x="205.0" y="845.0" type="curve"/>
      <point x="188.0" y="740.5" type="line"/>
      <point x="307.5" y="711.1"/>
      <point x="367.5" y="601.8"/>
      <point x="344.0" y="455.0" type="curve" smooth="yes"/>
      <point x="314.0" y="264.7" type="line" smooth="yes"/>
      <point x="290.8" y="120.2"/>
      <point x="196.9" y="12.0"/>
      <point x="68.0" y="-17.1" type="curve"/>
    </contour>
  </outline>
</glyph>
<glyph name="asterisk" format="2">
  <advance width="600.0"/>
  <unicode hex="002A"/>
  <outline>
    <contour>
      <point x="157.2" y="90.4" type="line"/>
      <point x="215.1" y="158.5" type="line" smooth="yes"/>
      <point x="249.1" y="198.5"/>
      <point x="282.6" y="261.9"/>
      <point x="301.0" y="299.7" type="curve"/>
      <point x="307.7" y="299.7" type="line"/>
      <point x="313.4" y="261.9"/>
      <point x="325.8" y="197.8"/>
      <point x="347.3" y="158.5" type="curve" smooth="yes"/>
      <point x="384.9" y="90.4" type="line"/>
      <point x="476.3" y="147.6" type="line"/>
      <point x="439.0" y="216.0" type="line" smooth="yes"/>
      <point x="417.2" y="255.0"/>
      <point x="373.6" y="297.7"/>
      <point x="345.8" y="322.0" type="curve"/>
      <point x="350.2" y="328.8" type="line"/>
      <point x="391.0" y="330.9"/>
      <point x="455.6" y="336.7"/>
      <point x="502.2" y="352.9" type="curve" smooth="yes"/>
      <point x="584.5" y="381.0" type="line"/>
      <point x="564.8" y="475.7" type="line"/>
      <point x="482.5" y="447.6" type="line" smooth="yes"/>
      <point x="435.2" y="431.4"/>
      <point x="375.4" y="393.3"/>
      <point x="339.2" y="368.5" type="curve"/>
      <point x="335.2" y="372.2" type="line"/>
      <point x="353.7" y="410.4"/>
      <point x="383.5" y="477.4"/>
      <point x="391.1" y="527.0" type="curve" smooth="yes"/>
      <point x="404.3" y="610.0" type="line"/>
      <point x="303.7" y="610.0" type="line"/>
      <point x="290.5" y="527.0" type="line" smooth="yes"/>
      <point x="282.9" y="477.4"/>
      <point x="290.9" y="410.4"/>
      <point x="296.1" y="372.2" type="curve"/>
      <point x="290.4" y="368.2" type="line"/>
      <point x="262.5" y="393.0"/>
      <point x="214.2" y="431.4"/>
      <point x="171.5" y="447.6" type="curve" smooth="yes"/>
      <point x="98.7" y="475.7" type="line"/>
      <point x="49.7" y="381.0" type="line"/>
      <point x="122.2" y="352.9" type="line" smooth="yes"/>
      <point x="164.2" y="336.7"/>
      <point x="228.4" y="330.9"/>
      <point x="267.8" y="328.8" type="curve"/>
      <point x="269.5" y="322.7" type="line"/>
      <point x="234.4" y="298.4"/>
      <point x="176.2" y="255.7"/>
      <point x="141.8" y="215.7" type="curve" smooth="yes"/>
      <point x="84.2" y="147.6" type="line"/>
    </contour>
  </outline>
</glyph>
<glyph name="plus" format="2">
  <advance width="600.0"/>
  <unicode hex="002B"/>
  <outline>
    <contour>
      <point x="217.4" y="93.5" type="line"/>
      <point x="324.0" y="93.5" type="line"/>
      <point x="353.8" y="281.0" type="line"/>
      <point x="538.5" y="281.0" type="line"/>
      <point x="554.2" y="379.0" type="line"/>
      <point x="369.5" y="379.0" type="line"/>
      <point x="398.6" y="566.5" type="line"/>
      <point x="292.0" y="566.5" type="line"/>
      <point x="262.9" y="379.0" type="line"/>
      <point x="78.2" y="379.0" type="line"/>
      <point x="62.5" y="281.0" type="line"/>
      <point x="247.2" y="281.0" type="line"/>
    </contour>
  </outline>
</glyph>
<glyph name="comma" format="2">
  <advance width="600.0"/>
  <unicode hex="002C"/>
  <outline>
    <contour>
      <point x="87.1" y="-160.0" type="line"/>
      <point x="184.9" y="-160.0" type="line"/>
      <point x="363.9" y="151.0" type="line"/>
      <point x="216.1" y="151.0" type="line"/>
    </contour>
  </outline>
</glyph>
<glyph name="hyphen" format="2">
  <advance width="600.0"/>
  <unicode hex="002D"/>
  <outline>
    <contour>
      <point x="136.0" y="281.0" type="line"/>
      <point x="465.0" y="281.0" type="line"/>
      <point x="480.7" y="379.0" type="line"/>
      <point x="151.7" y="379.0" type="line"/>
    </contour>
  </outline>
</glyph>
<glyph name="period" format="2">
  <advance width="600.0"/>
  <unicode hex="002E"/>
  <outline>
    <contour>
      <point x="254.0" y="-10.0" type="curve" smooth="yes"/>
      <point x="308.3" y="-10.0"/>
      <point x="348.0" y="23.4"/>
      <point x="356.3" y="77.0" type="curve" smooth="yes"/>
      <point x="364.9" y="132.0"/>
      <point x="336.8" y="166.8"/>
      <point x="282.5" y="166.8" type="curve" smooth="yes"/>
      <point x="228.2" y="166.8"/>
      <point x="188.1" y="132.0"/>
      <point x="179.5" y="77.0" type="curve" smooth="yes"/>
      <point x="171.2" y="23.4"/>
      <point x="199.7" y="-10.0"/>
    </contour>
  </outline>
</glyph>
<glyph name="slash" format="2">
  <advance width="600.0"/>
  <unicode hex="002F"/>
  <outline>
    <contour>
      <point x="6.5" y="-110.0" type="line"/>
      <point x="122.1" y="-110.0" type="line"/>
      <point x="619.5" y="830.0" type="line"/>
      <point x="503.9" y="830.0" type="line"/>
    </contour>
  </outline>
</glyph>
<glyph name="zero" format="2">
  <advance width="600.0"/>
  <unicode hex="0030"/>
  <outline>
    <contour>
      <point x="254.0" y="-10.0" type="curve" smooth="yes"/>
      <point x="391.9" y="-10.0"/>
      <point x="493.3" y="75.9"/>
      <point x="514.3" y="206.5" type="curve" smooth="yes"/>
      <point x="564.7" y="523.5" type="line" smooth="yes"/>
      <point x="585.7" y="654.8"/>
      <point x="511.6" y="740.0"/>
      <point x="373.0" y="740.0" type="curve" smooth="yes"/>
      <point x="234.4" y="740.0"/>
      <point x="133.7" y="654.8"/>
      <point x="112.7" y="523.5" type="curve" smooth="yes"/>
      <point x="62.3" y="206.5" type="line" smooth="yes"/>
      <point x="41.3" y="75.2"/>
      <point x="115.4" y="-10.0"/>
    </contour>
    <contour>
      <point x="269.4" y="82.9" type="curve" smooth="yes"/>
      <point x="194.8" y="82.9"/>
      <point x="153.4" y="133.0"/>
      <point x="165.2" y="206.5" type="curve" smooth="yes"/>
      <point x="215.6" y="523.5" type="line" smooth="yes"/>
      <point x="227.4" y="597.0"/>
      <point x="283.7" y="647.1"/>
      <point x="358.6" y="647.1" type="curve" smooth="yes"/>
      <point x="433.5" y="647.1"/>
      <point x="473.6" y="597.0"/>
      <point x="461.8" y="523.5" type="curve" smooth="yes"/>
      <point x="411.4" y="206.5" type="line" smooth="yes"/>
      <point x="399.6" y="133.0"/>
      <point x="344.0" y="82.9"/>
    </contour>
    <contour>
      <point x="313.4" y="303.0" type="curve" smooth="yes"/>
      <point x="351.2" y="303.0"/>
      <point x="376.4" y="329.2"/>
      <point x="376.4" y="368.0" type="curve" smooth="yes"/>
      <point x="376.4" y="405.8"/>
      <point x="351.2" y="431.0"/>
      <point x="313.4" y="431.0" type="curve" smooth="yes"/>
      <point x="275.6" y="431.0"/>
      <point x="250.4" y="405.8"/>
      <point x="250.4" y="368.0" type="curve" smooth="yes"/>
      <point x="250.4" y="329.2"/>
      <point x="275.6" y="303.0"/>
    </contour>
  </outline>
</glyph>
<glyph name="one" format="2">
  <advance width="600.0"/>
  <unicode hex="0031"/>
  <outline>
    <contour>
      <point x="43.0" y="0.0" type="line"/>
      <point x="502.0" y="0.0" type="line"/>
      <point x="517.4" y="96.4" type="line"/>
      <point x="360.2" y="96.4" type="line"/>
      <point x="460.8" y="730.0" type="line"/>
      <point x="325.2" y="730.0" type="line"/>
      <point x="138.7" y="607.9" type="line"/>
      <point x="120.0" y="491.4" type="line"/>
      <point x="337.8" y="636.4" type="line"/>
      <point x="252.2" y="96.4" type="line"/>
      <point x="58.4" y="96.4" type="line"/>
    </contour>
  </outline>
</glyph>
<glyph name="two" format="2">
  <advance width="600.0"/>
  <unicode hex="0032"/>
  <outline>
    <contour>
      <point x="41.4" y="0.0" type="line"/>
      <point x="486.8" y="0.0" type="line"/>
      <point x="502.2" y="97.9" type="line"/>
      <point x="187.3" y="97.9" type="line"/>
      <point x="399.8" y="287.4" type="line" smooth="yes"/>
      <point x="503.1" y="379.6"/>
      <point x="547.8" y="452.0"/>
      <point x="559.7" y="525.9" type="curve" smooth="yes"/>
      <point x="580.0" y="657.4"/>
      <point x="505.3" y="740.0"/>
      <point x="367.9" y="740.0" type="curve" smooth="yes"/>
      <point x="230.5" y="740.0"/>
      <point x="127.9" y="654.3"/>
      <point x="103.5" y="519.0" type="curve"/>
      <point x="211.5" y="519.0" type="line"/>
      <point x="223.6" y="596.0"/>
      <point x="278.2" y="643.5"/>
      <point x="352.3" y="643.5" type="curve" smooth="yes"/>
      <point x="425.1" y="643.5"/>
      <point x="462.2" y="597.3"/>
      <point x="450.8" y="522.4" type="curve" smooth="yes"/>
      <point x="442.7" y="470.6"/>
      <point x="407.6" y="420.4"/>
      <point x="338.0" y="356.8" type="curve" smooth="yes"/>
      <point x="57.5" y="101.9" type="line"/>
    </contour>
  </outline>
</glyph>
<glyph name="three" format="2">
  <advance width="600.0"/>
  <unicode hex="0033"/>
  <outline>
    <contour>
      <point x="245.1" y="-10.0" type="curve" smooth="yes"/>
      <point x="386.9" y="-10.0"/>
      <point x="487.0" y="70.4"/>
      <point x="507.0" y="200.0" type="curve" smooth="yes"/>
      <point x="515.3" y="252.7" type="line" smooth="yes"/>
      <point x="535.3" y="381.3"/>
      <point x="460.9" y="463.3"/>
      <point x="322.8" y="463.3" type="curve"/>
      <point x="316.7" y="422.8" type="line"/>
      <point x="551.0" y="636.4" type="line"/>
      <point x="566.5" y="730.0" type="line"/>
      <point x="168.1" y="730.0" type="line"/>
      <point x="153.0" y="635.1" type="line"/>
      <point x="431.4" y="635.1" type="line"/>
      <point x="238.5" y="458.6" type="line"/>
      <point x="223.7" y="369.2" type="line"/>
      <point x="306.0" y="369.2" type="line" smooth="yes"/>
      <point x="381.4" y="369.2"/>
      <point x="419.1" y="326.3"/>
      <point x="407.3" y="252.4" type="curve" smooth="yes"/>
      <point x="399.0" y="200.0" type="line" smooth="yes"/>
      <point x="387.2" y="128.9"/>
      <point x="336.6" y="83.5"/>
      <point x="260.9" y="83.5" type="curve" smooth="yes"/>
      <point x="186.2" y="83.5"/>
      <point x="148.8" y="127.1"/>
      <point x="160.6" y="200.0" type="curve"/>
      <point x="52.6" y="200.0" type="line"/>
      <point x="32.3" y="73.1"/>
      <point x="107.7" y="-10.0"/>
    </contour>
  </outline>
</glyph>
<glyph name="four" format="2">
  <advance width="600.0"/>
  <unicode hex="0034"/>
  <outline>
    <contour>
      <point x="347.0" y="0.0" type="line"/>
      <point x="455.0" y="0.0" type="line"/>
      <point x="522.0" y="420.0" type="line"/>
      <point x="414.0" y="420.0" type="line"/>
      <point x="386.2" y="248.6" type="line"/>
      <point x="164.2" y="248.6" type="line"/>
      <point x="169.9" y="285.4" type="line"/>
      <point x="523.2" y="730.0" type="line"/>
      <point x="404.4" y="730.0" type="line"/>
      <point x="69.8" y="313.6" type="line"/>
      <point x="43.8" y="152.2" type="line"/>
      <point x="370.8" y="152.2" type="line"/>
    </contour>
  </outline>
</glyph>
<glyph name="five" format="2">
  <advance width="600.0"/>
  <unicode hex="0035"/>
  <outline>
    <contour>
      <point x="252.3" y="-10.0" type="curve" smooth="yes"/>
      <point x="393.5" y="-10.0"/>
      <point x="490.2" y="71.0"/>
      <point x="510.5" y="201.5" type="curve" smooth="yes"/>
      <point x="521.8" y="272.5" type="line" smooth="yes"/>
      <point x="541.8" y="403.3"/>
      <point x="484.8" y="480.4"/>
      <point x="366.5" y="479.7" type="curve" smooth="yes"/>
      <point x="283.1" y="479.7"/>
      <point x="224.3" y="441.0"/>
      <point x="214.3" y="379.3" type="curve"/>
      <point x="247.5" y="405.0" type="line"/>
      <point x="218.6" y="405.0" type="line"/>
      <point x="257.6" y="632.1" type="line"/>
      <point x="552.5" y="632.1" type="line"/>
      <point x="568.2" y="730.0" type="line"/>
      <point x="170.1" y="730.0" type="line"/>
      <point x="101.1" y="327.2" type="line"/>
      <point x="207.6" y="327.2" type="line"/>
      <point x="229.8" y="364.7"/>
      <point x="270.4" y="388.7"/>
      <point x="317.6" y="388.7" type="curve" smooth="yes"/>
      <point x="393.7" y="388.7"/>
      <point x="425.3" y="346.8"/>
      <point x="413.8" y="272.5" type="curve" smooth="yes"/>
      <point x="402.5" y="201.5" type="line" smooth="yes"/>
      <point x="391.0" y="127.2"/>
      <point x="344.9" y="85.0"/>
      <point x="268.4" y="85.0" type="curve" smooth="yes"/>
      <point x="200.1" y="85.0"/>
      <point x="165.1" y="115.9"/>
      <point x="168.0" y="169.0" type="curve"/>
      <point x="60.0" y="169.0" type="line"/>
      <point x="53.1" y="59.3"/>
      <point x="125.5" y="-10.0"/>
    </contour>
  </outline>
</glyph>
<glyph name="six" format="2">
  <advance width="600.0"/>
  <unicode hex="0036"/>
  <outline>
    <contour>
      <point x="255.7" y="-10.0" type="curve" smooth="yes"/>
      <point x="400.3" y="-10.0"/>
      <point x="511.7" y="85.0"/>
      <point x="534.4" y="226.7" type="curve" smooth="yes"/>
      <point x="555.4" y="359.4"/>
      <point x="489.6" y="448.1"/>
      <point x="371.4" y="448.1" type="curve" smooth="yes"/>
      <point x="314.4" y="448.1"/>
      <point x="267.1" y="424.5"/>
      <point x="235.3" y="386.4" type="curve"/>
      <point x="231.4" y="389.7" type="line"/>
      <point x="484.8" y="730.0" type="line"/>
      <point x="366.3" y="730.0" type="line"/>
      <point x="149.9" y="435.7" type="line" smooth="yes"/>
      <point x="94.5" y="359.4"/>
      <point x="60.9" y="291.5"/>
      <point x="51.2" y="228.7" type="curve" smooth="yes"/>
      <point x="28.6" y="86.1"/>
      <point x="110.4" y="-10.0"/>
    </contour>
    <contour>
      <point x="270.1" y="83.5" type="curve" smooth="yes"/>
      <point x="189.7" y="83.5"/>
      <point x="143.6" y="140.4"/>
      <point x="157.1" y="224.7" type="curve" smooth="yes"/>
      <point x="170.6" y="309.3"/>
      <point x="234.5" y="366.5"/>
      <point x="314.9" y="366.5" type="curve" smooth="yes"/>
      <point x="395.3" y="366.5"/>
      <point x="440.4" y="309.3"/>
      <point x="426.9" y="224.7" type="curve" smooth="yes"/>
      <point x="413.4" y="140.4"/>
      <point x="350.5" y="83.5"/>
    </contour>
  </outline>
</glyph>
<glyph name="seven" format="2">
  <advance width="600.0"/>
  <unicode hex="0037"/>
  <outline>
    <contour>
      <point x="129.9" y="0.0" type="line"/>
      <point x="250.4" y="0.0" type="line"/>
      <point x="606.6" y="631.0" type="line"/>
      <point x="623.0" y="730.0" type="line"/>
      <point x="144.5" y="730.0" type="line"/>
      <point x="110.1" y="515.0" type="line"/>
      <point x="218.1" y="515.0" type="line"/>
      <point x="236.8" y="632.1" type="line"/>
      <point x="492.8" y="632.1" type="line"/>
    </contour>
  </outline>
</glyph>
<glyph name="eight" format="2">
  <advance width="600.0"/>
  <unicode hex="0038"/>
  <outline>
    <contour>
      <point x="254.3" y="-10.0" type="curve" smooth="yes"/>
      <point x="398.6" y="-10.0"/>
      <point x="507.0" y="68.7"/>
      <point x="525.6" y="185.7" type="curve" smooth="yes"/>
      <point x="539.3" y="273.2"/>
      <point x="490.2" y="349.2"/>
      <point x="395.6" y="388.9" type="curve" smooth="yes"/>
      <point x="297.3" y="430.3" type="line" smooth="yes"/>
      <point x="246.4" y="451.4"/>
      <point x="215.4" y="494.8"/>
      <point x="223.5" y="545.9" type="curve" smooth="yes"/>
      <point x="232.9" y="605.1"/>
      <point x="287.8" y="647.5"/>
      <point x="358.2" y="647.5" type="curve" smooth="yes"/>
      <point x="428.3" y="647.5"/>
      <point x="470.1" y="605.8"/>
      <point x="460.7" y="545.9" type="curve" smooth="yes"/>
      <point x="452.3" y="495.9"/>
      <point x="407.1" y="451.5"/>
      <point x="347.7" y="429.3" type="curve" smooth="yes"/>
      <point x="236.3" y="387.5" type="line" smooth="yes"/>
      <point x="133.8" y="349.6"/>
      <point x="59.6" y="274.3"/>
      <point x="45.6" y="185.7" type="curve" smooth="yes"/>
      <point x="27.3" y="69.6"/>
      <point x="110.0" y="-10.0"/>
    </contour>
    <contour>
      <point x="269.4" y="83.2" type="curve" smooth="yes"/>
      <point x="189.8" y="83.2"/>
      <point x="142.2" y="129.9"/>
      <point x="152.3" y="198.0" type="curve" smooth="yes"/>
      <point x="160.4" y="249.9"/>
      <point x="205.1" y="298.2"/>
      <point x="266.5" y="321.4" type="curve" smooth="yes"/>
      <point x="381.3" y="365.6" type="line" smooth="yes"/>
      <point x="489.5" y="406.2"/>
      <point x="554.1" y="472.3"/>
      <point x="566.7" y="551.0" type="curve" smooth="yes"/>
      <point x="584.4" y="660.3"/>
      <point x="505.0" y="740.7"/>
      <point x="373.3" y="740.7" type="curve" smooth="yes"/>
      <point x="241.3" y="740.7"/>
      <point x="136.4" y="660.3"/>
      <point x="118.7" y="551.0" type="curve" smooth="yes"/>
      <point x="106.4" y="472.5"/>
      <point x="149.5" y="406.5"/>
      <point x="244.8" y="366.3" type="curve" smooth="yes"/>
      <point x="345.6" y="322.1" type="line" smooth="yes"/>
      <point x="400.3" y="298.9"/>
      <point x="430.3" y="251.0"/>
      <point x="421.5" y="197.7" type="curve" smooth="yes"/>
      <point x="411.4" y="129.9"/>
      <point x="349.0" y="83.2"/>
    </contour>
  </outline>
</glyph>
<glyph name="nine" format="2">
  <advance width="600.0"/>
  <unicode hex="0039"/>
  <outline>
    <contour>
      <point x="141.4" y="0.0" type="line"/>
      <point x="268.2" y="0.0" type="line"/>
      <point x="479.7" y="294.6" type="line" smooth="yes"/>
      <point x="534.5" y="370.9"/>
      <point x="568.1" y="439.1"/>
      <point x="578.1" y="502.5" type="curve" smooth="yes"/>
      <point x="600.4" y="643.3"/>
      <point x="517.4" y="740.0"/>
      <point x="373.3" y="740.0" type="curve" smooth="yes"/>
      <point x="229.9" y="740.0"/>
      <point x="117.3" y="643.8"/>
      <point x="95.0" y="502.4" type="curve" smooth="yes"/>
      <point x="74.3" y="370.3"/>
      <point x="140.4" y="280.1"/>
      <point x="258.0" y="280.1" type="curve" smooth="yes"/>
      <point x="315.0" y="280.1"/>
      <point x="356.8" y="303.7"/>
      <point x="388.6" y="341.8" type="curve"/>
      <point x="392.5" y="338.5" type="line"/>
    </contour>
    <contour>
      <point x="314.1" y="361.7" type="curve" smooth="yes"/>
      <point x="234.0" y="361.7"/>
      <point x="188.3" y="419.2"/>
      <point x="202.1" y="504.4" type="curve" smooth="yes"/>
      <point x="215.6" y="589.0"/>
      <point x="279.5" y="646.5"/>
      <point x="359.6" y="646.5" type="curve" smooth="yes"/>
      <point x="439.7" y="646.5"/>
      <point x="485.4" y="589.0"/>
      <point x="471.9" y="504.4" type="curve" smooth="yes"/>
      <point x="458.1" y="419.2"/>
      <point x="394.2" y="361.7"/>
    </contour>
  </outline>
</glyph>
<glyph name="colon" format="2">
  <advance width="600.0"/>
  <unicode hex="003A"/>
  <outline>
    <contour>
      <point x="319.5" y="401.0" type="curve" smooth="yes"/>
      <point x="372.5" y="401.0"/>
      <point x="412.9" y="432.8"/>
      <point x="420.2" y="480.5" type="curve" smooth="yes"/>
      <point x="427.8" y="528.2"/>
      <point x="398.0" y="560.0"/>
      <point x="345.0" y="560.0" type="curve" smooth="yes"/>
      <point x="292.0" y="560.0"/>
      <point x="251.6" y="528.2"/>
      <point x="244.0" y="480.5" type="curve" smooth="yes"/>
      <point x="236.7" y="432.8"/>
      <point x="266.5" y="401.0"/>
    </contour>
    <contour>
      <point x="254.0" y="-10.0" type="curve" smooth="yes"/>
      <point x="307.0" y="-10.0"/>
      <point x="347.4" y="21.8"/>
      <point x="355.0" y="69.5" type="curve" smooth="yes"/>
      <point x="362.3" y="117.2"/>
      <point x="332.5" y="149.0"/>
      <point x="279.5" y="149.0" type="curve" smooth="yes"/>
      <point x="226.5" y="149.0"/>
      <point x="186.1" y="117.2"/>
      <point x="178.8" y="69.5" type="curve" smooth="yes"/>
      <point x="171.2" y="21.8"/>
      <point x="201.0" y="-10.0"/>
    </contour>
  </outline>
</glyph>
<glyph name="semicolon" format="2">
  <advance width="600.0"/>
  <unicode hex="003B"/>
  <outline>
    <contour>
      <point x="93.5" y="-160.0" type="line"/>
      <point x="188.5" y="-160.0" type="line"/>
      <point x="367.5" y="151.0" type="line"/>
      <point x="222.5" y="151.0" type="line"/>
    </contour>
    <contour>
      <point x="309.5" y="401.0" type="curve" smooth="yes"/>
      <point x="329.5" y="401.0" type="line" smooth="yes"/>
      <point x="375.9" y="401.0"/>
      <point x="414.3" y="434.1"/>
      <point x="421.6" y="480.5" type="curve" smooth="yes"/>
      <point x="429.2" y="526.2"/>
      <point x="400.7" y="560.0"/>
      <point x="355.0" y="560.0" type="curve" smooth="yes"/>
      <point x="335.0" y="560.0" type="line" smooth="yes"/>
      <point x="289.3" y="560.0"/>
      <point x="250.2" y="526.2"/>
      <point x="242.6" y="480.5" type="curve" smooth="yes"/>
      <point x="235.3" y="434.1"/>
      <point x="263.1" y="401.0"/>
    </contour>
  </outline>
</glyph>
<glyph name="less" format="2">
  <advance width="600.0"/>
  <unicode hex="003C"/>
  <outline>
    <contour>
      <point x="484.9" y="60.2" type="line"/>
      <point x="501.7" y="158.9" type="line"/>
      <point x="224.7" y="302.3" type="line" smooth="yes"/>
      <point x="202.5" y="314.3"/>
      <point x="176.1" y="322.7"/>
      <point x="163.3" y="325.7" type="curve"/>
      <point x="176.4" y="328.7"/>
      <point x="204.1" y="337.4"/>
      <point x="231.7" y="349.4" type="curve" smooth="yes"/>
      <point x="554.0" y="492.1" type="line"/>
      <point x="570.1" y="599.2" type="line"/>
      <point x="97.4" y="386.0" type="line"/>
      <point x="79.6" y="273.1" type="line"/>
    </contour>
  </outline>
</glyph>
<glyph name="equal" format="2">
  <advance width="600.0"/>
  <unicode hex="003D"/>
  <outline>
    <contour>
      <point x="103.3" y="402.5" type="line"/>
      <point x="536.3" y="402.5" type="line"/>
      <point x="552.0" y="500.5" type="line"/>
      <point x="119.0" y="500.5" type="line"/>
    </contour>
    <contour>
      <point x="64.7" y="159.5" type="line"/>
      <point x="497.7" y="159.5" type="line"/>
      <point x="513.7" y="257.5" type="line"/>
      <point x="80.7" y="257.5" type="line"/>
    </contour>
  </outline>
</glyph>
<glyph name="greater" format="2">
  <advance width="600.0"/>
  <unicode hex="003E"/>
  <outline>
    <contour>
      <point x="45.9" y="60.2" type="line"/>
      <point x="518.6" y="273.4" type="line"/>
      <point x="536.7" y="386.3" type="line"/>
      <point x="131.1" y="599.2" type="line"/>
      <point x="115.0" y="499.1" type="line"/>
      <point x="392.3" y="355.7" type="line" smooth="yes"/>
      <point x="414.5" y="343.7"/>
      <point x="440.2" y="335.3"/>
      <point x="453.4" y="332.3" type="curve"/>
      <point x="439.9" y="329.3"/>
      <point x="411.9" y="320.6"/>
      <point x="384.3" y="308.6" type="curve" smooth="yes"/>
      <point x="62.0" y="165.9" type="line"/>
    </contour>
  </outline>
</glyph>
<glyph name="question" format="2">
  <advance width="600.0"/>
  <unicode hex="003F"/>
  <outline>
    <contour>
      <point x="191.2" y="211.0" type="line"/>
      <point x="291.7" y="211.0" type="line"/>
      <point x="307.2" y="308.5" type="line"/>
      <point x="424.1" y="312.7"/>
      <point x="516.2" y="396.7"/>
      <point x="535.5" y="515.0" type="curve" smooth="yes"/>
      <point x="555.5" y="646.0"/>
      <point x="477.4" y="730.0"/>
      <point x="333.5" y="730.0" type="curve" smooth="yes"/>
      <point x="199.5" y="730.0" type="line"/>
      <point x="182.8" y="628.5" type="line"/>
      <point x="319.8" y="628.5" type="line" smooth="yes"/>
      <point x="396.5" y="628.5"/>
      <point x="438.0" y="584.1"/>
      <point x="427.5" y="515.0" type="curve" smooth="yes"/>
      <point x="416.0" y="446.2"/>
      <point x="360.9" y="401.5"/>
      <point x="285.2" y="401.5" type="curve" smooth="yes"/>
      <point x="220.2" y="401.5" type="line"/>
    </contour>
    <contour>
      <point x="191.7" y="-5.0" type="curve" smooth="yes"/>
      <point x="221.4" y="-5.0" type="line" smooth="yes"/>
      <point x="259.7" y="-5.0"/>
      <point x="290.2" y="21.3"/>
      <point x="296.5" y="58.7" type="curve" smooth="yes"/>
      <point x="302.1" y="95.1"/>
      <point x="281.7" y="121.0"/>
      <point x="241.6" y="121.0" type="curve" smooth="yes"/>
      <point x="211.6" y="121.0" type="line" smooth="yes"/>
      <point x="173.6" y="121.0"/>
      <point x="143.1" y="95.1"/>
      <point x="137.5" y="58.0" type="curve" smooth="yes"/>
      <point x="131.5" y="20.9"/>
      <point x="153.7" y="-5.0"/>
    </contour>
  </outline>
</glyph>
<glyph name="at" format="2">
  <advance width="600.0"/>
  <unicode hex="0040"/>
  <outline>
    <contour>
      <point x="252.3" y="-179.7" type="curve" smooth="yes"/>
      <point x="322.3" y="-179.7" type="line"/>
      <point x="335.8" y="-94.2" type="line"/>
      <point x="265.8" y="-94.2" type="line" smooth="yes"/>
      <point x="144.2" y="-94.2"/>
      <point x="83.9" y="-17.6"/>
      <point x="104.3" y="110.3" type="curve" smooth="yes"/>
      <point x="158.0" y="450.0" type="line" smooth="yes"/>
      <point x="179.1" y="583.0"/>
      <point x="259.1" y="659.5"/>
      <point x="373.4" y="659.5" type="curve" smooth="yes"/>
      <point x="478.0" y="659.5"/>
      <point x="525.1" y="601.4"/>
      <point x="508.3" y="496.5" type="curve" smooth="yes"/>
      <point x="507.7" y="489.1" type="line"/>
      <point x="497.7" y="410.0" type="line"/>
      <point x="480.7" y="410.0" type="line"/>
      <point x="493.0" y="399.3" type="line"/>
      <point x="501.3" y="452.8"/>
      <point x="464.7" y="488.0"/>
      <point x="400.1" y="488.0" type="curve" smooth="yes"/>
      <point x="314.6" y="488.0"/>
      <point x="259.8" y="431.9"/>
      <point x="243.5" y="330.0" type="curve" smooth="yes"/>
      <point x="225.1" y="213.0" type="line" smooth="yes"/>
      <point x="208.8" y="111.1"/>
      <point x="246.3" y="55.0"/>
      <point x="331.8" y="55.0" type="curve" smooth="yes"/>
      <point x="396.1" y="55.0"/>
      <point x="444.3" y="90.5"/>
      <point x="452.6" y="143.3" type="curve"/>
      <point x="434.1" y="133.0" type="line"/>
      <point x="453.6" y="133.0" type="line"/>
      <point x="442.3" y="65.0" type="line"/>
      <point x="532.0" y="65.0" type="line"/>
      <point x="600.3" y="496.5" type="line" smooth="yes"/>
      <point x="623.7" y="644.3"/>
      <point x="544.2" y="740.0"/>
      <point x="388.0" y="740.0" type="curve" smooth="yes"/>
      <point x="216.4" y="740.0"/>
      <point x="95.0" y="630.0"/>
      <point x="66.0" y="450.0" type="curve" smooth="yes"/>
      <point x="12.3" y="110.3" type="line" smooth="yes"/>
      <point x="-16.0" y="-67.6"/>
      <point x="76.8" y="-179.7"/>
    </contour>
    <contour>
      <point x="375.9" y="124.6" type="curve" smooth="yes"/>
      <point x="326.4" y="124.6"/>
      <point x="305.9" y="151.5"/>
      <point x="315.6" y="213.0" type="curve" smooth="yes"/>
      <point x="334.0" y="330.0" type="line" smooth="yes"/>
      <point x="343.4" y="389.4"/>
      <point x="372.9" y="418.4"/>
      <point x="422.4" y="418.4" type="curve" smooth="yes"/>
      <point x="472.3" y="418.4"/>
      <point x="491.4" y="390.1"/>
      <point x="482.0" y="330.7" type="curve" smooth="yes"/>
      <point x="465.0" y="220.0" type="line" smooth="yes"/>
      <point x="454.3" y="154.0"/>
      <point x="427.0" y="124.6"/>
    </contour>
  </outline>
</glyph>
<glyph name="A" format="2">
  <advance width="600.0"/>
  <unicode hex="0041"/>
  <anchor x="256.0" y="0.0" name="bottom"/>
  <anchor x="447.5" y="0.0" name="ogonek"/>
  <anchor x="372.0" y="730.0" name="top"/>
  <outline>
    <contour>
      <point x="-1.5" y="0.0" type="line"/>
      <point x="112.1" y="0.0" type="line"/>
      <point x="185.7" y="185.3" type="line"/>
      <point x="392.6" y="185.3" type="line"/>
      <point x="407.2" y="0.0" type="line"/>
      <point x="513.5" y="0.0" type="line"/>
      <point x="442.9" y="730.0" type="line"/>
      <point x="301.2" y="730.0" type="line"/>
    </contour>
    <contour>
      <point x="219.9" y="274.5" type="line"/>
      <point x="303.8" y="485.8" type="line" smooth="yes"/>
      <point x="333.0" y="559.6"/>
      <point x="352.8" y="618.1"/>
      <point x="359.7" y="639.1" type="curve"/>
      <point x="360.0" y="618.1"/>
      <point x="362.6" y="559.6"/>
      <point x="368.8" y="484.8" type="curve" smooth="yes"/>
      <point x="385.6" y="274.5" type="line"/>
    </contour>
  </outline>
</glyph>
<glyph name="B" format="2">
  <advance width="600.0"/>
  <unicode hex="0042"/>
  <anchor x="256.0" y="0.0" name="bottom"/>
  <anchor x="372.0" y="730.0" name="top"/>
  <outline>
    <contour>
      <point x="40.9" y="0.0" type="line"/>
      <point x="269.5" y="0.0" type="line" smooth="yes"/>
      <point x="408.5" y="0.0"/>
      <point x="507.3" y="79.5"/>
      <point x="527.3" y="205.4" type="curve" smooth="yes"/>
      <point x="546.0" y="320.9"/>
      <point x="479.7" y="390.8"/>
      <point x="369.4" y="389.1" type="curve"/>
      <point x="368.3" y="379.5" type="line"/>
      <point x="469.6" y="378.1"/>
      <point x="548.6" y="441.8"/>
      <point x="564.3" y="541.6" type="curve" smooth="yes"/>
      <point x="582.3" y="658.4"/>
      <point x="509.8" y="730.0"/>
      <point x="372.3" y="730.0" type="curve" smooth="yes"/>
      <point x="156.9" y="730.0" type="line"/>
    </contour>
    <contour>
      <point x="160.8" y="93.0" type="line"/>
      <point x="198.8" y="334.1" type="line"/>
      <point x="313.5" y="334.1" type="line" smooth="yes"/>
      <point x="391.8" y="334.1"/>
      <point x="432.1" y="284.2"/>
      <point x="421.0" y="209.9" type="curve" smooth="yes"/>
      <point x="408.9" y="137.7"/>
      <point x="353.8" y="93.0"/>
      <point x="275.5" y="93.0" type="curve" smooth="yes"/>
    </contour>
    <contour>
      <point x="212.9" y="424.1" type="line"/>
      <point x="246.9" y="637.0" type="line"/>
      <point x="356.6" y="637.0" type="line" smooth="yes"/>
      <point x="427.9" y="637.0"/>
      <point x="465.2" y="596.6"/>
      <point x="455.1" y="530.7" type="curve" smooth="yes"/>
      <point x="444.0" y="464.8"/>
      <point x="393.2" y="424.1"/>
      <point x="321.9" y="424.1" type="curve" smooth="yes"/>
    </contour>
  </outline>
</glyph>
<glyph name="C" format="2">
  <advance width="600.0"/>
  <unicode hex="0043"/>
  <anchor x="261.0" y="0.0" name="bottom"/>
  <anchor x="377.0" y="730.0" name="top"/>
  <outline>
    <contour>
      <point x="258.0" y="-10.0" type="curve" smooth="yes"/>
      <point x="393.8" y="-10.0"/>
      <point x="494.3" y="72.8"/>
      <point x="515.3" y="203.0" type="curve"/>
      <point x="407.3" y="203.0" type="line"/>
      <point x="395.5" y="127.5"/>
      <point x="346.0" y="85.7"/>
      <point x="273.4" y="85.7" type="curve" smooth="yes"/>
      <point x="200.1" y="85.7"/>
      <point x="164.1" y="127.5"/>
      <point x="175.9" y="203.0" type="curve" smooth="yes"/>
      <point x="227.0" y="527.7" type="line" smooth="yes"/>
      <point x="239.1" y="602.5"/>
      <point x="288.6" y="644.3"/>
      <point x="361.9" y="644.3" type="curve" smooth="yes"/>
      <point x="434.5" y="644.3"/>
      <point x="470.5" y="602.5"/>
      <point x="458.4" y="527.0" type="curve"/>
      <point x="566.4" y="527.0" type="line"/>
      <point x="586.7" y="657.2"/>
      <point x="512.8" y="740.0"/>
      <point x="377.0" y="740.0" type="curve" smooth="yes"/>
      <point x="239.8" y="740.0"/>
      <point x="140.0" y="658.6"/>
      <point x="119.0" y="527.0" type="curve" smooth="yes"/>
      <point x="67.9" y="203.0" type="line" smooth="yes"/>
      <point x="46.9" y="71.7"/>
      <point x="120.8" y="-10.0"/>
    </contour>
  </outline>
</glyph>
<glyph name="D" format="2">
  <advance width="600.0"/>
  <unicode hex="0044"/>
  <anchor x="256.0" y="0.0" name="bottom"/>
  <anchor x="314.0" y="365.0" name="center"/>
  <anchor x="372.0" y="730.0" name="top"/>
  <outline>
    <contour>
      <point x="39.3" y="0.0" type="line"/>
      <point x="242.7" y="0.0" type="line" smooth="yes"/>
      <point x="386.7" y="0.0"/>
      <point x="494.3" y="88.4"/>
      <point x="515.6" y="224.5" type="curve" smooth="yes"/>
      <point x="560.4" y="506.5" type="line" smooth="yes"/>
      <point x="581.7" y="641.9"/>
      <point x="502.7" y="730.0"/>
      <point x="358.7" y="730.0" type="curve" smooth="yes"/>
      <point x="155.3" y="730.0" type="line"/>
    </contour>
    <contour>
      <point x="163.0" y="98.0" type="line"/>
      <point x="247.3" y="632.0" type="line"/>
      <point x="342.7" y="632.0" type="line" smooth="yes"/>
      <point x="422.6" y="632.0"/>
      <point x="464.6" y="584.2"/>
      <point x="452.4" y="506.5" type="curve" smooth="yes"/>
      <point x="407.6" y="224.5" type="line" smooth="yes"/>
      <point x="395.1" y="145.8"/>
      <point x="338.3" y="98.0"/>
      <point x="258.4" y="98.0" type="curve" smooth="yes"/>
    </contour>
  </outline>
</glyph>
<glyph name="E" format="2">
  <advance width="600.0"/>
  <unicode hex="0045"/>
  <anchor x="320.0" y="0.0" name="bottom"/>
  <anchor x="387.0" y="0.0" name="ogonek"/>
  <anchor x="392.0" y="730.0" name="top"/>
  <anchor x="92.0" y="730.0" name="topleft"/>
  <outline>
    <contour>
      <point x="50.0" y="0.0" type="line"/>
      <point x="479.0" y="0.0" type="line"/>
      <point x="494.1" y="95.8" type="line"/>
      <point x="171.5" y="95.8" type="line"/>
      <point x="208.9" y="331.7" type="line"/>
      <point x="496.5" y="331.7" type="line"/>
      <point x="511.6" y="426.8" type="line"/>
      <point x="224.0" y="426.8" type="line"/>
      <point x="257.0" y="634.2" type="line"/>
      <point x="579.6" y="634.2" type="line"/>
      <point x="595.0" y="730.0" type="line"/>
      <point x="166.0" y="730.0" type="line"/>
    </contour>
  </outline>
</glyph>
<glyph name="F" format="2">
  <advance width="600.0"/>
  <unicode hex="0046"/>
  <anchor x="256.0" y="0.0" name="bottom"/>
  <anchor x="372.0" y="730.0" name="top"/>
  <outline>
    <contour>
      <point x="43.5" y="0.0" type="line"/>
      <point x="151.5" y="0.0" type="line"/>
      <point x="201.0" y="313.2" type="line"/>
      <point x="509.0" y="313.2" type="line"/>
      <point x="524.7" y="412.6" type="line"/>
      <point x="214.7" y="412.6" type="line"/>
      <point x="249.5" y="630.6" type="line"/>
      <point x="585.5" y="630.6" type="line"/>
      <point x="601.5" y="730.0" type="line"/>
      <point x="159.5" y="730.0" type="line"/>
    </contour>
  </outline>
</glyph>
<glyph name="H" format="2">
  <advance width="600.0"/>
  <unicode hex="0048"/>
  <anchor x="256.0" y="0.0" name="bottom"/>
  <anchor x="314.0" y="365.0" name="center"/>
  <anchor x="372.0" y="730.0" name="top"/>
  <anchor x="92.0" y="730.0" name="topleft"/>
  <outline>
    <contour>
      <point x="40.9" y="0.0" type="line"/>
      <point x="148.9" y="0.0" type="line"/>
      <point x="200.7" y="328.2" type="line"/>
      <point x="414.9" y="328.2" type="line"/>
      <point x="363.1" y="0.0" type="line"/>
      <point x="471.1" y="0.0" type="line"/>
      <point x="587.1" y="730.0" type="line"/>
      <point x="479.1" y="730.0" type="line"/>
      <point x="430.6" y="427.6" type="line"/>
      <point x="216.4" y="427.6" type="line"/>
      <point x="264.9" y="730.0" type="line"/>
      <point x="156.9" y="730.0" type="line"/>
    </contour>
  </outline>
</glyph>
<glyph name="I" format="2">
  <advance width="600.0"/>
  <unicode hex="0049"/>
  <anchor x="256.0" y="0.0" name="bottom"/>
  <anchor x="280.0" y="0.0" name="ogonek"/>
  <anchor x="372.0" y="730.0" name="top"/>
  <anchor x="92.0" y="730.0" name="topleft"/>
  <outline>
    <contour>
      <point x="53.5" y="0.0" type="line"/>
      <point x="458.5" y="0.0" type="line"/>
      <point x="473.9" y="96.4" type="line"/>
      <point x="326.1" y="96.4" type="line"/>
      <point x="411.3" y="633.6" type="line"/>
      <point x="559.1" y="633.6" type="line"/>
      <point x="574.5" y="730.0" type="line"/>
      <point x="169.5" y="730.0" type="line"/>
      <point x="154.1" y="633.6" type="line"/>
      <point x="301.9" y="633.6" type="line"/>
      <point x="216.7" y="96.4" type="line"/>
      <point x="68.9" y="96.4" type="line"/>
    </contour>
  </outline>
</glyph>
<glyph name="J" format="2">
  <advance width="600.0"/>
  <unicode hex="004A"/>
  <anchor x="256.0" y="0.0" name="bottom"/>
  <anchor x="453.6" y="730.0" name="top"/>
  <outline>
    <contour>
      <point x="224.0" y="-10.0" type="curve" smooth="yes"/>
      <point x="372.5" y="-10.0"/>
      <point x="469.5" y="70.9"/>
      <point x="492.1" y="212.7" type="curve" smooth="yes"/>
      <point x="574.5" y="730.0" type="line"/>
      <point x="261.5" y="730.0" type="line"/>
      <point x="245.8" y="632.1" type="line"/>
      <point x="450.8" y="632.1" type="line"/>
      <point x="384.1" y="212.7" type="line" smooth="yes"/>
      <point x="371.3" y="132.1"/>
      <point x="317.2" y="85.0"/>
      <point x="239.4" y="85.0" type="curve" smooth="yes"/>
      <point x="161.3" y="85.0"/>
      <point x="122.3" y="132.4"/>
      <point x="135.1" y="213.3" type="curve"/>
      <point x="27.1" y="213.3" type="line"/>
      <point x="5.800000000000001" y="75.5"/>
      <point x="79.8" y="-10.0"/>
    </contour>
  </outline>
</glyph>
<glyph name="K" format="2">
  <advance width="600.0"/>
  <unicode hex="004B"/>
  <anchor x="256.0" y="0.0" name="bottom"/>
  <anchor x="372.0" y="730.0" name="top"/>
  <outline>
    <contour>
      <point x="39.9" y="0.0" type="line"/>
      <point x="147.9" y="0.0" type="line"/>
      <point x="200.4" y="329.3" type="line"/>
      <point x="298.8" y="329.3" type="line"/>
      <point x="402.8" y="0.0" type="line"/>
      <point x="520.5" y="0.0" type="line"/>
      <point x="398.2" y="374.8" type="line"/>
      <point x="627.7" y="730.0" type="line"/>
      <point x="508.8" y="730.0" type="line"/>
      <point x="310.0" y="426.0" type="line"/>
      <point x="215.4" y="426.0" type="line"/>
      <point x="263.9" y="730.0" type="line"/>
      <point x="155.9" y="730.0" type="line"/>
    </contour>
  </outline>
</glyph>
<glyph name="L" format="2">
  <advance width="600.0"/>
  <unicode hex="004C"/>
  <anchor x="296.0" y="0.0" name="bottom"/>
  <anchor x="314.0" y="365.0" name="center"/>
  <anchor x="255.7" y="730.0" name="top"/>
  <anchor x="652.0" y="730.0" name="topright"/>
  <outline>
    <contour>
      <point x="85.0" y="0.0" type="line"/>
      <point x="512.5" y="0.0" type="line"/>
      <point x="528.2" y="99.4" type="line"/>
      <point x="208.7" y="99.4" type="line"/>
      <point x="309.0" y="730.0" type="line"/>
      <point x="201.0" y="730.0" type="line"/>
    </contour>
  </outline>
</glyph>
<glyph name="M" format="2">
  <advance width="600.0"/>
  <unicode hex="004D"/>
  <anchor x="256.0" y="0.0" name="bottom"/>
  <anchor x="372.0" y="730.0" name="top"/>
  <outline>
    <contour>
      <point x="21.8" y="0.0" type="line"/>
      <point x="124.5" y="0.0" type="line"/>
      <point x="163.5" y="245.5" type="line" smooth="yes"/>
      <point x="185.4" y="383.1"/>
      <point x="197.7" y="569.7"/>
      <point x="201.1" y="671.5" type="curve"/>
      <point x="255.3" y="317.0" type="line"/>
      <point x="359.9" y="317.0" type="line"/>
      <point x="523.2" y="671.5" type="line"/>
      <point x="494.5" y="565.7"/>
      <point x="447.4" y="376.1"/>
      <point x="426.5" y="245.5" type="curve" smooth="yes"/>
      <point x="387.5" y="0.0" type="line"/>
      <point x="490.2" y="0.0" type="line"/>
      <point x="606.2" y="730.0" type="line"/>
      <point x="470.6" y="730.0" type="line"/>
      <point x="362.7" y="496.5" type="line" smooth="yes"/>
      <point x="342.4" y="451.3"/>
      <point x="325.2" y="407.7"/>
      <point x="317.7" y="387.1" type="curve"/>
      <point x="315.9" y="407.7"/>
      <point x="311.4" y="451.3"/>
      <point x="304.4" y="495.8" type="curve" smooth="yes"/>
      <point x="268.8" y="730.0" type="line"/>
      <point x="137.8" y="730.0" type="line"/>
    </contour>
  </outline>
</glyph>
<glyph name="N" format="2">
  <advance width="600.0"/>
  <unicode hex="004E"/>
  <anchor x="256.0" y="0.0" name="bottom"/>
  <anchor x="372.0" y="730.0" name="top"/>
  <outline>
    <contour>
      <point x="37.0" y="0.0" type="line"/>
      <point x="137.5" y="0.0" type="line"/>
      <point x="198.3" y="383.0" type="line" smooth="yes"/>
      <point x="210.0" y="454.8"/>
      <point x="219.0" y="553.5"/>
      <point x="223.0" y="607.0" type="curve"/>
      <point x="339.8" y="0.0" type="line"/>
      <point x="475.0" y="0.0" type="line"/>
      <point x="591.0" y="730.0" type="line"/>
      <point x="490.5" y="730.0" type="line"/>
      <point x="430.6" y="353.0" type="line" smooth="yes"/>
      <point x="418.9" y="281.2"/>
      <point x="409.6" y="179.2"/>
      <point x="406.0" y="123.0" type="curve"/>
      <point x="288.2" y="730.0" type="line"/>
      <point x="153.0" y="730.0" type="line"/>
    </contour>
  </outline>
</glyph>
<glyph name="O" format="2">
  <advance width="600.0"/>
  <unicode hex="004F"/>
  <anchor x="256.0" y="0.0" name="bottom"/>
  <anchor x="314.0" y="365.0" name="center"/>
  <anchor x="387.0" y="700.0" name="horn"/>
  <anchor x="305.0" y="0.0" name="ogonek"/>
  <anchor x="372.0" y="730.0" name="top"/>
  <anchor x="92.0" y="730.0" name="topleft"/>
  <anchor x="652.0" y="730.0" name="topright"/>
  <outline>
    <contour>
      <point x="254.0" y="-10.0" type="curve" smooth="yes"/>
      <point x="389.8" y="-10.0"/>
      <point x="487.7" y="71.7"/>
      <point x="508.7" y="203.0" type="curve" smooth="yes"/>
      <point x="559.8" y="527.7" type="line" smooth="yes"/>
      <point x="580.1" y="658.3"/>
      <point x="508.8" y="740.0"/>
      <point x="373.0" y="740.0" type="curve" smooth="yes"/>
      <point x="237.2" y="740.0"/>
      <point x="140.0" y="658.3"/>
      <point x="119.0" y="527.0" type="curve" smooth="yes"/>
      <point x="67.9" y="203.0" type="line" smooth="yes"/>
      <point x="46.9" y="71.7"/>
      <point x="118.2" y="-10.0"/>
    </contour>
    <contour>
      <point x="269.4" y="85.7" type="curve" smooth="yes"/>
      <point x="196.8" y="85.7"/>
      <point x="164.1" y="127.5"/>
      <point x="175.9" y="203.0" type="curve" smooth="yes"/>
      <point x="227.0" y="527.0" type="line" smooth="yes"/>
      <point x="238.8" y="602.5"/>
      <point x="285.0" y="644.3"/>
      <point x="357.9" y="644.3" type="curve" smooth="yes"/>
      <point x="430.8" y="644.3"/>
      <point x="463.6" y="602.5"/>
      <point x="451.8" y="527.0" type="curve" smooth="yes"/>
      <point x="400.7" y="203.0" type="line" smooth="yes"/>
      <point x="388.9" y="127.5"/>
      <point x="342.0" y="85.7"/>
    </contour>
  </outline>
</glyph>
<glyph name="P" format="2">
  <advance width="600.0"/>
  <unicode hex="0050"/>
  <anchor x="256.0" y="0.0" name="bottom"/>
  <anchor x="372.0" y="730.0" name="top"/>
  <outline>
    <contour>
      <point x="40.2" y="0.0" type="line"/>
      <point x="148.2" y="0.0" type="line"/>
      <point x="194.4" y="289.8" type="line"/>
      <point x="325.6" y="289.8" type="line" smooth="yes"/>
      <point x="466.7" y="289.8"/>
      <point x="571.8" y="376.5"/>
      <point x="593.1" y="509.9" type="curve" smooth="yes"/>
      <point x="613.7" y="643.6"/>
      <point x="536.8" y="730.0"/>
      <point x="395.4" y="730.0" type="curve" smooth="yes"/>
      <point x="156.2" y="730.0" type="line"/>
    </contour>
    <contour>
      <point x="209.4" y="387.0" type="line"/>
      <point x="248.5" y="632.8" type="line"/>
      <point x="379.7" y="632.8" type="line" smooth="yes"/>
      <point x="454.2" y="632.8"/>
      <point x="494.8" y="585.0"/>
      <point x="483.0" y="509.9" type="curve" smooth="yes"/>
      <point x="471.2" y="434.8"/>
      <point x="415.1" y="387.0"/>
      <point x="340.6" y="387.0" type="curve" smooth="yes"/>
    </contour>
  </outline>
</glyph>
<glyph name="Q" format="2">
  <advance width="600.0"/>
  <unicode hex="0051"/>
  <anchor x="256.0" y="0.0" name="bottom"/>
  <anchor x="372.0" y="730.0" name="top"/>
  <outline>
    <contour>
      <point x="346.0" y="-180.0" type="line"/>
      <point x="458.7" y="-180.0" type="line"/>
      <point x="352.2" y="58.1" type="line"/>
      <point x="342.9" y="3.7" type="line"/>
      <point x="435.1" y="30.4"/>
      <point x="498.3" y="105.3"/>
      <point x="514.3" y="206.5" type="curve" smooth="yes"/>
      <point x="564.7" y="523.5" type="line" smooth="yes"/>
      <point x="585.7" y="654.8"/>
      <point x="510.7" y="740.0"/>
      <point x="373.0" y="740.0" type="curve" smooth="yes"/>
      <point x="235.0" y="740.0"/>
      <point x="133.7" y="655.1"/>
      <point x="112.7" y="523.5" type="curve" smooth="yes"/>
      <point x="62.3" y="206.5" type="line" smooth="yes"/>
      <point x="41.3" y="75.5"/>
      <point x="116.3" y="-10.0"/>
      <point x="254.0" y="-10.0" type="curve" smooth="yes"/>
      <point x="262.8" y="-10.0"/>
      <point x="273.2" y="-9.0"/>
      <point x="282.4" y="-7.6" type="curve"/>
      <point x="266.8" y="-0.8999999999999999" type="line"/>
    </contour>
    <contour>
      <point x="269.4" y="85.3" type="curve" smooth="yes"/>
      <point x="195.5" y="85.3"/>
      <point x="158.5" y="132.0"/>
      <point x="170.3" y="206.5" type="curve" smooth="yes"/>
      <point x="220.7" y="523.5" type="line" smooth="yes"/>
      <point x="232.5" y="598.3"/>
      <point x="285.9" y="645.0"/>
      <point x="358.6" y="645.0" type="curve" smooth="yes"/>
      <point x="431.3" y="645.0"/>
      <point x="468.5" y="598.3"/>
      <point x="456.7" y="523.5" type="curve" smooth="yes"/>
      <point x="406.3" y="206.5" type="line" smooth="yes"/>
      <point x="394.5" y="132.0"/>
      <point x="343.3" y="85.3"/>
    </contour>
  </outline>
</glyph>
<glyph name="R" format="2">
  <advance width="600.0"/>
  <unicode hex="0052"/>
  <anchor x="256.0" y="0.0" name="bottom"/>
  <anchor x="372.0" y="730.0" name="top"/>
  <outline>
    <contour>
      <point x="39.9" y="0.0" type="line"/>
      <point x="147.6" y="0.0" type="line"/>
      <point x="195.1" y="299.8" type="line"/>
      <point x="298.0" y="299.8" type="line"/>
      <point x="389.1" y="0.0" type="line"/>
      <point x="507.0" y="0.0" type="line"/>
      <point x="389.3" y="359.6" type="line"/>
      <point x="375.9" y="305.9" type="line"/>
      <point x="481.6" y="324.9"/>
      <point x="562.1" y="406.5"/>
      <point x="578.4" y="516.4" type="curve" smooth="yes"/>
      <point x="599.0" y="644.7"/>
      <point x="522.1" y="730.0"/>
      <point x="384.6" y="730.0" type="curve" smooth="yes"/>
      <point x="155.9" y="730.0" type="line"/>
    </contour>
    <contour>
      <point x="210.2" y="395.5" type="line"/>
      <point x="248.2" y="634.3" type="line"/>
      <point x="369.2" y="634.3" type="line" smooth="yes"/>
      <point x="440.8" y="634.3"/>
      <point x="480.1" y="587.5"/>
      <point x="468.0" y="514.3" type="curve" smooth="yes"/>
      <point x="456.9" y="441.7"/>
      <point x="403.5" y="395.5"/>
      <point x="331.2" y="395.5" type="curve" smooth="yes"/>
    </contour>
  </outline>
</glyph>
<glyph name="S" format="2">
  <advance width="600.0"/>
  <unicode hex="0053"/>
  <anchor x="256.0" y="0.0" name="bottom"/>
  <anchor x="372.0" y="730.0" name="top"/>
  <outline>
    <contour>
      <point x="256.8" y="-10.0" type="curve" smooth="yes"/>
      <point x="397.1" y="-10.0"/>
      <point x="502.5" y="71.2"/>
      <point x="522.4" y="194.8" type="curve" smooth="yes"/>
      <point x="538.0" y="296.6"/>
      <point x="488.8" y="373.5"/>
      <point x="387.5" y="404.2" type="curve" smooth="yes"/>
      <point x="298.5" y="432.0" type="line" smooth="yes"/>
      <point x="247.1" y="447.6"/>
      <point x="223.2" y="491.1"/>
      <point x="232.6" y="548.3" type="curve" smooth="yes"/>
      <point x="241.7" y="608.9"/>
      <point x="288.9" y="645.0"/>
      <point x="360.9" y="645.0" type="curve" smooth="yes"/>
      <point x="434.5" y="645.0"/>
      <point x="469.8" y="606.2"/>
      <point x="459.3" y="542.0" type="curve"/>
      <point x="567.3" y="542.0" type="line"/>
      <point x="585.2" y="662.1"/>
      <point x="510.9" y="740.7"/>
      <point x="376.6" y="740.7" type="curve" smooth="yes"/>
      <point x="241.2" y="740.7"/>
      <point x="142.2" y="661.2"/>
      <point x="122.9" y="540.9" type="curve" smooth="yes"/>
      <point x="108.0" y="440.4"/>
      <point x="158.9" y="363.0"/>
      <point x="260.0" y="333.3" type="curve" smooth="yes"/>
      <point x="347.1" y="306.5" type="line" smooth="yes"/>
      <point x="397.7" y="291.3"/>
      <point x="422.2" y="248.2"/>
      <point x="414.1" y="191.3" type="curve" smooth="yes"/>
      <point x="403.3" y="125.2"/>
      <point x="350.8" y="85.7"/>
      <point x="273.1" y="85.7" type="curve" smooth="yes"/>
      <point x="190.6" y="85.7"/>
      <point x="148.3" y="126.5"/>
      <point x="159.1" y="193.0" type="curve"/>
      <point x="51.1" y="193.0" type="line"/>
      <point x="32.2" y="67.8"/>
      <point x="110.5" y="-10.0"/>
    </contour>
  </outline>
</glyph>
<glyph name="T" format="2">
  <advance width="600.0"/>
  <unicode hex="0054"/>
  <anchor x="256.0" y="0.0" name="bottom"/>
  <anchor x="314.0" y="365.0" name="center"/>
  <anchor x="372.0" y="730.0" name="top"/>
  <outline>
    <contour>
      <point x="202.0" y="0.0" type="line"/>
      <point x="310.0" y="0.0" type="line"/>
      <point x="410.0" y="630.6" type="line"/>
      <point x="605.5" y="630.6" type="line"/>
      <point x="621.5" y="730.0" type="line"/>
      <point x="122.5" y="730.0" type="line"/>
      <point x="106.5" y="630.6" type="line"/>
      <point x="302.0" y="630.6" type="line"/>
    </contour>
  </outline>
</glyph>
<glyph name="U" format="2">
  <advance width="600.0"/>
  <unicode hex="0055"/>
  <anchor x="256.0" y="0.0" name="bottom"/>
  <anchor x="457.0" y="730.0" name="horn"/>
  <anchor x="305.0" y="0.0" name="ogonek"/>
  <anchor x="372.0" y="730.0" name="top"/>
  <anchor x="652.0" y="730.0" name="topright"/>
  <outline>
    <contour>
      <point x="254.0" y="-10.0" type="curve" smooth="yes"/>
      <point x="394.3" y="-10.0"/>
      <point x="486.3" y="71.1"/>
      <point x="507.6" y="204.2" type="curve" smooth="yes"/>
      <point x="591.0" y="730.0" type="line"/>
      <point x="483.0" y="730.0" type="line"/>
      <point x="399.6" y="204.5" type="line" smooth="yes"/>
      <point x="387.5" y="130.2"/>
      <point x="342.2" y="85.0"/>
      <point x="269.4" y="85.0" type="curve" smooth="yes"/>
      <point x="195.6" y="85.0"/>
      <point x="165.5" y="130.2"/>
      <point x="177.6" y="204.5" type="curve" smooth="yes"/>
      <point x="261.0" y="730.0" type="line"/>
      <point x="153.0" y="730.0" type="line"/>
      <point x="69.6" y="204.2" type="line" smooth="yes"/>
      <point x="48.3" y="71.5"/>
      <point x="114.4" y="-10.0"/>
    </contour>
  </outline>
</glyph>
<glyph name="V" format="2">
  <advance width="600.0"/>
  <unicode hex="0056"/>
  <anchor x="256.0" y="0.0" name="bottom"/>
  <anchor x="372.0" y="730.0" name="top"/>
  <outline>
    <contour>
      <point x="184.4" y="0.0" type="line"/>
      <point x="327.5" y="0.0" type="line"/>
      <point x="629.5" y="730.0" type="line"/>
      <point x="518.2" y="730.0" type="line"/>
      <point x="325.5" y="244.8" type="line" smooth="yes"/>
      <point x="302.3" y="186.6"/>
      <point x="281.5" y="123.4"/>
      <point x="272.2" y="92.2" type="curve"/>
      <point x="271.9" y="123.4"/>
      <point x="268.5" y="186.6"/>
      <point x="263.7" y="244.5" type="curve" smooth="yes"/>
      <point x="223.8" y="730.0" type="line"/>
      <point x="114.5" y="730.0" type="line"/>
    </contour>
  </outline>
</glyph>
<glyph name="W" format="2">
  <advance width="600.0"/>
  <unicode hex="0057"/>
  <anchor x="256.0" y="0.0" name="bottom"/>
  <anchor x="372.0" y="730.0" name="top"/>
  <outline>
    <contour>
      <point x="55.7" y="0.0" type="line"/>
      <point x="181.9" y="0.0" type="line"/>
      <point x="328.7" y="530.5" type="line" smooth="yes"/>
      <point x="340.5" y="572.2"/>
      <point x="353.7" y="628.3"/>
      <point x="361.6" y="658.9" type="curve"/>
      <point x="359.0" y="628.3"/>
      <point x="355.1" y="572.2"/>
      <point x="353.1" y="530.5" type="curve" smooth="yes"/>
      <point x="327.5" y="0.0" type="line"/>
      <point x="453.4" y="0.0" type="line"/>
      <point x="651.5" y="730.0" type="line"/>
      <point x="556.9" y="730.0" type="line"/>
      <point x="423.2" y="205.6" type="line" smooth="yes"/>
      <point x="412.7" y="166.1"/>
      <point x="400.4" y="108.3"/>
      <point x="393.1" y="75.5" type="curve"/>
      <point x="395.1" y="108.3"/>
      <point x="397.1" y="166.1"/>
      <point x="399.1" y="205.6" type="curve" smooth="yes"/>
      <point x="423.7" y="730.0" type="line"/>
      <point x="322.1" y="730.0" type="line"/>
      <point x="174.7" y="205.6" type="line" smooth="yes"/>
      <point x="163.2" y="166.1"/>
      <point x="149.7" y="108.3"/>
      <point x="140.8" y="75.5" type="curve"/>
      <point x="145.4" y="108.3"/>
      <point x="150.6" y="166.1"/>
      <point x="153.3" y="205.6" type="curve" smooth="yes"/>
      <point x="187.3" y="730.0" type="line"/>
      <point x="92.5" y="730.0" type="line"/>
    </contour>
  </outline>
</glyph>
<glyph name="X" format="2">
  <advance width="600.0"/>
  <unicode hex="0058"/>
  <anchor x="256.0" y="0.0" name="bottom"/>
  <anchor x="372.0" y="730.0" name="top"/>
  <outline>
    <contour>
      <point x="-10.0" y="0.0" type="line"/>
      <point x="112.6" y="0.0" type="line"/>
      <point x="261.1" y="217.1" type="line" smooth="yes"/>
      <point x="277.3" y="241.2"/>
      <point x="293.8" y="269.9"/>
      <point x="302.6" y="285.0" type="curve"/>
      <point x="306.3" y="269.9"/>
      <point x="315.4" y="241.2"/>
      <point x="324.7" y="216.4" type="curve" smooth="yes"/>
      <point x="404.7" y="0.0" type="line"/>
      <point x="522.0" y="0.0" type="line"/>
      <point x="376.9" y="373.7" type="line"/>
      <point x="626.4" y="730.0" type="line"/>
      <point x="504.5" y="730.0" type="line"/>
      <point x="369.0" y="530.8" type="line" smooth="yes"/>
      <point x="352.1" y="506.0"/>
      <point x="336.9" y="477.9"/>
      <point x="329.1" y="464.1" type="curve"/>
      <point x="324.6" y="477.9"/>
      <point x="314.2" y="505.7"/>
      <point x="305.9" y="530.8" type="curve" smooth="yes"/>
      <point x="235.6" y="730.0" type="line"/>
      <point x="117.6" y="730.0" type="line"/>
      <point x="254.4" y="374.7" type="line"/>
    </contour>
  </outline>
</glyph>
<glyph name="Y" format="2">
  <advance width="600.0"/>
  <unicode hex="0059"/>
  <anchor x="256.0" y="0.0" name="bottom"/>
  <anchor x="372.0" y="730.0" name="top"/>
  <anchor x="92.0" y="730.0" name="topleft"/>
  <outline>
    <contour>
      <point x="202.0" y="0.0" type="line"/>
      <point x="310.0" y="0.0" type="line"/>
      <point x="352.4" y="269.1" type="line"/>
      <point x="643.0" y="730.0" type="line"/>
      <point x="528.5" y="730.0" type="line"/>
      <point x="358.3" y="454.0" type="line" smooth="yes"/>
      <point x="336.1" y="417.7"/>
      <point x="320.7" y="383.4"/>
      <point x="313.9" y="367.4" type="curve"/>
      <point x="312.9" y="383.4"/>
      <point x="306.6" y="417.7"/>
      <point x="295.6" y="454.0" type="curve" smooth="yes"/>
      <point x="210.6" y="730.0" type="line"/>
      <point x="101.0" y="730.0" type="line"/>
      <point x="244.4" y="269.1" type="line"/>
    </contour>
  </outline>
</glyph>
<glyph name="Z" format="2">
  <advance width="600.0"/>
  <unicode hex="005A"/>
  <anchor x="256.0" y="0.0" name="bottom"/>
  <anchor x="314.0" y="365.0" name="center"/>
  <anchor x="372.0" y="730.0" name="top"/>
  <outline>
    <contour>
      <point x="38.3" y="0.0" type="line"/>
      <point x="474.0" y="0.0" type="line"/>
      <point x="489.7" y="99.4" type="line"/>
      <point x="172.0" y="99.4" type="line"/>
      <point x="562.3" y="625.0" type="line"/>
      <point x="579.7" y="730.0" type="line"/>
      <point x="159.9" y="730.0" type="line"/>
      <point x="143.9" y="630.6" type="line"/>
      <point x="445.4" y="630.6" type="line"/>
      <point x="54.7" y="105.0" type="line"/>
    </contour>
  </outline>
</glyph>
<glyph name="bracketleft" format="2">
  <advance width="600.0"/>
  <unicode hex="005B"/>
  <outline>
    <contour>
      <point x="133.5" y="-110.0" type="line"/>
      <point x="396.5" y="-110.0" type="line"/>
      <point x="411.5" y="-12.0" type="line"/>
      <point x="256.5" y="-12.0" type="line"/>
      <point x="374.5" y="732.0" type="line"/>
      <point x="529.5" y="732.0" type="line"/>
      <point x="544.5" y="830.0" type="line"/>
      <point x="281.5" y="830.0" type="line"/>
    </contour>
  </outline>
</glyph>
<glyph name="backslash" format="2">
  <advance width="600.0"/>
  <unicode hex="005C"/>
  <outline>
    <contour>
      <point x="362.9" y="-110.0" type="line"/>
      <point x="471.2" y="-110.0" type="line"/>
      <point x="262.5" y="830.0" type="line"/>
      <point x="154.2" y="830.0" type="line"/>
    </contour>
  </outline>
</glyph>
<glyph name="asciicircum" format="2">
  <advance width="600.0"/>
  <unicode hex="005E"/>
  <outline>
    <contour>
      <point x="84.0" y="340.0" type="line"/>
      <point x="186.0" y="340.0" type="line"/>
      <point x="329.1" y="583.6" type="line" smooth="yes"/>
      <point x="345.1" y="610.8"/>
      <point x="357.2" y="638.4"/>
      <point x="363.3" y="652.1" type="curve"/>
      <point x="364.7" y="638.4"/>
      <point x="370.1" y="610.8"/>
      <point x="376.8" y="583.6" type="curve" smooth="yes"/>
      <point x="439.7" y="340.0" type="line"/>
      <point x="536.0" y="340.0" type="line"/>
      <point x="424.3" y="730.0" type="line"/>
      <point x="321.7" y="730.0" type="line"/>
    </contour>
  </outline>
</glyph>
<glyph name="underscore" format="2">
  <advance width="600.0"/>
  <unicode hex="005F"/>
  <outline>
    <contour>
      <point x="-3.0" y="-119.5" type="line"/>
      <point x="477.0" y="-119.5" type="line"/>
      <point x="492.0" y="-25.0" type="line"/>
      <point x="12.0" y="-25.0" type="line"/>
    </contour>
  </outline>
</glyph>
<glyph name="a" format="2">
  <advance width="600.0"/>
  <unicode hex="0061"/>
  <anchor x="261.0" y="0.0" name="bottom"/>
  <anchor x="411.0" y="0.0" name="ogonek"/>
  <anchor x="348.0" y="550.0" name="top"/>
  <outline>
    <contour>
      <point x="215.2" y="-10.0" type="curve" smooth="yes"/>
      <point x="306.2" y="-10.0"/>
      <point x="373.0" y="42.9"/>
      <point x="386.6" y="130.2" type="curve"/>
      <point x="359.9" y="105.0" type="line"/>
      <point x="383.0" y="105.0" type="line"/>
      <point x="366.0" y="0.0" type="line"/>
      <point x="472.5" y="0.0" type="line"/>
      <point x="559.5" y="550.0" type="line"/>
      <point x="451.8" y="550.0" type="line"/>
      <point x="437.4" y="445.0" type="line"/>
      <point x="412.9" y="445.0" type="line"/>
      <point x="432.4" y="419.8" type="line"/>
      <point x="446.0" y="506.4"/>
      <point x="396.5" y="560.0"/>
      <point x="306.2" y="560.0" type="curve" smooth="yes"/>
      <point x="195.2" y="560.0"/>
      <point x="112.6" y="480.2"/>
      <point x="92.0" y="352.0" type="curve" smooth="yes"/>
      <point x="67.6" y="197.3" type="line" smooth="yes"/>
      <point x="47.0" y="69.5"/>
      <point x="104.9" y="-10.0"/>
    </contour>
    <contour>
      <point x="267.8" y="83.6" type="curve" smooth="yes"/>
      <point x="197.8" y="83.6"/>
      <point x="164.8" y="126.1"/>
      <point x="176.6" y="203.0" type="curve" smooth="yes"/>
      <point x="199.0" y="347.0" type="line" smooth="yes"/>
      <point x="210.8" y="423.6"/>
      <point x="258.0" y="466.4"/>
      <point x="328.0" y="466.4" type="curve" smooth="yes"/>
      <point x="396.3" y="466.4"/>
      <point x="431.0" y="422.2"/>
      <point x="419.2" y="347.0" type="curve" smooth="yes"/>
      <point x="396.8" y="203.0" type="line" smooth="yes"/>
      <point x="385.0" y="127.5"/>
      <point x="336.1" y="83.6"/>
    </contour>
  </outline>
</glyph>
<glyph name="b" format="2">
  <advance width="600.0"/>
  <unicode hex="0062"/>
  <anchor x="256.0" y="0.0" name="bottom"/>
  <anchor x="372.0" y="730.0" name="top"/>
  <outline>
    <contour>
      <point x="293.5" y="-10.0" type="curve" smooth="yes"/>
      <point x="403.8" y="-10.0"/>
      <point x="487.7" y="69.5"/>
      <point x="507.7" y="197.3" type="curve" smooth="yes"/>
      <point x="532.1" y="352.0" type="line" smooth="yes"/>
      <point x="552.1" y="480.2"/>
      <point x="495.5" y="560.0"/>
      <point x="384.5" y="560.0" type="curve" smooth="yes"/>
      <point x="294.2" y="560.0"/>
      <point x="226.7" y="506.4"/>
      <point x="213.1" y="419.8" type="curve"/>
      <point x="239.8" y="445.0" type="line"/>
      <point x="215.3" y="445.0" type="line"/>
      <point x="238.8" y="573.0" type="line"/>
      <point x="264.2" y="730.0" type="line"/>
      <point x="156.2" y="730.0" type="line"/>
      <point x="40.2" y="0.0" type="line"/>
      <point x="146.7" y="0.0" type="line"/>
      <point x="163.7" y="105.0" type="line"/>
      <point x="186.8" y="105.0" type="line"/>
      <point x="167.3" y="130.2" type="line"/>
      <point x="153.7" y="42.9"/>
      <point x="202.5" y="-10.0"/>
    </contour>
    <contour>
      <point x="271.7" y="83.6" type="curve" smooth="yes"/>
      <point x="203.4" y="83.6"/>
      <point x="168.7" y="127.5"/>
      <point x="180.5" y="203.0" type="curve" smooth="yes"/>
      <point x="202.9" y="347.0" type="line" smooth="yes"/>
      <point x="215.4" y="422.2"/>
      <point x="263.6" y="466.4"/>
      <point x="331.9" y="466.4" type="curve" smooth="yes"/>
      <point x="401.9" y="466.4"/>
      <point x="435.6" y="423.6"/>
      <point x="423.1" y="347.0" type="curve" smooth="yes"/>
      <point x="400.7" y="203.0" type="line" smooth="yes"/>
      <point x="388.2" y="126.1"/>
      <point x="341.7" y="83.6"/>
    </contour>
  </outline>
</glyph>
<glyph name="c" format="2">
  <advance width="600.0"/>
  <unicode hex="0063"/>
  <anchor x="259.7" y="0.0" name="bottom"/>
  <anchor x="346.7" y="550.0" name="top"/>
  <outline>
    <contour>
      <point x="257.7" y="-10.0" type="curve" smooth="yes"/>
      <point x="390.1" y="-10.0"/>
      <point x="488.4" y="64.5"/>
      <point x="512.0" y="184.5" type="curve"/>
      <point x="404.0" y="184.5" type="line"/>
      <point x="389.2" y="121.1"/>
      <point x="341.4" y="85.0"/>
      <point x="273.1" y="85.0" type="curve" smooth="yes"/>
      <point x="199.8" y="85.0"/>
      <point x="164.1" y="127.5"/>
      <point x="175.9" y="203.0" type="curve" smooth="yes"/>
      <point x="199.0" y="347.7" type="line" smooth="yes"/>
      <point x="210.8" y="422.5"/>
      <point x="260.0" y="465.0"/>
      <point x="333.3" y="465.0" type="curve" smooth="yes"/>
      <point x="401.3" y="465.0"/>
      <point x="438.6" y="428.6"/>
      <point x="432.5" y="365.5" type="curve"/>
      <point x="540.5" y="365.5" type="line"/>
      <point x="554.8" y="485.5"/>
      <point x="481.1" y="560.0"/>
      <point x="348.7" y="560.0" type="curve" smooth="yes"/>
      <point x="211.5" y="560.0"/>
      <point x="111.3" y="478.6"/>
      <point x="90.3" y="347.0" type="curve" smooth="yes"/>
      <point x="67.9" y="203.0" type="line" smooth="yes"/>
      <point x="46.9" y="71.4"/>
      <point x="120.5" y="-10.0"/>
    </contour>
  </outline>
</glyph>
<glyph name="d" format="2">
  <advance width="600.0"/>
  <unicode hex="0064"/>
  <anchor x="256.0" y="0.0" name="bottom"/>
  <anchor x="300.0" y="275.0" name="center"/>
  <anchor x="372.0" y="730.0" name="top"/>
  <anchor x="624.0" y="550.0" name="topright"/>
  <outline>
    <contour>
      <point x="215.2" y="-10.0" type="curve" smooth="yes"/>
      <point x="306.2" y="-10.0"/>
      <point x="373.0" y="42.9"/>
      <point x="386.6" y="130.2" type="curve"/>
      <point x="359.9" y="105.0" type="line"/>
      <point x="383.0" y="105.0" type="line"/>
      <point x="366.0" y="0.0" type="line"/>
      <point x="472.5" y="0.0" type="line"/>
      <point x="588.5" y="730.0" type="line"/>
      <point x="480.5" y="730.0" type="line"/>
      <point x="455.1" y="573.0" type="line"/>
      <point x="437.4" y="445.0" type="line"/>
      <point x="412.9" y="445.0" type="line"/>
      <point x="432.4" y="419.8" type="line"/>
      <point x="446.0" y="506.4"/>
      <point x="396.5" y="560.0"/>
      <point x="306.2" y="560.0" type="curve" smooth="yes"/>
      <point x="195.2" y="560.0"/>
      <point x="112.0" y="480.2"/>
      <point x="92.0" y="352.0" type="curve" smooth="yes"/>
      <point x="67.6" y="197.3" type="line" smooth="yes"/>
      <point x="47.6" y="69.5"/>
      <point x="104.9" y="-10.0"/>
    </contour>
    <contour>
      <point x="267.8" y="83.6" type="curve" smooth="yes"/>
      <point x="197.8" y="83.6"/>
      <point x="164.1" y="126.1"/>
      <point x="176.6" y="203.0" type="curve" smooth="yes"/>
      <point x="199.0" y="347.0" type="line" smooth="yes"/>
      <point x="211.5" y="423.6"/>
      <point x="258.0" y="466.4"/>
      <point x="328.0" y="466.4" type="curve" smooth="yes"/>
      <point x="396.3" y="466.4"/>
      <point x="431.7" y="422.2"/>
      <point x="419.2" y="347.0" type="curve" smooth="yes"/>
      <point x="396.8" y="203.0" type="line" smooth="yes"/>
      <point x="385.0" y="127.5"/>
      <point x="336.1" y="83.6"/>
    </contour>
  </outline>
</glyph>
<glyph name="e" format="2">
  <advance width="600.0"/>
  <unicode hex="0065"/>
  <anchor x="256.0" y="0.0" name="bottom"/>
  <anchor x="305.0" y="0.0" name="ogonek"/>
  <anchor x="343.0" y="550.0" name="top"/>
  <outline>
    <contour>
      <point x="254.3" y="-10.0" type="curve" smooth="yes"/>
      <point x="371.2" y="-10.0"/>
      <point x="466.2" y="49.8"/>
      <point x="496.1" y="143.0" type="curve"/>
      <point x="389.0" y="143.0" type="line"/>
      <point x="372.2" y="100.3"/>
      <point x="331.4" y="77.7"/>
      <point x="269.0" y="77.7" type="curve" smooth="yes"/>
      <point x="191.5" y="77.7"/>
      <point x="159.3" y="121.4"/>
      <point x="172.4" y="203.0" type="curve" smooth="yes"/>
      <point x="179.5" y="249.1" type="line"/>
      <point x="515.8" y="249.1" type="line"/>
      <point x="531.1" y="347.0" type="line" smooth="yes"/>
      <point x="552.1" y="475.5"/>
      <point x="480.1" y="560.0"/>
      <point x="345.3" y="560.0" type="curve" smooth="yes"/>
      <point x="210.2" y="560.0"/>
      <point x="111.3" y="475.5"/>
      <point x="90.3" y="347.0" type="curve" smooth="yes"/>
      <point x="67.9" y="203.0" type="line" smooth="yes"/>
      <point x="47.6" y="74.5"/>
      <point x="119.2" y="-10.0"/>
    </contour>
    <contour>
      <point x="421.9" y="314.2" type="line"/>
      <point x="431.1" y="322.8" type="line"/>
      <point x="191.1" y="322.2" type="line"/>
      <point x="194.8" y="347.0" type="line" smooth="yes"/>
      <point x="207.9" y="428.3"/>
      <point x="254.3" y="473.6"/>
      <point x="331.5" y="473.6" type="curve" smooth="yes"/>
      <point x="408.4" y="473.6"/>
      <point x="439.7" y="428.9"/>
      <point x="426.6" y="347.6" type="curve" smooth="yes"/>
    </contour>
  </outline>
</glyph>
<glyph name="f" format="2">
  <advance width="600.0"/>
  <unicode hex="0066"/>
  <anchor x="256.0" y="0.0" name="bottom"/>
  <anchor x="372.0" y="730.0" name="top"/>
  <outline>
    <contour>
      <point x="0.0" y="-180.0" type="line"/>
      <point x="65.5" y="-180.0" type="line" smooth="yes"/>
      <point x="183.4" y="-180.0"/>
      <point x="265.2" y="-115.1"/>
      <point x="282.1" y="-9.8" type="curve" smooth="yes"/>
      <point x="348.0" y="394.1" type="line"/>
      <point x="556.3" y="394.1" type="line"/>
      <point x="572.0" y="492.0" type="line"/>
      <point x="363.7" y="492.0" type="line"/>
      <point x="375.4" y="565.5" type="line" smooth="yes"/>
      <point x="382.2" y="610.7"/>
      <point x="409.5" y="633.6"/>
      <point x="456.8" y="633.6" type="curve" smooth="yes"/>
      <point x="584.6" y="633.6" type="line"/>
      <point x="600.0" y="730.0" type="line"/>
      <point x="471.4" y="730.0" type="line" smooth="yes"/>
      <point x="361.6" y="730.0"/>
      <point x="283.7" y="666.9"/>
      <point x="267.7" y="567.0" type="curve" smooth="yes"/>
      <point x="255.7" y="492.0" type="line"/>
      <point x="90.4" y="492.0" type="line"/>
      <point x="74.7" y="394.1" type="line"/>
      <point x="240.0" y="394.1" type="line"/>
      <point x="174.4" y="-8.3" type="line" smooth="yes"/>
      <point x="165.7" y="-60.4"/>
      <point x="134.6" y="-86.6"/>
      <point x="79.5" y="-86.6" type="curve" smooth="yes"/>
      <point x="14.8" y="-86.6" type="line"/>
    </contour>
  </outline>
</glyph>
<glyph name="g" format="2">
  <advance width="600.0"/>
  <unicode hex="0067"/>
  <anchor x="214.0" y="-270.0" name="bottom"/>
  <anchor x="340.0" y="550.0" name="top"/>
  <outline>
    <contour>
      <point x="84.6" y="-180.0" type="line"/>
      <point x="254.4" y="-180.0" type="line" smooth="yes"/>
      <point x="372.3" y="-180.0"/>
      <point x="454.1" y="-115.1"/>
      <point x="471.0" y="-9.8" type="curve" smooth="yes"/>
      <point x="559.5" y="550.0" type="line"/>
      <point x="452.2" y="550.0" type="line"/>
      <point x="436.7" y="445.0" type="line"/>
      <point x="414.3" y="445.0" type="line"/>
      <point x="433.8" y="424.0" type="line"/>
      <point x="447.4" y="508.5"/>
      <point x="398.6" y="560.0"/>
      <point x="309.0" y="560.0" type="curve" smooth="yes"/>
      <point x="196.6" y="560.0"/>
      <point x="112.7" y="479.5"/>
      <point x="92.7" y="352.7" type="curve" smooth="yes"/>
      <point x="75.3" y="241.5" type="line" smooth="yes"/>
      <point x="55.0" y="113.7"/>
      <point x="113.3" y="33.5"/>
      <point x="225.7" y="33.5" type="curve" smooth="yes"/>
      <point x="315.3" y="33.5"/>
      <point x="379.7" y="85.0"/>
      <point x="393.6" y="169.5" type="curve"/>
      <point x="368.0" y="148.5" type="line"/>
      <point x="391.1" y="148.5" type="line"/>
      <point x="372.8" y="47.0" type="line"/>
      <point x="364.2" y="-8.3" type="line" smooth="yes"/>
      <point x="355.5" y="-60.4"/>
      <point x="324.4" y="-86.6"/>
      <point x="268.4" y="-86.6" type="curve" smooth="yes"/>
      <point x="99.4" y="-86.6" type="line"/>
    </contour>
    <contour>
      <point x="275.2" y="127.1" type="curve" smooth="yes"/>
      <point x="205.2" y="127.1"/>
      <point x="171.5" y="169.6"/>
      <point x="184.3" y="246.5" type="curve" smooth="yes"/>
      <point x="199.7" y="347.0" type="line" smooth="yes"/>
      <point x="212.2" y="423.6"/>
      <point x="258.7" y="466.4"/>
      <point x="328.7" y="466.4" type="curve" smooth="yes"/>
      <point x="397.0" y="466.4"/>
      <point x="432.4" y="422.2"/>
      <point x="419.9" y="347.0" type="curve" smooth="yes"/>
      <point x="404.5" y="246.5" type="line" smooth="yes"/>
      <point x="392.4" y="171.0"/>
      <point x="343.5" y="127.1"/>
    </contour>
  </outline>
</glyph>
<glyph name="h" format="2">
  <advance width="600.0"/>
  <unicode hex="0068"/>
  <anchor x="256.0" y="0.0" name="bottom"/>
  <anchor x="314.0" y="365.0" name="center"/>
  <anchor x="372.0" y="730.0" name="top"/>
  <outline>
    <contour>
      <point x="40.2" y="0.0" type="line"/>
      <point x="148.2" y="0.0" type="line"/>
      <point x="202.9" y="347.0" type="line" smooth="yes"/>
      <point x="215.4" y="423.6"/>
      <point x="264.0" y="467.8"/>
      <point x="332.4" y="467.8" type="curve" smooth="yes"/>
      <point x="399.0" y="467.8"/>
      <point x="433.0" y="425.7"/>
      <point x="421.9" y="354.0" type="curve" smooth="yes"/>
      <point x="365.8" y="0.0" type="line"/>
      <point x="473.8" y="0.0" type="line"/>
      <point x="531.9" y="365.5" type="line" smooth="yes"/>
      <point x="550.5" y="484.6"/>
      <point x="492.1" y="560.0"/>
      <point x="383.0" y="560.0" type="curve" smooth="yes"/>
      <point x="291.3" y="560.0"/>
      <point x="227.4" y="507.9"/>
      <point x="213.1" y="419.8" type="curve"/>
      <point x="243.2" y="445.0" type="line"/>
      <point x="216.7" y="445.0" type="line"/>
      <point x="235.2" y="550.0" type="line"/>
      <point x="264.2" y="730.0" type="line"/>
      <point x="156.2" y="730.0" type="line"/>
    </contour>
  </outline>
</glyph>
<glyph name="k" format="2">
  <advance width="600.0"/>
  <unicode hex="006B"/>
  <anchor x="256.0" y="0.0" name="bottom"/>
  <anchor x="372.0" y="730.0" name="top"/>
  <outline>
    <contour>
      <point x="43.2" y="0.0" type="line"/>
      <point x="151.2" y="0.0" type="line"/>
      <point x="188.7" y="236.3" type="line"/>
      <point x="281.4" y="236.3" type="line"/>
      <point x="391.3" y="0.0" type="line"/>
      <point x="512.3" y="0.0" type="line"/>
      <point x="378.7" y="281.7" type="line"/>
      <point x="596.3" y="550.0" type="line"/>
      <point x="471.8" y="550.0" type="line"/>
      <point x="290.2" y="328.7" type="line"/>
      <point x="203.1" y="328.7" type="line"/>
      <point x="267.2" y="730.0" type="line"/>
      <point x="159.2" y="730.0" type="line"/>
    </contour>
  </outline>
</glyph>
<glyph name="l" format="2">
  <advance width="600.0"/>
  <unicode hex="006C"/>
  <anchor x="252.0" y="0.0" name="bottom"/>
  <anchor x="314.0" y="365.0" name="center"/>
  <anchor x="321.0" y="730.0" name="top"/>
  <anchor x="652.0" y="730.0" name="topright"/>
  <outline>
    <contour>
      <point x="328.5" y="0.0" type="curve" smooth="yes"/>
      <point x="510.5" y="0.0" type="line"/>
      <point x="525.9" y="97.9" type="line"/>
      <point x="348.4" y="97.9" type="line" smooth="yes"/>
      <point x="307.5" y="97.9"/>
      <point x="286.1" y="124.7"/>
      <point x="292.8" y="167.0" type="curve" smooth="yes"/>
      <point x="382.0" y="730.0" type="line"/>
      <point x="107.5" y="730.0" type="line"/>
      <point x="91.8" y="632.1" type="line"/>
      <point x="258.3" y="632.1" type="line"/>
      <point x="184.8" y="167.0" type="line" smooth="yes"/>
      <point x="168.9" y="66.1"/>
      <point x="225.5" y="0.0"/>
    </contour>
  </outline>
</glyph>
<glyph name="m" format="2">
  <advance width="600.0"/>
  <unicode hex="006D"/>
  <anchor x="256.0" y="0.0" name="bottom"/>
  <anchor x="344.0" y="550.0" name="top"/>
  <outline>
    <contour>
      <point x="14.8" y="0.0" type="line"/>
      <point x="111.6" y="0.0" type="line"/>
      <point x="176.7" y="414.9" type="line" smooth="yes"/>
      <point x="183.1" y="455.7"/>
      <point x="204.3" y="479.0"/>
      <point x="237.7" y="479.0" type="curve" smooth="yes"/>
      <point x="271.1" y="479.0"/>
      <point x="287.0" y="455.7"/>
      <point x="280.6" y="414.2" type="curve" smooth="yes"/>
      <point x="215.5" y="0.0" type="line"/>
      <point x="296.8" y="0.0" type="line"/>
      <point x="361.9" y="414.9" type="line" smooth="yes"/>
      <point x="368.3" y="455.7"/>
      <point x="391.6" y="479.0"/>
      <point x="424.3" y="479.0" type="curve" smooth="yes"/>
      <point x="457.7" y="479.0"/>
      <point x="472.2" y="455.0"/>
      <point x="465.8" y="414.2" type="curve" smooth="yes"/>
      <point x="400.7" y="0.0" type="line"/>
      <point x="497.5" y="0.0" type="line"/>
      <point x="563.5" y="418.6" type="line" smooth="yes"/>
      <point x="576.5" y="502.7"/>
      <point x="543.4" y="560.0"/>
      <point x="475.6" y="560.0" type="curve" smooth="yes"/>
      <point x="419.6" y="560.0"/>
      <point x="375.7" y="519.8"/>
      <point x="366.4" y="458.8" type="curve"/>
      <point x="385.1" y="479.8" type="line"/>
      <point x="347.3" y="479.8" type="line"/>
      <point x="364.5" y="433.0" type="line"/>
      <point x="376.9" y="512.1"/>
      <point x="348.0" y="560.0"/>
      <point x="288.5" y="560.0" type="curve" smooth="yes"/>
      <point x="233.4" y="560.0"/>
      <point x="191.8" y="519.8"/>
      <point x="182.5" y="458.8" type="curve"/>
      <point x="200.7" y="479.8" type="line"/>
      <point x="180.9" y="479.8" type="line"/>
      <point x="192.5" y="550.0" type="line"/>
      <point x="101.8" y="550.0" type="line"/>
    </contour>
  </outline>
</glyph>
<glyph name="o" format="2">
  <advance width="600.0"/>
  <unicode hex="006F"/>
  <anchor x="256.0" y="0.0" name="bottom"/>
  <anchor x="300.0" y="275.0" name="center"/>
  <anchor x="371.4" y="550.0" name="horn"/>
  <anchor x="305.0" y="0.0" name="ogonek"/>
  <anchor x="343.0" y="550.0" name="top"/>
  <anchor x="624.0" y="550.0" name="topright"/>
  <outline>
    <contour>
      <point x="254.0" y="-10.0" type="curve" smooth="yes"/>
      <point x="389.8" y="-10.0"/>
      <point x="487.7" y="71.7"/>
      <point x="508.7" y="203.0" type="curve" smooth="yes"/>
      <point x="531.8" y="347.7" type="line" smooth="yes"/>
      <point x="552.1" y="478.3"/>
      <point x="480.8" y="560.0"/>
      <point x="345.0" y="560.0" type="curve" smooth="yes"/>
      <point x="209.2" y="560.0"/>
      <point x="111.3" y="478.3"/>
      <point x="90.3" y="347.0" type="curve" smooth="yes"/>
      <point x="67.9" y="203.0" type="line" smooth="yes"/>
      <point x="46.9" y="71.7"/>
      <point x="118.2" y="-10.0"/>
    </contour>
    <contour>
      <point x="269.4" y="85.0" type="curve" smooth="yes"/>
      <point x="197.4" y="85.0"/>
      <point x="163.4" y="126.1"/>
      <point x="175.9" y="203.0" type="curve" smooth="yes"/>
      <point x="198.3" y="347.0" type="line" smooth="yes"/>
      <point x="210.8" y="423.9"/>
      <point x="257.6" y="465.0"/>
      <point x="329.6" y="465.0" type="curve" smooth="yes"/>
      <point x="401.6" y="465.0"/>
      <point x="435.6" y="423.9"/>
      <point x="423.1" y="347.0" type="curve" smooth="yes"/>
      <point x="400.7" y="203.0" type="line" smooth="yes"/>
      <point x="388.2" y="126.1"/>
      <point x="341.4" y="85.0"/>
    </contour>
  </outline>
</glyph>
<glyph name="p" format="2">
  <advance width="600.0"/>
  <unicode hex="0070"/>
  <anchor x="256.0" y="0.0" name="bottom"/>
  <anchor x="344.0" y="550.0" name="top"/>
  <outline>
    <contour>
      <point x="11.2" y="-180.0" type="line"/>
      <point x="119.2" y="-180.0" type="line"/>
      <point x="144.6" y="-23.0" type="line"/>
      <point x="162.3" y="105.0" type="line"/>
      <point x="186.8" y="105.0" type="line"/>
      <point x="167.3" y="130.2" type="line"/>
      <point x="153.7" y="43.6"/>
      <point x="203.9" y="-10.0"/>
      <point x="294.2" y="-10.0" type="curve" smooth="yes"/>
      <point x="405.2" y="-10.0"/>
      <point x="487.7" y="69.8"/>
      <point x="507.7" y="198.0" type="curve" smooth="yes"/>
      <point x="532.1" y="352.7" type="line" smooth="yes"/>
      <point x="552.1" y="480.2"/>
      <point x="495.5" y="560.0"/>
      <point x="385.2" y="560.0" type="curve" smooth="yes"/>
      <point x="294.2" y="560.0"/>
      <point x="226.7" y="507.1"/>
      <point x="213.1" y="419.8" type="curve"/>
      <point x="239.8" y="445.0" type="line"/>
      <point x="216.7" y="445.0" type="line"/>
      <point x="233.7" y="550.0" type="line"/>
      <point x="127.2" y="550.0" type="line"/>
    </contour>
    <contour>
      <point x="272.4" y="83.6" type="curve" smooth="yes"/>
      <point x="204.1" y="83.6"/>
      <point x="168.7" y="127.8"/>
      <point x="180.5" y="203.0" type="curve" smooth="yes"/>
      <point x="202.9" y="347.0" type="line" smooth="yes"/>
      <point x="215.4" y="422.2"/>
      <point x="264.3" y="466.4"/>
      <point x="332.6" y="466.4" type="curve" smooth="yes"/>
      <point x="402.6" y="466.4"/>
      <point x="435.6" y="423.9"/>
      <point x="423.1" y="347.0" type="curve" smooth="yes"/>
      <point x="400.7" y="203.0" type="line" smooth="yes"/>
      <point x="388.2" y="126.1"/>
      <point x="342.4" y="83.6"/>
    </contour>
  </outline>
</glyph>
<glyph name="q" format="2">
  <advance width="600.0"/>
  <unicode hex="0071"/>
  <anchor x="256.0" y="0.0" name="bottom"/>
  <anchor x="344.0" y="550.0" name="top"/>
  <outline>
    <contour>
      <point x="334.8" y="-180.0" type="line"/>
      <point x="442.8" y="-180.0" type="line"/>
      <point x="558.8" y="550.0" type="line"/>
      <point x="452.3" y="550.0" type="line"/>
      <point x="435.3" y="445.0" type="line"/>
      <point x="412.2" y="445.0" type="line"/>
      <point x="431.1" y="419.8" type="line"/>
      <point x="444.7" y="507.1"/>
      <point x="396.5" y="560.0"/>
      <point x="305.5" y="560.0" type="curve" smooth="yes"/>
      <point x="195.2" y="560.0"/>
      <point x="111.3" y="480.2"/>
      <point x="91.3" y="352.7" type="curve" smooth="yes"/>
      <point x="66.9" y="198.0" type="line" smooth="yes"/>
      <point x="46.9" y="69.8"/>
      <point x="103.5" y="-10.0"/>
      <point x="214.5" y="-10.0" type="curve" smooth="yes"/>
      <point x="304.8" y="-10.0"/>
      <point x="371.7" y="43.6"/>
      <point x="385.3" y="130.2" type="curve"/>
      <point x="359.2" y="105.0" type="line"/>
      <point x="383.7" y="105.0" type="line"/>
      <point x="360.2" y="-23.0" type="line"/>
    </contour>
    <contour>
      <point x="267.1" y="83.6" type="curve" smooth="yes"/>
      <point x="197.1" y="83.6"/>
      <point x="163.4" y="126.1"/>
      <point x="175.9" y="203.0" type="curve" smooth="yes"/>
      <point x="198.3" y="347.0" type="line" smooth="yes"/>
      <point x="210.8" y="423.9"/>
      <point x="257.3" y="466.4"/>
      <point x="327.3" y="466.4" type="curve" smooth="yes"/>
      <point x="395.6" y="466.4"/>
      <point x="431.0" y="422.2"/>
      <point x="418.5" y="347.0" type="curve" smooth="yes"/>
      <point x="396.1" y="203.0" type="line" smooth="yes"/>
      <point x="384.3" y="127.8"/>
      <point x="335.4" y="83.6"/>
    </contour>
  </outline>
</glyph>
<glyph name="r" format="2">
  <advance width="600.0"/>
  <unicode hex="0072"/>
  <anchor x="91.0" y="0.0" name="bottom"/>
  <anchor x="363.0" y="550.0" name="top"/>
  <outline>
    <contour>
      <point x="58.3" y="0.0" type="line"/>
      <point x="166.3" y="0.0" type="line"/>
      <point x="221.0" y="347.0" type="line" smooth="yes"/>
      <point x="233.5" y="424.5"/>
      <point x="282.4" y="469.3"/>
      <point x="352.7" y="469.3" type="curve" smooth="yes"/>
      <point x="423.1" y="469.3"/>
      <point x="457.0" y="425.2"/>
      <point x="444.5" y="347.0" type="curve" smooth="yes"/>
      <point x="439.9" y="319.0" type="line"/>
      <point x="550.9" y="319.0" type="line"/>
      <point x="557.2" y="355.6" type="line" smooth="yes"/>
      <point x="576.8" y="482.3"/>
      <point x="516.7" y="560.0"/>
      <point x="399.2" y="560.0" type="curve" smooth="yes"/>
      <point x="297.0" y="560.0"/>
      <point x="233.8" y="499.0"/>
      <point x="214.8" y="380.3" type="curve"/>
      <point x="258.0" y="445.0" type="line"/>
      <point x="231.9" y="445.0" type="line"/>
      <point x="248.9" y="550.0" type="line"/>
      <point x="145.3" y="550.0" type="line"/>
    </contour>
  </outline>
</glyph>
<glyph name="s" format="2">
  <advance width="600.0"/>
  <unicode hex="0073"/>
  <anchor x="256.4" y="0.0" name="bottom"/>
  <anchor x="344.3" y="550.0" name="top"/>
  <outline>
    <contour>
      <point x="231.7" y="-10.0" type="curve" smooth="yes"/>
      <point x="274.3" y="-10.0" type="line" smooth="yes"/>
      <point x="410.3" y="-10.0"/>
      <point x="489.5" y="52.7"/>
      <point x="506.8" y="157.7" type="curve" smooth="yes"/>
      <point x="522.1" y="255.8"/>
      <point x="471.9" y="300.5"/>
      <point x="350.6" y="319.2" type="curve" smooth="yes"/>
      <point x="279.8" y="330.3" type="line" smooth="yes"/>
      <point x="227.1" y="338.4"/>
      <point x="207.9" y="358.5"/>
      <point x="214.3" y="399.3" type="curve" smooth="yes"/>
      <point x="221.4" y="444.2"/>
      <point x="252.4" y="468.9"/>
      <point x="315.0" y="468.9" type="curve" smooth="yes"/>
      <point x="353.0" y="468.9" type="line" smooth="yes"/>
      <point x="403.7" y="468.9"/>
      <point x="431.5" y="446.7"/>
      <point x="432.4" y="414.1" type="curve"/>
      <point x="540.4" y="414.1" type="line"/>
      <point x="545.2" y="502.3"/>
      <point x="481.5" y="560.0"/>
      <point x="367.8" y="560.0" type="curve" smooth="yes"/>
      <point x="329.8" y="560.0" type="line" smooth="yes"/>
      <point x="200.0" y="560.0"/>
      <point x="123.4" y="500.4"/>
      <point x="107.8" y="399.7" type="curve" smooth="yes"/>
      <point x="92.5" y="304.0"/>
      <point x="141.2" y="260.2"/>
      <point x="254.9" y="243.2" type="curve" smooth="yes"/>
      <point x="324.2" y="232.4" type="line" smooth="yes"/>
      <point x="381.1" y="223.3"/>
      <point x="406.0" y="197.7"/>
      <point x="399.6" y="154.9" type="curve" smooth="yes"/>
      <point x="392.2" y="110.5"/>
      <point x="355.3" y="81.1"/>
      <point x="289.1" y="81.1" type="curve" smooth="yes"/>
      <point x="246.5" y="81.1" type="line" smooth="yes"/>
      <point x="191.4" y="81.1"/>
      <point x="160.6" y="105.6"/>
      <point x="160.7" y="142.5" type="curve"/>
      <point x="52.7" y="142.5" type="line"/>
      <point x="45.1" y="50.3"/>
      <point x="111.8" y="-10.0"/>
    </contour>
  </outline>
</glyph>
<glyph name="t" format="2">
  <advance width="600.0"/>
  <unicode hex="0074"/>
  <anchor x="316.0" y="0.0" name="bottom"/>
  <anchor x="300.0" y="275.0" name="center"/>
  <anchor x="375.0" y="700.0" name="top"/>
  <anchor x="624.0" y="550.0" name="topright"/>
  <outline>
    <contour>
      <point x="316.0" y="0.0" type="curve" smooth="yes"/>
      <point x="470.5" y="0.0" type="line"/>
      <point x="485.9" y="97.9" type="line"/>
      <point x="335.9" y="97.9" type="line" smooth="yes"/>
      <point x="298.5" y="97.9"/>
      <point x="283.4" y="116.7"/>
      <point x="289.8" y="155.5" type="curve" smooth="yes"/>
      <point x="336.6" y="452.1" type="line"/>
      <point x="552.1" y="452.1" type="line"/>
      <point x="567.5" y="550.0" type="line"/>
      <point x="352.0" y="550.0" type="line"/>
      <point x="376.0" y="700.0" type="line"/>
      <point x="268.0" y="700.0" type="line"/>
      <point x="244.0" y="550.0" type="line"/>
      <point x="92.0" y="550.0" type="line"/>
      <point x="76.6" y="452.1" type="line"/>
      <point x="228.6" y="452.1" type="line"/>
      <point x="181.8" y="155.5" type="line" smooth="yes"/>
      <point x="165.9" y="57.5"/>
      <point x="215.9" y="0.0"/>
    </contour>
  </outline>
</glyph>
<glyph name="u" format="2">
  <advance width="600.0"/>
  <unicode hex="0075"/>
  <anchor x="256.0" y="0.0" name="bottom"/>
  <anchor x="460.0" y="550.0" name="horn"/>
  <anchor x="305.0" y="0.0" name="ogonek"/>
  <anchor x="343.0" y="550.0" name="top"/>
  <anchor x="624.0" y="550.0" name="topright"/>
  <outline>
    <contour>
      <point x="253.3" y="-10.0" type="curve" smooth="yes"/>
      <point x="386.0" y="-10.0"/>
      <point x="485.8" y="71.9"/>
      <point x="506.4" y="204.2" type="curve" smooth="yes"/>
      <point x="560.8" y="550.0" type="line"/>
      <point x="452.8" y="550.0" type="line"/>
      <point x="398.4" y="204.5" type="line" smooth="yes"/>
      <point x="386.3" y="127.8"/>
      <point x="337.7" y="84.3"/>
      <point x="268.7" y="84.3" type="curve" smooth="yes"/>
      <point x="200.1" y="84.3"/>
      <point x="166.7" y="127.8"/>
      <point x="178.8" y="204.5" type="curve" smooth="yes"/>
      <point x="233.2" y="550.0" type="line"/>
      <point x="125.2" y="550.0" type="line"/>
      <point x="70.8" y="204.2" type="line" smooth="yes"/>
      <point x="50.2" y="72.2"/>
      <point x="120.0" y="-10.0"/>
    </contour>
  </outline>
</glyph>
<glyph name="v" format="2">
  <advance width="600.0"/>
  <unicode hex="0076"/>
  <anchor x="256.0" y="0.0" name="bottom"/>
  <anchor x="344.0" y="550.0" name="top"/>
  <outline>
    <contour>
      <point x="185.4" y="0.0" type="line"/>
      <point x="327.2" y="0.0" type="line"/>
      <point x="592.9" y="550.0" type="line"/>
      <point x="480.3" y="550.0" type="line"/>
      <point x="317.9" y="198.0" type="line" smooth="yes"/>
      <point x="298.4" y="156.4"/>
      <point x="278.6" y="109.9"/>
      <point x="269.3" y="86.4" type="curve"/>
      <point x="266.6" y="109.9"/>
      <point x="261.6" y="156.4"/>
      <point x="255.2" y="198.3" type="curve" smooth="yes"/>
      <point x="201.0" y="550.0" type="line"/>
      <point x="93.1" y="550.0" type="line"/>
    </contour>
  </outline>
</glyph>
<glyph name="w" format="2">
  <advance width="600.0"/>
  <unicode hex="0077"/>
  <anchor x="256.0" y="0.0" name="bottom"/>
  <anchor x="343.0" y="550.0" name="top"/>
  <outline>
    <contour>
      <point x="69.1" y="0.0" type="line"/>
      <point x="183.7" y="0.0" type="line"/>
      <point x="295.8" y="359.0" type="line" smooth="yes"/>
      <point x="307.5" y="396.0"/>
      <point x="321.4" y="443.4"/>
      <point x="328.9" y="468.6" type="curve"/>
      <point x="328.3" y="443.4"/>
      <point x="328.3" y="396.0"/>
      <point x="328.0" y="359.0" type="curve" smooth="yes"/>
      <point x="325.5" y="0.0" type="line"/>
      <point x="439.8" y="0.0" type="line"/>
      <point x="615.5" y="550.0" type="line"/>
      <point x="527.2" y="550.0" type="line"/>
      <point x="417.2" y="187.0" type="line" smooth="yes"/>
      <point x="407.0" y="153.8"/>
      <point x="393.5" y="107.0"/>
      <point x="386.2" y="80.5" type="curve"/>
      <point x="387.2" y="106.7"/>
      <point x="387.4" y="153.2"/>
      <point x="387.4" y="187.0" type="curve" smooth="yes"/>
      <point x="389.0" y="550.0" type="line"/>
      <point x="295.6" y="550.0" type="line"/>
      <point x="180.9" y="187.0" type="line" smooth="yes"/>
      <point x="170.4" y="153.2"/>
      <point x="156.9" y="107.0"/>
      <point x="149.3" y="80.8" type="curve"/>
      <point x="150.6" y="107.0"/>
      <point x="151.8" y="153.5"/>
      <point x="152.8" y="187.0" type="curve" smooth="yes"/>
      <point x="159.8" y="550.0" type="line"/>
      <point x="70.5" y="550.0" type="line"/>
    </contour>
  </outline>
</glyph>
<glyph name="x" format="2">
  <advance width="600.0"/>
  <unicode hex="0078"/>
  <anchor x="256.0" y="0.0" name="bottom"/>
  <anchor x="344.0" y="550.0" name="top"/>
  <outline>
    <contour>
      <point x="2.3000000000000007" y="0.0" type="line"/>
      <point x="128.5" y="0.0" type="line"/>
      <point x="258.5" y="165.0" type="line" smooth="yes"/>
      <point x="271.1" y="180.6"/>
      <point x="283.8" y="203.5"/>
      <point x="291.5" y="215.8" type="curve"/>
      <point x="295.2" y="203.5"/>
      <point x="303.5" y="180.9"/>
      <point x="310.8" y="165.0" type="curve" smooth="yes"/>
      <point x="388.0" y="0.0" type="line"/>
      <point x="509.7" y="0.0" type="line"/>
      <point x="365.7" y="279.9" type="line"/>
      <point x="585.1" y="550.0" type="line"/>
      <point x="458.9" y="550.0" type="line"/>
      <point x="341.7" y="398.0" type="line" smooth="yes"/>
      <point x="329.8" y="382.1"/>
      <point x="317.5" y="361.6"/>
      <point x="311.2" y="350.0" type="curve"/>
      <point x="308.2" y="361.6"/>
      <point x="300.5" y="382.1"/>
      <point x="293.2" y="398.0" type="curve" smooth="yes"/>
      <point x="223.3" y="550.0" type="line"/>
      <point x="101.6" y="550.0" type="line"/>
      <point x="237.3" y="286.6" type="line"/>
    </contour>
  </outline>
</glyph>
<glyph name="y" format="2">
  <advance width="600.0"/>
  <unicode hex="0079"/>
  <anchor x="256.0" y="0.0" name="bottom"/>
  <anchor x="343.0" y="550.0" name="top"/>
  <outline>
    <contour>
      <point x="83.1" y="-180.0" type="line"/>
      <point x="252.9" y="-180.0" type="line" smooth="yes"/>
      <point x="370.8" y="-180.0"/>
      <point x="453.3" y="-115.1"/>
      <point x="469.5" y="-9.8" type="curve" smooth="yes"/>
      <point x="558.1" y="550.0" type="line"/>
      <point x="450.1" y="550.0" type="line"/>
      <point x="403.4" y="253.0" type="line" smooth="yes"/>
      <point x="391.6" y="176.4"/>
      <point x="342.3" y="132.2"/>
      <point x="273.9" y="132.2" type="curve" smooth="yes"/>
      <point x="207.3" y="132.2"/>
      <point x="172.6" y="174.3"/>
      <point x="184.4" y="246.0" type="curve" smooth="yes"/>
      <point x="232.5" y="550.0" type="line"/>
      <point x="124.5" y="550.0" type="line"/>
      <point x="74.4" y="234.5" type="line" smooth="yes"/>
      <point x="55.1" y="115.4"/>
      <point x="114.2" y="40.0"/>
      <point x="223.3" y="40.0" type="curve" smooth="yes"/>
      <point x="315.0" y="40.0"/>
      <point x="378.9" y="92.1"/>
      <point x="393.2" y="180.2" type="curve"/>
      <point x="363.1" y="155.0" type="line"/>
      <point x="389.6" y="155.0" type="line"/>
      <point x="372.0" y="50.5" type="line"/>
      <point x="362.7" y="-8.3" type="line" smooth="yes"/>
      <point x="355.0" y="-61.1"/>
      <point x="322.9" y="-86.6"/>
      <point x="266.9" y="-86.6" type="curve" smooth="yes"/>
      <point x="97.9" y="-86.6" type="line"/>
    </contour>
  </outline>
</glyph>
<glyph name="z" format="2">
  <advance width="600.0"/>
  <unicode hex="007A"/>
  <anchor x="256.0" y="0.0" name="bottom"/>
  <anchor x="300.0" y="275.0" name="center"/>
  <anchor x="343.0" y="550.0" name="top"/>
  <outline>
    <contour>
      <point x="40.0" y="0.0" type="line"/>
      <point x="472.0" y="0.0" type="line"/>
      <point x="487.4" y="96.4" type="line"/>
      <point x="179.0" y="96.4" type="line"/>
      <point x="532.2" y="448.0" type="line"/>
      <point x="548.0" y="550.0" type="line"/>
      <point x="135.6" y="550.0" type="line"/>
      <point x="120.5" y="453.6" type="line"/>
      <point x="405.1" y="453.6" type="line"/>
      <point x="56.1" y="102.0" type="line"/>
    </contour>
  </outline>
</glyph>
<glyph name="braceleft" format="2">
  <advance width="600.0"/>
  <unicode hex="007B"/>
  <outline>
    <contour>
      <point x="399.7" y="-110.3" type="curve" smooth="yes"/>
      <point x="456.7" y="-110.3" type="line"/>
      <point x="472.0" y="-12.3" type="line"/>
      <point x="424.0" y="-12.3" type="line" smooth="yes"/>
      <point x="369.1" y="-12.3"/>
      <point x="341.2" y="15.2"/>
      <point x="352.0" y="65.9" type="curve" smooth="yes"/>
      <point x="387.4" y="225.7" type="line" smooth="yes"/>
      <point x="405.1" y="308.4"/>
      <point x="359.5" y="363.3"/>
      <point x="271.3" y="363.3" type="curve"/>
      <point x="271.0" y="357.7" type="line"/>
      <point x="359.9" y="357.7"/>
      <point x="421.2" y="410.9"/>
      <point x="429.6" y="493.7" type="curve" smooth="yes"/>
      <point x="445.0" y="653.8" type="line" smooth="yes"/>
      <point x="450.4" y="706.6"/>
      <point x="486.5" y="732.0"/>
      <point x="542.0" y="732.0" type="curve" smooth="yes"/>
      <point x="590.0" y="732.0" type="line"/>
      <point x="605.0" y="830.0" type="line"/>
      <point x="548.0" y="830.0" type="line" smooth="yes"/>
      <point x="432.4" y="830.0"/>
      <point x="348.6" y="766.3"/>
      <point x="337.9" y="659.8" type="curve" smooth="yes"/>
      <point x="322.5" y="499.7" type="line" smooth="yes"/>
      <point x="316.4" y="437.4"/>
      <point x="290.5" y="408.7"/>
      <point x="217.0" y="408.7" type="curve" smooth="yes"/>
      <point x="102.5" y="408.7" type="line"/>
      <point x="87.5" y="310.7" type="line"/>
      <point x="202.0" y="310.7" type="line" smooth="yes"/>
      <point x="274.8" y="310.7"/>
      <point x="291.7" y="282.0"/>
      <point x="278.5" y="219.7" type="curve" smooth="yes"/>
      <point x="243.4" y="61.4" type="line" smooth="yes"/>
      <point x="219.5" y="-45.7"/>
      <point x="284.4" y="-110.3"/>
    </contour>
  </outline>
</glyph>
<glyph name="braceright" format="2">
  <advance width="600.0"/>
  <unicode hex="007D"/>
  <outline>
    <contour>
      <point x="20.7" y="-110.3" type="line"/>
      <point x="77.7" y="-110.3" type="line" smooth="yes"/>
      <point x="193.0" y="-110.3"/>
      <point x="277.7" y="-45.7"/>
      <point x="288.4" y="61.4" type="curve" smooth="yes"/>
      <point x="303.5" y="219.7" type="line" smooth="yes"/>
      <point x="309.3" y="282.0"/>
      <point x="336.2" y="310.7"/>
      <point x="409.0" y="310.7" type="curve" smooth="yes"/>
      <point x="523.5" y="310.7" type="line"/>
      <point x="538.5" y="408.7" type="line"/>
      <point x="424.0" y="408.7" type="line" smooth="yes"/>
      <point x="350.5" y="408.7"/>
      <point x="334.0" y="437.4"/>
      <point x="347.5" y="499.7" type="curve" smooth="yes"/>
      <point x="382.9" y="659.8" type="line" smooth="yes"/>
      <point x="406.2" y="766.3"/>
      <point x="341.6" y="830.0"/>
      <point x="226.0" y="830.0" type="curve" smooth="yes"/>
      <point x="169.0" y="830.0" type="line"/>
      <point x="154.0" y="732.0" type="line"/>
      <point x="202.0" y="732.0" type="line" smooth="yes"/>
      <point x="257.5" y="732.0"/>
      <point x="285.4" y="706.6"/>
      <point x="274.0" y="653.8" type="curve" smooth="yes"/>
      <point x="238.6" y="493.7" type="line" smooth="yes"/>
      <point x="220.2" y="410.9"/>
      <point x="266.1" y="357.7"/>
      <point x="355.0" y="357.7" type="curve"/>
      <point x="355.3" y="363.3" type="line"/>
      <point x="267.1" y="363.3"/>
      <point x="204.1" y="308.4"/>
      <point x="196.4" y="225.7" type="curve" smooth="yes"/>
      <point x="181.0" y="65.9" type="line" smooth="yes"/>
      <point x="175.6" y="15.2"/>
      <point x="138.9" y="-12.3"/>
      <point x="84.0" y="-12.3" type="curve" smooth="yes"/>
      <point x="36.0" y="-12.3" type="line"/>
    </contour>
  </outline>
</glyph>
<glyph name="asciitilde" format="2">
  <advance width="600.0"/>
  <unicode hex="007E"/>
  <outline>
    <contour>
      <point x="57.0" y="255.0" type="line"/>
      <point x="152.5" y="255.0" type="line"/>
      <point x="163.8" y="326.5" type="line" smooth="yes"/>
      <point x="169.2" y="358.3"/>
      <point x="187.1" y="375.5"/>
      <point x="214.4" y="375.5" type="curve" smooth="yes"/>
      <point x="282.4" y="375.5"/>
      <point x="265.3" y="242.5"/>
      <point x="396.3" y="242.5" type="curve" smooth="yes"/>
      <point x="479.4" y="242.5"/>
      <point x="541.8" y="296.1"/>
      <point x="554.4" y="375.5" type="curve" smooth="yes"/>
      <point x="566.0" y="450.0" type="line"/>
      <point x="470.5" y="450.0" type="line"/>
      <point x="459.2" y="378.5" type="line" smooth="yes"/>
      <point x="454.1" y="346.7"/>
      <point x="436.2" y="329.5"/>
      <point x="408.9" y="329.5" type="curve" smooth="yes"/>
      <point x="340.9" y="329.5"/>
      <point x="358.7" y="462.5"/>
      <point x="227.7" y="462.5" type="curve" smooth="yes"/>
      <point x="144.9" y="462.5"/>
      <point x="81.9" y="409.6"/>
      <point x="68.9" y="329.5" type="curve" smooth="yes"/>
    </contour>
  </outline>
</glyph>
<glyph name="exclamdown" format="2">
  <advance width="600.0"/>
  <unicode hex="00A1"/>
  <outline>
    <contour>
      <point x="166.2" y="-180.0" type="line"/>
      <point x="287.8" y="-180.0" type="line"/>
      <point x="309.6" y="-44.5" type="line"/>
      <point x="346.7" y="326.7" type="line"/>
      <point x="268.3" y="326.7" type="line"/>
      <point x="188.0" y="-44.5" type="line"/>
    </contour>
    <contour>
      <point x="312.6" y="429.7" type="curve" smooth="yes"/>
      <point x="335.6" y="429.7" type="line" smooth="yes"/>
      <point x="376.4" y="429.7"/>
      <point x="407.6" y="455.6"/>
      <point x="413.9" y="494.1" type="curve" smooth="yes"/>
      <point x="419.9" y="531.9"/>
      <point x="396.3" y="555.7"/>
      <point x="355.5" y="555.7" type="curve" smooth="yes"/>
      <point x="332.8" y="555.7" type="line" smooth="yes"/>
      <point x="291.7" y="555.7"/>
      <point x="260.5" y="531.5"/>
      <point x="254.9" y="493.7" type="curve" smooth="yes"/>
      <point x="248.6" y="455.6"/>
      <point x="271.8" y="429.7"/>
    </contour>
  </outline>
</glyph>
<glyph name="sterling" format="2">
  <advance width="600.0"/>
  <unicode hex="00A3"/>
  <outline>
    <contour>
      <point x="31.0" y="0.0" type="line"/>
      <point x="491.0" y="0.0" type="line"/>
      <point x="506.7" y="98.0" type="line"/>
      <point x="136.7" y="98.0" type="line"/>
      <point x="192.5" y="120.6"/>
      <point x="271.9" y="182.0"/>
      <point x="285.9" y="269.0" type="curve" smooth="yes"/>
      <point x="310.9" y="428.0"/>
      <point x="211.8" y="446.9"/>
      <point x="226.9" y="544.6" type="curve" smooth="yes"/>
      <point x="236.7" y="606.5"/>
      <point x="284.7" y="645.0"/>
      <point x="356.7" y="645.0" type="curve" smooth="yes"/>
      <point x="424.6" y="645.0"/>
      <point x="462.3" y="604.1"/>
      <point x="454.0" y="544.0" type="curve"/>
      <point x="565.5" y="544.0" type="line"/>
      <point x="580.7" y="664.5"/>
      <point x="508.0" y="740.0"/>
      <point x="373.0" y="740.0" type="curve" smooth="yes"/>
      <point x="236.0" y="740.0"/>
      <point x="137.2" y="663.2"/>
      <point x="119.5" y="550.5" type="curve" smooth="yes"/>
      <point x="99.2" y="424.2"/>
      <point x="203.6" y="401.0"/>
      <point x="180.9" y="260.0" type="curve" smooth="yes"/>
      <point x="172.9" y="210.0"/>
      <point x="102.1" y="149.9"/>
      <point x="49.7" y="118.0" type="curve"/>
    </contour>
    <contour>
      <point x="75.1" y="299.0" type="line"/>
      <point x="438.1" y="299.0" type="line"/>
      <point x="452.9" y="391.0" type="line"/>
      <point x="89.9" y="391.0" type="line"/>
    </contour>
  </outline>
</glyph>
<glyph name="currency" format="2">
  <advance width="600.0"/>
  <unicode hex="00A4"/>
  <outline>
    <contour>
      <point x="470.1" y="112.1" type="line"/>
      <point x="544.1" y="175.2" type="line"/>
      <point x="440.1" y="297.8" type="line"/>
      <point x="450.6" y="238.6" type="line"/>
      <point x="486.1" y="275.2"/>
      <point x="511.3" y="321.1"/>
      <point x="520.0" y="373.0" type="curve" smooth="yes"/>
      <point x="529.0" y="424.9"/>
      <point x="518.4" y="472.1"/>
      <point x="493.5" y="507.8" type="curve"/>
      <point x="470.9" y="448.5" type="line"/>
      <point x="604.2" y="563.5" type="line"/>
      <point x="548.1" y="629.2" type="line"/>
      <point x="414.1" y="512.8" type="line"/>
      <point x="476.6" y="525.9" type="line"/>
      <point x="444.8" y="557.1"/>
      <point x="401.5" y="575.0"/>
      <point x="348.0" y="575.0" type="curve" smooth="yes"/>
      <point x="297.5" y="575.0"/>
      <point x="248.7" y="558.5"/>
      <point x="211.7" y="530.6" type="curve"/>
      <point x="266.7" y="510.0" type="line"/>
      <point x="161.6" y="635.3" type="line"/>
      <point x="87.9" y="571.9" type="line"/>
      <point x="191.3" y="448.3" type="line"/>
      <point x="182.8" y="507.2" type="line"/>
      <point x="143.9" y="471.5"/>
      <point x="118.7" y="425.6"/>
      <point x="110.0" y="373.0" type="curve" smooth="yes"/>
      <point x="101.3" y="319.8"/>
      <point x="113.6" y="271.6"/>
      <point x="140.1" y="237.7" type="curve"/>
      <point x="160.7" y="296.3" type="line"/>
      <point x="27.8" y="179.9" type="line"/>
      <point x="82.9" y="112.8" type="line"/>
      <point x="219.5" y="229.8" type="line"/>
      <point x="158.0" y="218.1" type="line"/>
      <point x="188.6" y="187.6"/>
      <point x="232.1" y="171.0"/>
      <point x="284.0" y="171.0" type="curve" smooth="yes"/>
      <point x="334.2" y="171.0"/>
      <point x="383.7" y="186.9"/>
      <point x="420.7" y="216.8" type="curve"/>
      <point x="365.4" y="236.1" type="line"/>
    </contour>
    <contour>
      <point x="296.2" y="247.8" type="curve" smooth="yes"/>
      <point x="225.7" y="247.8"/>
      <point x="180.4" y="301.5"/>
      <point x="191.8" y="373.0" type="curve" smooth="yes"/>
      <point x="203.2" y="444.5"/>
      <point x="265.3" y="498.2"/>
      <point x="335.8" y="498.2" type="curve" smooth="yes"/>
      <point x="405.3" y="498.2"/>
      <point x="449.6" y="444.5"/>
      <point x="438.2" y="373.0" type="curve" smooth="yes"/>
      <point x="426.8" y="301.5"/>
      <point x="365.7" y="247.8"/>
    </contour>
  </outline>
</glyph>
<glyph name="yen" format="2">
  <advance width="600.0"/>
  <unicode hex="00A5"/>
  <anchor x="256.0" y="0.0" name="bottom"/>
  <anchor x="372.0" y="730.0" name="top"/>
  <anchor x="92.0" y="730.0" name="topleft"/>
  <outline>
    <contour>
      <point x="58.4" y="267.0" type="line"/>
      <point x="538.4" y="267.0" type="line"/>
      <point x="551.9" y="351.0" type="line"/>
      <point x="71.9" y="351.0" type="line"/>
    </contour>
    <contour>
      <point x="34.1" y="114.0" type="line"/>
      <point x="514.1" y="114.0" type="line"/>
      <point x="527.3" y="198.0" type="line"/>
      <point x="47.3" y="198.0" type="line"/>
    </contour>
    <component base="Y"/>
  </outline>
</glyph>
<glyph name="brokenbar" format="2">
  <advance width="600.0"/>
  <unicode hex="00A6"/>
  <outline>
    <contour>
      <point x="273.0" y="450.0" type="line"/>
      <point x="381.0" y="450.0" type="line"/>
      <point x="441.0" y="830.0" type="line"/>
      <point x="333.0" y="830.0" type="line"/>
    </contour>
    <contour>
      <point x="185.0" y="-110.0" type="line"/>
      <point x="293.0" y="-110.0" type="line"/>
      <point x="353.0" y="270.0" type="line"/>
      <point x="245.0" y="270.0" type="line"/>
    </contour>
  </outline>
</glyph>
<glyph name="section" format="2">
  <advance width="600.0"/>
  <unicode hex="00A7"/>
  <outline>
    <contour>
      <point x="216.4" y="-154.3" type="curve" smooth="yes"/>
      <point x="246.4" y="-154.3" type="line" smooth="yes"/>
      <point x="384.0" y="-154.3"/>
      <point x="474.6" y="-88.7"/>
      <point x="490.9" y="16.2" type="curve" smooth="yes"/>
      <point x="507.6" y="117.3"/>
      <point x="435.7" y="161.8"/>
      <point x="378.1" y="166.6" type="curve"/>
      <point x="379.1" y="173.6" type="line"/>
      <point x="462.7" y="175.7"/>
      <point x="524.5" y="232.8"/>
      <point x="536.5" y="309.8" type="curve" smooth="yes"/>
      <point x="549.5" y="390.8"/>
      <point x="498.4" y="453.0"/>
      <point x="399.8" y="474.5" type="curve" smooth="yes"/>
      <point x="308.9" y="494.4" type="line" smooth="yes"/>
      <point x="254.8" y="506.5"/>
      <point x="227.7" y="536.2"/>
      <point x="234.1" y="575.6" type="curve" smooth="yes"/>
      <point x="240.8" y="621.1"/>
      <point x="282.3" y="650.4"/>
      <point x="346.7" y="650.4" type="curve" smooth="yes"/>
      <point x="376.7" y="650.4" type="line" smooth="yes"/>
      <point x="427.2" y="650.4"/>
      <point x="460.5" y="626.5"/>
      <point x="463.9" y="592.9" type="curve"/>
      <point x="575.4" y="592.9" type="line"/>
      <point x="576.3" y="682.9"/>
      <point x="504.8" y="740.0"/>
      <point x="390.5" y="740.0" type="curve" smooth="yes"/>
      <point x="360.5" y="740.0" type="line" smooth="yes"/>
      <point x="229.8" y="740.0"/>
      <point x="142.5" y="675.8"/>
      <point x="126.9" y="575.1" type="curve" smooth="yes"/>
      <point x="110.5" y="473.6"/>
      <point x="177.6" y="431.4"/>
      <point x="233.1" y="428.2" type="curve"/>
      <point x="232.1" y="421.2" type="line"/>
      <point x="152.0" y="413.9"/>
      <point x="89.1" y="357.4"/>
      <point x="77.1" y="280.8" type="curve" smooth="yes"/>
      <point x="64.8" y="202.2"/>
      <point x="117.5" y="139.0"/>
      <point x="213.5" y="119.2" type="curve" smooth="yes"/>
      <point x="302.8" y="99.9" type="line" smooth="yes"/>
      <point x="363.8" y="86.5"/>
      <point x="391.1" y="58.5"/>
      <point x="384.0" y="15.3" type="curve" smooth="yes"/>
      <point x="376.3" y="-32.8"/>
      <point x="331.4" y="-64.7"/>
      <point x="260.2" y="-64.7" type="curve" smooth="yes"/>
      <point x="230.2" y="-64.7" type="line" smooth="yes"/>
      <point x="177.5" y="-64.7"/>
      <point x="139.6" y="-38.3"/>
      <point x="134.9" y="0.6" type="curve"/>
      <point x="23.4" y="0.6" type="line"/>
      <point x="22.5" y="-93.8"/>
      <point x="98.1" y="-154.3"/>
    </contour>
    <contour>
      <point x="311.4" y="191.6" type="curve" smooth="yes"/>
      <point x="244.4" y="205.4" type="line" smooth="yes"/>
      <point x="202.4" y="213.8"/>
      <point x="179.2" y="252.0"/>
      <point x="187.6" y="301.2" type="curve" smooth="yes"/>
      <point x="197.6" y="367.1"/>
      <point x="244.3" y="414.1"/>
      <point x="299.2" y="402.4" type="curve" smooth="yes"/>
      <point x="364.8" y="388.3" type="line" smooth="yes"/>
      <point x="409.3" y="378.6"/>
      <point x="434.1" y="341.5"/>
      <point x="426.7" y="295.7" type="curve" smooth="yes"/>
      <point x="416.0" y="228.0"/>
      <point x="368.1" y="179.6"/>
    </contour>
  </outline>
</glyph>
<glyph name="copyright" format="2">
  <advance width="600.0"/>
  <unicode hex="00A9"/>
  <outline>
    <contour>
      <point x="273.0" y="110.0" type="curve" smooth="yes"/>
      <point x="426.0" y="110.0"/>
      <point x="544.0" y="206.0"/>
      <point x="566.0" y="350.0" type="curve" smooth="yes"/>
      <point x="590.0" y="500.0" type="line" smooth="yes"/>
      <point x="613.0" y="644.0"/>
      <point x="526.0" y="740.0"/>
      <point x="373.0" y="740.0" type="curve" smooth="yes"/>
      <point x="220.0" y="740.0"/>
      <point x="103.0" y="644.0"/>
      <point x="80.0" y="500.0" type="curve" smooth="yes"/>
      <point x="56.0" y="350.0" type="line" smooth="yes"/>
      <point x="34.0" y="206.0"/>
      <point x="120.0" y="110.0"/>
    </contour>
    <contour>
      <point x="281.0" y="160.0" type="curve" smooth="yes"/>
      <point x="162.0" y="160.0"/>
      <point x="93.0" y="236.0"/>
      <point x="111.0" y="350.0" type="curve" smooth="yes"/>
      <point x="135.0" y="500.0" type="line" smooth="yes"/>
      <point x="153.0" y="614.0"/>
      <point x="246.0" y="690.0"/>
      <point x="365.0" y="690.0" type="curve" smooth="yes"/>
      <point x="485.0" y="690.0"/>
      <point x="553.0" y="614.0"/>
      <point x="535.0" y="500.0" type="curve" smooth="yes"/>
      <point x="511.0" y="350.0" type="line" smooth="yes"/>
      <point x="493.0" y="236.0"/>
      <point x="401.0" y="160.0"/>
    </contour>
    <contour>
      <point x="300.0" y="245.0" type="curve" smooth="yes"/>
      <point x="375.8" y="245.0"/>
      <point x="434.3" y="292.2"/>
      <point x="445.6" y="363.0" type="curve"/>
      <point x="374.6" y="363.0" type="line"/>
      <point x="368.9" y="328.8"/>
      <point x="343.1" y="306.0"/>
      <point x="309.9" y="306.0" type="curve" smooth="yes"/>
      <point x="275.7" y="306.0"/>
      <point x="255.9" y="328.8"/>
      <point x="261.6" y="363.0" type="curve" smooth="yes"/>
      <point x="281.4" y="487.0" type="line" smooth="yes"/>
      <point x="286.4" y="521.2"/>
      <point x="312.9" y="544.0"/>
      <point x="347.1" y="544.0" type="curve" smooth="yes"/>
      <point x="380.3" y="544.0"/>
      <point x="399.4" y="521.2"/>
      <point x="394.4" y="487.0" type="curve"/>
      <point x="465.4" y="487.0" type="line"/>
      <point x="476.7" y="557.8"/>
      <point x="432.8" y="605.0"/>
      <point x="357.0" y="605.0" type="curve" smooth="yes"/>
      <point x="280.2" y="605.0"/>
      <point x="221.7" y="557.8"/>
      <point x="210.4" y="487.0" type="curve" smooth="yes"/>
      <point x="190.6" y="363.0" type="line" smooth="yes"/>
      <point x="179.3" y="292.2"/>
      <point x="223.2" y="245.0"/>
    </contour>
  </outline>
</glyph>
<glyph name="ordfeminine" format="2">
  <advance width="600.0"/>
  <unicode hex="00AA"/>
  <outline>
    <contour>
      <point x="395.0" y="455.0" type="line"/>
      <point x="451.0" y="455.0" type="line"/>
      <point x="482.0" y="650.0" type="line" smooth="yes"/>
      <point x="491.0" y="705.4"/>
      <point x="450.2" y="740.0"/>
      <point x="378.0" y="740.0" type="curve" smooth="yes"/>
      <point x="312.3" y="740.0"/>
      <point x="263.6" y="709.5"/>
      <point x="247.7" y="658.5" type="curve"/>
      <point x="306.7" y="658.5" type="line"/>
      <point x="312.8" y="679.8"/>
      <point x="339.1" y="694.0"/>
      <point x="371.1" y="694.0" type="curve" smooth="yes"/>
      <point x="407.2" y="694.0"/>
      <point x="427.4" y="677.1"/>
      <point x="423.0" y="650.0" type="curve" smooth="yes"/>
      <point x="401.0" y="510.0" type="line"/>
      <point x="404.0" y="510.0" type="line"/>
    </contour>
    <contour>
      <point x="298.0" y="450.0" type="curve" smooth="yes"/>
      <point x="341.9" y="450.0"/>
      <point x="380.7" y="472.7"/>
      <point x="401.0" y="510.0" type="curve"/>
      <point x="412.0" y="510.0" type="line"/>
      <point x="419.0" y="555.0" type="line"/>
      <point x="408.0" y="555.0" type="line"/>
      <point x="401.6" y="516.6"/>
      <point x="368.4" y="493.1"/>
      <point x="320.9" y="493.1" type="curve" smooth="yes"/>
      <point x="287.1" y="493.1"/>
      <point x="267.6" y="510.2"/>
      <point x="272.3" y="537.2" type="curve" smooth="yes"/>
      <point x="276.0" y="563.4"/>
      <point x="296.9" y="579.2"/>
      <point x="327.7" y="579.2" type="curve" smooth="yes"/>
      <point x="422.7" y="579.2" type="line"/>
      <point x="429.3" y="622.2" type="line"/>
      <point x="334.3" y="622.2" type="line" smooth="yes"/>
      <point x="268.1" y="622.2"/>
      <point x="221.0" y="588.6"/>
      <point x="213.0" y="536.6" type="curve" smooth="yes"/>
      <point x="205.0" y="484.3"/>
      <point x="238.3" y="450.0"/>
    </contour>
  </outline>
</glyph>
<glyph name="guillemetleft" format="2">
  <advance width="600.0"/>
  <unicode hex="00AB"/>
  <outline>
    <contour>
      <point x="415.9" y="40.0" type="line"/>
      <point x="532.2" y="40.0" type="line"/>
      <point x="380.9" y="276.1" type="line"/>
      <point x="616.8" y="520.0" type="line"/>
      <point x="491.8" y="520.0" type="line"/>
      <point x="263.6" y="280.0" type="line"/>
    </contour>
    <contour>
      <point x="177.8" y="40.0" type="line"/>
      <point x="294.1" y="40.0" type="line"/>
      <point x="142.8" y="276.1" type="line"/>
      <point x="378.7" y="520.0" type="line"/>
      <point x="253.7" y="520.0" type="line"/>
      <point x="25.5" y="280.0" type="line"/>
    </contour>
  </outline>
</glyph>
<glyph name="logicalnot" format="2">
  <advance width="600.0"/>
  <unicode hex="00AC"/>
  <outline>
    <contour>
      <point x="412.3" y="196.0" type="line"/>
      <point x="516.8" y="196.0" type="line"/>
      <point x="553.5" y="425.5" type="line"/>
      <point x="93.5" y="425.5" type="line"/>
      <point x="77.8" y="327.5" type="line"/>
      <point x="433.3" y="327.5" type="line"/>
    </contour>
  </outline>
</glyph>
<glyph name="registered" format="2">
  <advance width="600.0"/>
  <unicode hex="00AE"/>
  <outline>
    <contour>
      <point x="273.0" y="110.0" type="curve" smooth="yes"/>
      <point x="426.0" y="110.0"/>
      <point x="543.0" y="206.0"/>
      <point x="566.0" y="350.0" type="curve" smooth="yes"/>
      <point x="590.0" y="500.0" type="line" smooth="yes"/>
      <point x="613.0" y="644.0"/>
      <point x="526.0" y="740.0"/>
      <point x="373.0" y="740.0" type="curve" smooth="yes"/>
      <point x="220.0" y="740.0"/>
      <point x="103.0" y="644.0"/>
      <point x="80.0" y="500.0" type="curve" smooth="yes"/>
      <point x="56.0" y="350.0" type="line" smooth="yes"/>
      <point x="33.0" y="206.0"/>
      <point x="120.0" y="110.0"/>
    </contour>
    <contour>
      <point x="281.0" y="160.0" type="curve" smooth="yes"/>
      <point x="162.0" y="160.0"/>
      <point x="93.0" y="236.0"/>
      <point x="111.0" y="350.0" type="curve" smooth="yes"/>
      <point x="135.0" y="500.0" type="line" smooth="yes"/>
      <point x="153.0" y="614.0"/>
      <point x="246.0" y="690.0"/>
      <point x="365.0" y="690.0" type="curve" smooth="yes"/>
      <point x="485.0" y="690.0"/>
      <point x="553.0" y="614.0"/>
      <point x="535.0" y="500.0" type="curve" smooth="yes"/>
      <point x="511.0" y="350.0" type="line" smooth="yes"/>
      <point x="493.0" y="236.0"/>
      <point x="401.0" y="160.0"/>
    </contour>
    <contour>
      <point x="183.0" y="250.0" type="line"/>
      <point x="249.0" y="250.0" type="line"/>
      <point x="270.7" y="388.5" type="line"/>
      <point x="320.5" y="388.5" type="line"/>
      <point x="357.3" y="250.0" type="line"/>
      <point x="426.0" y="250.0" type="line"/>
      <point x="373.2" y="435.8" type="line"/>
      <point x="351.8" y="391.2" type="line"/>
      <point x="408.6" y="400.6"/>
      <point x="448.7" y="437.6"/>
      <point x="458.0" y="493.5" type="curve" smooth="yes"/>
      <point x="468.7" y="558.1"/>
      <point x="428.2" y="600.0"/>
      <point x="355.0" y="600.0" type="curve" smooth="yes"/>
      <point x="238.0" y="600.0" type="line"/>
    </contour>
    <contour>
      <point x="279.3" y="443.0" type="line"/>
      <point x="295.7" y="547.0" type="line"/>
      <point x="346.7" y="547.0" type="line" smooth="yes"/>
      <point x="379.6" y="547.0"/>
      <point x="396.7" y="527.6"/>
      <point x="391.0" y="495.0" type="curve" smooth="yes"/>
      <point x="386.3" y="462.4"/>
      <point x="363.2" y="443.0"/>
      <point x="330.3" y="443.0" type="curve" smooth="yes"/>
    </contour>
  </outline>
</glyph>
<glyph name="degree" format="2">
  <advance width="600.0"/>
  <unicode hex="00B0"/>
  <outline>
    <contour>
      <point x="327.0" y="450.0" type="curve" smooth="yes"/>
      <point x="417.0" y="450.0"/>
      <point x="486.0" y="508.0"/>
      <point x="500.0" y="595.0" type="curve" smooth="yes"/>
      <point x="514.0" y="682.0"/>
      <point x="463.0" y="740.0"/>
      <point x="373.0" y="740.0" type="curve" smooth="yes"/>
      <point x="283.0" y="740.0"/>
      <point x="214.0" y="682.0"/>
      <point x="200.0" y="595.0" type="curve" smooth="yes"/>
      <point x="186.0" y="508.0"/>
      <point x="237.0" y="450.0"/>
    </contour>
    <contour>
      <point x="335.2" y="505.2" type="curve" smooth="yes"/>
      <point x="284.6" y="505.2"/>
      <point x="256.1" y="541.4"/>
      <point x="264.5" y="595.0" type="curve" smooth="yes"/>
      <point x="273.2" y="649.3"/>
      <point x="313.1" y="685.5"/>
      <point x="363.7" y="685.5" type="curve" smooth="yes"/>
      <point x="415.7" y="685.5"/>
      <point x="444.2" y="649.3"/>
      <point x="435.5" y="595.0" type="curve" smooth="yes"/>
      <point x="427.1" y="541.4"/>
      <point x="387.2" y="505.2"/>
    </contour>
  </outline>
</glyph>
<glyph name="plusminus" format="2">
  <advance width="600.0"/>
  <unicode hex="00B1"/>
  <outline>
    <contour>
      <point x="24.5" y="0.0" type="line"/>
      <point x="487.5" y="0.0" type="line"/>
      <point x="500.6" y="82.3" type="line"/>
      <point x="323.9" y="82.3" type="line"/>
      <point x="356.0" y="284.5" type="line"/>
      <point x="540.7" y="284.5" type="line"/>
      <point x="555.7" y="382.5" type="line"/>
      <point x="371.0" y="382.5" type="line"/>
      <point x="400.8" y="570.0" type="line"/>
      <point x="294.2" y="570.0" type="line"/>
      <point x="264.4" y="382.5" type="line"/>
      <point x="79.7" y="382.5" type="line"/>
      <point x="64.7" y="284.5" type="line"/>
      <point x="249.4" y="284.5" type="line"/>
      <point x="217.3" y="82.3" type="line"/>
      <point x="37.6" y="82.3" type="line"/>
    </contour>
  </outline>
</glyph>
<glyph name="twosuperior" format="2">
  <advance width="600.0"/>
  <unicode hex="00B2"/>
  <outline>
    <contour>
      <point x="182.1" y="405.0" type="line"/>
      <point x="478.9" y="405.0" type="line"/>
      <point x="489.8" y="474.7" type="line"/>
      <point x="277.6" y="474.7" type="line"/>
      <point x="413.1" y="558.6" type="line" smooth="yes"/>
      <point x="470.8" y="594.3"/>
      <point x="507.8" y="646.2"/>
      <point x="516.1" y="697.1" type="curve" smooth="yes"/>
      <point x="529.4" y="784.4"/>
      <point x="480.3" y="840.0"/>
      <point x="388.2" y="840.0" type="curve" smooth="yes"/>
      <point x="298.9" y="840.0"/>
      <point x="231.1" y="783.7"/>
      <point x="214.3" y="695.4" type="curve"/>
      <point x="291.8" y="695.4" type="line"/>
      <point x="299.2" y="742.1"/>
      <point x="332.7" y="771.3"/>
      <point x="377.3" y="771.3" type="curve" smooth="yes"/>
      <point x="421.9" y="771.3"/>
      <point x="446.0" y="742.1"/>
      <point x="438.6" y="695.4" type="curve" smooth="yes"/>
      <point x="433.6" y="665.7"/>
      <point x="411.5" y="634.3"/>
      <point x="381.0" y="614.8" type="curve" smooth="yes"/>
      <point x="196.7" y="495.0" type="line"/>
    </contour>
  </outline>
</glyph>
<glyph name="threesuperior" format="2">
  <advance width="600.0"/>
  <unicode hex="00B3"/>
  <outline>
    <contour>
      <point x="303.0" y="395.0" type="curve" smooth="yes"/>
      <point x="395.5" y="395.0"/>
      <point x="462.9" y="449.6"/>
      <point x="477.2" y="537.1" type="curve" smooth="yes"/>
      <point x="490.2" y="618.5"/>
      <point x="441.9" y="670.5"/>
      <point x="355.4" y="670.5" type="curve"/>
      <point x="350.8" y="637.8" type="line"/>
      <point x="483.0" y="750.1" type="line"/>
      <point x="496.3" y="830.7" type="line"/>
      <point x="249.1" y="830.7" type="line"/>
      <point x="237.5" y="761.0" type="line"/>
      <point x="416.6" y="761.0" type="line"/>
      <point x="318.0" y="677.1" type="line"/>
      <point x="307.7" y="610.4" type="line"/>
      <point x="337.7" y="610.4" type="line" smooth="yes"/>
      <point x="381.9" y="610.4"/>
      <point x="405.0" y="582.6"/>
      <point x="398.3" y="537.1" type="curve" smooth="yes"/>
      <point x="390.6" y="491.0"/>
      <point x="359.1" y="463.7"/>
      <point x="313.9" y="463.7" type="curve" smooth="yes"/>
      <point x="267.0" y="463.7"/>
      <point x="241.6" y="491.0"/>
      <point x="249.3" y="536.5" type="curve"/>
      <point x="172.5" y="536.5" type="line"/>
      <point x="158.2" y="449.6"/>
      <point x="209.9" y="395.0"/>
    </contour>
  </outline>
</glyph>
<glyph name="paragraph" format="2">
  <advance width="600.0"/>
  <unicode hex="00B6"/>
  <outline>
    <contour>
      <point x="177.5" y="-180.0" type="line"/>
      <point x="266.5" y="-180.0" type="line"/>
      <point x="411.5" y="730.0" type="line"/>
      <point x="322.5" y="730.0" type="line" smooth="yes"/>
      <point x="208.5" y="730.0"/>
      <point x="121.5" y="662.0"/>
      <point x="105.5" y="560.0" type="curve" smooth="yes"/>
      <point x="92.5" y="480.0" type="line" smooth="yes"/>
      <point x="76.5" y="378.0"/>
      <point x="141.5" y="310.0"/>
      <point x="255.5" y="310.0" type="curve"/>
    </contour>
    <contour>
      <point x="350.5" y="-180.0" type="line"/>
      <point x="439.5" y="-180.0" type="line"/>
      <point x="584.5" y="730.0" type="line"/>
      <point x="495.5" y="730.0" type="line"/>
    </contour>
  </outline>
</glyph>
<glyph name="onesuperior" format="2">
  <advance width="600.0"/>
  <unicode hex="00B9"/>
  <outline>
    <contour>
      <point x="172.0" y="405.0" type="line"/>
      <point x="484.5" y="405.0" type="line"/>
      <point x="495.7" y="475.3" type="line"/>
      <point x="392.3" y="475.3" type="line"/>
      <point x="448.1" y="830.0" type="line"/>
      <point x="345.6" y="830.0" type="line"/>
      <point x="237.0" y="758.1" type="line"/>
      <point x="223.8" y="673.4" type="line"/>
      <point x="359.7" y="761.0" type="line"/>
      <point x="314.8" y="475.3" type="line"/>
      <point x="183.2" y="475.3" type="line"/>
    </contour>
  </outline>
</glyph>
<glyph name="ordmasculine" format="2">
  <advance width="600.0"/>
  <unicode hex="00BA"/>
  <outline>
    <contour>
      <point x="326.3" y="446.5" type="curve" smooth="yes"/>
      <point x="398.9" y="446.5"/>
      <point x="454.9" y="491.5"/>
      <point x="464.9" y="556.3" type="curve" smooth="yes"/>
      <point x="476.4" y="627.0" type="line" smooth="yes"/>
      <point x="487.0" y="692.7"/>
      <point x="444.9" y="736.5"/>
      <point x="372.3" y="736.5" type="curve" smooth="yes"/>
      <point x="299.7" y="736.5"/>
      <point x="245.0" y="692.7"/>
      <point x="234.4" y="627.0" type="curve" smooth="yes"/>
      <point x="222.9" y="556.3" type="line" smooth="yes"/>
      <point x="212.9" y="491.5"/>
      <point x="253.7" y="446.5"/>
    </contour>
    <contour>
      <point x="334.5" y="495.5" type="curve" smooth="yes"/>
      <point x="297.3" y="495.5"/>
      <point x="276.5" y="519.7"/>
      <point x="281.9" y="556.3" type="curve" smooth="yes"/>
      <point x="293.4" y="627.0" type="line" smooth="yes"/>
      <point x="299.1" y="663.3"/>
      <point x="327.6" y="687.5"/>
      <point x="364.8" y="687.5" type="curve" smooth="yes"/>
      <point x="402.0" y="687.5"/>
      <point x="423.1" y="663.3"/>
      <point x="417.4" y="627.0" type="curve" smooth="yes"/>
      <point x="405.9" y="556.3" type="line" smooth="yes"/>
      <point x="400.5" y="519.7"/>
      <point x="371.7" y="495.5"/>
    </contour>
  </outline>
</glyph>
<glyph name="guillemetright" format="2">
  <advance width="600.0"/>
  <unicode hex="00BB"/>
  <outline>
    <contour>
      <point x="222.0" y="40.0" type="line"/>
      <point x="346.3" y="40.0" type="line"/>
      <point x="574.5" y="280.0" type="line"/>
      <point x="422.2" y="520.0" type="line"/>
      <point x="305.9" y="520.0" type="line"/>
      <point x="455.9" y="286.3" type="line"/>
    </contour>
    <contour>
      <point x="-16.1" y="40.0" type="line"/>
      <point x="108.2" y="40.0" type="line"/>
      <point x="336.4" y="280.0" type="line"/>
      <point x="184.1" y="520.0" type="line"/>
      <point x="67.8" y="520.0" type="line"/>
      <point x="217.8" y="286.3" type="line"/>
    </contour>
  </outline>
</glyph>
<glyph name="onequarter" format="2">
  <advance width="600.0"/>
  <unicode hex="00BC"/>
  <outline>
    <contour>
      <point x="52.1" y="404.7" type="line"/>
      <point x="332.8" y="404.7" type="line"/>
      <point x="342.0" y="462.2" type="line"/>
      <point x="247.1" y="462.2" type="line"/>
      <point x="289.6" y="729.7" type="line"/>
      <point x="195.6" y="729.7" type="line"/>
      <point x="114.7" y="670.8" type="line"/>
      <point x="102.2" y="592.4" type="line"/>
      <point x="171.9" y="644.3" type="line" smooth="yes"/>
      <point x="188.9" y="657.0"/>
      <point x="205.1" y="673.9"/>
      <point x="213.0" y="683.8" type="curve"/>
      <point x="178.1" y="462.2" type="line"/>
      <point x="61.3" y="462.2" type="line"/>
    </contour>
    <contour>
      <point x="429.7" y="0.0" type="line"/>
      <point x="498.7" y="0.0" type="line"/>
      <point x="531.4" y="207.8" type="line"/>
      <point x="462.4" y="207.8" type="line"/>
      <point x="449.3" y="123.0" type="line"/>
      <point x="346.3" y="123.0" type="line"/>
      <point x="349.0" y="139.0" type="line"/>
      <point x="512.7" y="325.0" type="line"/>
      <point x="434.7" y="325.0" type="line"/>
      <point x="282.0" y="153.0" type="line"/>
      <point x="268.4" y="67.0" type="line"/>
      <point x="440.4" y="67.0" type="line"/>
    </contour>
    <component base="fraction"/>
  </outline>
</glyph>
<glyph name="onehalf" format="2">
  <advance width="600.0"/>
  <unicode hex="00BD"/>
  <outline>
    <contour>
      <point x="269.5" y="0.0" type="line"/>
      <point x="530.5" y="0.0" type="line"/>
      <point x="539.7" y="57.5" type="line"/>
      <point x="433.4" y="57.5" type="line" smooth="yes"/>
      <point x="407.7" y="57.5"/>
      <point x="376.9" y="53.1"/>
      <point x="361.9" y="50.4" type="curve"/>
      <point x="363.2" y="60.1" type="line"/>
      <point x="452.5" y="105.8" type="line" smooth="yes"/>
      <point x="516.1" y="138.0"/>
      <point x="553.8" y="177.9"/>
      <point x="560.8" y="220.7" type="curve" smooth="yes"/>
      <point x="570.8" y="286.2"/>
      <point x="526.6" y="330.0"/>
      <point x="450.4" y="330.0" type="curve" smooth="yes"/>
      <point x="375.7" y="330.0"/>
      <point x="316.6" y="284.4"/>
      <point x="303.5" y="216.0" type="curve"/>
      <point x="372.5" y="216.0" type="line"/>
      <point x="377.9" y="251.1"/>
      <point x="405.5" y="274.0"/>
      <point x="441.5" y="274.0" type="curve" smooth="yes"/>
      <point x="476.3" y="274.0"/>
      <point x="496.2" y="251.7"/>
      <point x="490.8" y="216.9" type="curve" smooth="yes"/>
      <point x="487.1" y="190.6"/>
      <point x="463.3" y="167.2"/>
      <point x="419.2" y="143.8" type="curve" smooth="yes"/>
      <point x="280.7" y="71.5" type="line"/>
    </contour>
    <contour>
      <point x="52.1" y="405.0" type="line"/>
      <point x="339.8" y="405.0" type="line"/>
      <point x="349.0" y="462.5" type="line"/>
      <point x="247.1" y="462.5" type="line"/>
      <point x="289.9" y="730.0" type="line"/>
      <point x="195.9" y="730.0" type="line"/>
      <point x="114.7" y="671.1" type="line"/>
      <point x="102.5" y="592.7" type="line"/>
      <point x="171.9" y="644.6" type="line" smooth="yes"/>
      <point x="188.9" y="657.3"/>
      <point x="205.1" y="674.2"/>
      <point x="213.0" y="684.1" type="curve"/>
      <point x="178.1" y="462.5" type="line"/>
      <point x="61.3" y="462.5" type="line"/>
    </contour>
    <component base="fraction"/>
  </outline>
</glyph>
<glyph name="threequarters" format="2">
  <advance width="600.0"/>
  <unicode hex="00BE"/>
  <outline>
    <contour>
      <point x="429.7" y="0.0" type="line"/>
      <point x="498.7" y="0.0" type="line"/>
      <point x="531.4" y="207.8" type="line"/>
      <point x="462.4" y="207.8" type="line"/>
      <point x="449.3" y="123.0" type="line"/>
      <point x="346.3" y="123.0" type="line"/>
      <point x="349.0" y="139.0" type="line"/>
      <point x="512.7" y="325.0" type="line"/>
      <point x="434.7" y="325.0" type="line"/>
      <point x="282.0" y="153.0" type="line"/>
      <point x="268.4" y="67.0" type="line"/>
      <point x="440.4" y="67.0" type="line"/>
    </contour>
    <contour>
      <point x="173.3" y="400.0" type="curve" smooth="yes"/>
      <point x="251.1" y="400.0"/>
      <point x="310.0" y="442.6"/>
      <point x="320.3" y="506.5" type="curve" smooth="yes"/>
      <point x="330.0" y="568.6"/>
      <point x="288.2" y="610.0"/>
      <point x="216.4" y="610.0" type="curve"/>
      <point x="213.1" y="591.4" type="line"/>
      <point x="331.0" y="672.9" type="line"/>
      <point x="340.3" y="730.0" type="line"/>
      <point x="119.3" y="730.0" type="line"/>
      <point x="110.4" y="675.5" type="line"/>
      <point x="263.7" y="675.5" type="line"/>
      <point x="179.3" y="616.7" type="line"/>
      <point x="169.7" y="557.0" type="line"/>
      <point x="199.7" y="557.0" type="line" smooth="yes"/>
      <point x="235.1" y="557.0"/>
      <point x="256.0" y="536.8"/>
      <point x="251.3" y="506.5" type="curve" smooth="yes"/>
      <point x="246.6" y="476.2"/>
      <point x="218.6" y="456.0"/>
      <point x="182.2" y="456.0" type="curve" smooth="yes"/>
      <point x="144.8" y="456.0"/>
      <point x="123.9" y="475.6"/>
      <point x="128.3" y="505.0" type="curve"/>
      <point x="59.3" y="505.0" type="line"/>
      <point x="49.3" y="442.0"/>
      <point x="94.5" y="400.0"/>
    </contour>
    <component base="fraction"/>
  </outline>
</glyph>
<glyph name="questiondown" format="2">
  <advance width="600.0"/>
  <unicode hex="00BF"/>
  <outline>
    <contour>
      <point x="266.0" y="-170.0" type="curve" smooth="yes"/>
      <point x="400.0" y="-170.0" type="line"/>
      <point x="416.4" y="-68.5" type="line"/>
      <point x="279.4" y="-68.5" type="line" smooth="yes"/>
      <point x="201.7" y="-68.5"/>
      <point x="160.5" y="-27.8"/>
      <point x="171.0" y="40.0" type="curve" smooth="yes"/>
      <point x="182.2" y="107.8"/>
      <point x="235.6" y="148.5"/>
      <point x="312.3" y="148.5" type="curve" smooth="yes"/>
      <point x="377.3" y="148.5" type="line"/>
      <point x="406.3" y="339.0" type="line"/>
      <point x="305.8" y="339.0" type="line"/>
      <point x="290.3" y="241.5" type="line"/>
      <point x="173.0" y="237.3"/>
      <point x="81.6" y="156.7"/>
      <point x="63.0" y="40.0" type="curve" smooth="yes"/>
      <point x="43.0" y="-88.1"/>
      <point x="121.6" y="-170.0"/>
    </contour>
    <contour>
      <point x="360.9" y="429.0" type="curve" smooth="yes"/>
      <point x="383.9" y="429.0" type="line" smooth="yes"/>
      <point x="424.7" y="429.0"/>
      <point x="455.9" y="454.9"/>
      <point x="462.2" y="493.4" type="curve" smooth="yes"/>
      <point x="467.5" y="531.2"/>
      <point x="444.6" y="555.0"/>
      <point x="403.8" y="555.0" type="curve" smooth="yes"/>
      <point x="381.1" y="555.0" type="line" smooth="yes"/>
      <point x="340.0" y="555.0"/>
      <point x="308.8" y="530.8"/>
      <point x="303.2" y="493.0" type="curve" smooth="yes"/>
      <point x="296.9" y="454.9"/>
      <point x="320.1" y="429.0"/>
    </contour>
  </outline>
</glyph>
<glyph name="AE" format="2">
  <advance width="600.0"/>
  <unicode hex="00C6"/>
  <anchor x="256.0" y="0.0" name="bottom"/>
  <anchor x="372.0" y="730.0" name="top"/>
  <outline>
    <contour>
      <point x="-23.0" y="0.0" type="line"/>
      <point x="83.6" y="0.0" type="line"/>
      <point x="149.6" y="191.6" type="line"/>
      <point x="284.9" y="191.6" type="line"/>
      <point x="254.7" y="0.0" type="line"/>
      <point x="529.0" y="0.0" type="line"/>
      <point x="544.1" y="95.2" type="line"/>
      <point x="367.5" y="95.2" type="line"/>
      <point x="404.6" y="328.1" type="line"/>
      <point x="556.2" y="328.1" type="line"/>
      <point x="571.6" y="424.8" type="line"/>
      <point x="420.0" y="424.8" type="line"/>
      <point x="453.3" y="635.1" type="line"/>
      <point x="629.9" y="635.1" type="line"/>
      <point x="645.0" y="730.0" type="line"/>
      <point x="235.6" y="730.0" type="line"/>
    </contour>
    <contour>
      <point x="178.0" y="275.6" type="line"/>
      <point x="301.7" y="635.1" type="line"/>
      <point x="355.6" y="635.1" type="line"/>
      <point x="298.4" y="275.6" type="line"/>
    </contour>
  </outline>
</glyph>
<glyph name="Ccedilla" format="2">
  <advance width="600.0"/>
  <unicode hex="00C7"/>
  <anchor x="261.0" y="0.0" name="bottom"/>
  <anchor x="377.0" y="730.0" name="top"/>
  <outline>
    <contour>
      <point x="129.8" y="-209.6" type="line"/>
      <point x="222.3" y="-209.6" type="line" smooth="yes"/>
      <point x="297.9" y="-209.6"/>
      <point x="354.6" y="-170.8"/>
      <point x="361.9" y="-123.9" type="curve" smooth="yes"/>
      <point x="370.5" y="-69.2"/>
      <point x="303.3" y="-41.6"/>
      <point x="248.9" y="-36.2" type="curve"/>
      <point x="279.0" y="23.0" type="line"/>
      <point x="217.2" y="23.0" type="line"/>
      <point x="167.5" y="-69.0" type="line"/>
      <point x="236.3" y="-69.0"/>
      <point x="272.8" y="-88.7"/>
      <point x="268.5" y="-114.1" type="curve" smooth="yes"/>
      <point x="265.8" y="-131.5"/>
      <point x="242.6" y="-150.1"/>
      <point x="212.4" y="-150.1" type="curve" smooth="yes"/>
      <point x="139.4" y="-150.1" type="line"/>
    </contour>
    <component base="C"/>
  </outline>
</glyph>
<glyph name="Eth" format="2">
  <advance width="600.0"/>
  <unicode hex="00D0"/>
  <anchor x="256.0" y="0.0" name="bottom"/>
  <anchor x="314.0" y="365.0" name="center"/>
  <anchor x="372.0" y="730.0" name="top"/>
  <outline>
    <contour>
      <point x="10.0" y="332.0" type="line"/>
      <point x="290.0" y="332.0" type="line"/>
      <point x="290.0" y="413.0" type="line"/>
      <point x="10.0" y="413.0" type="line"/>
    </contour>
    <component base="D"/>
  </outline>
</glyph>
<glyph name="multiply" format="2">
  <advance width="600.0"/>
  <unicode hex="00D7"/>
  <outline>
    <contour>
      <point x="140.7" y="124.5" type="line"/>
      <point x="297.6" y="260.9" type="line"/>
      <point x="410.8" y="125.9" type="line"/>
      <point x="486.5" y="191.2" type="line"/>
      <point x="372.9" y="325.8" type="line"/>
      <point x="532.9" y="463.4" type="line"/>
      <point x="474.7" y="532.7" type="line"/>
      <point x="315.0" y="394.5" type="line"/>
      <point x="201.8" y="528.5" type="line"/>
      <point x="126.8" y="463.9" type="line"/>
      <point x="238.7" y="328.6" type="line"/>
      <point x="82.5" y="193.8" type="line"/>
    </contour>
  </outline>
</glyph>
<glyph name="Oslash" format="2">
  <advance width="600.0"/>
  <unicode hex="00D8"/>
  <anchor x="256.0" y="0.0" name="bottom"/>
  <anchor x="392.0" y="730.0" name="horn"/>
  <anchor x="372.0" y="730.0" name="top"/>
  <outline>
    <contour>
      <point x="-21.0" y="-40.0" type="line"/>
      <point x="74.6" y="-40.0" type="line"/>
      <point x="646.0" y="750.0" type="line"/>
      <point x="550.4" y="750.0" type="line"/>
    </contour>
    <contour>
      <point x="254.0" y="-10.0" type="curve" smooth="yes"/>
      <point x="389.8" y="-10.0"/>
      <point x="487.7" y="71.7"/>
      <point x="508.7" y="203.0" type="curve" smooth="yes"/>
      <point x="559.8" y="527.7" type="line" smooth="yes"/>
      <point x="580.1" y="658.3"/>
      <point x="508.8" y="740.0"/>
      <point x="373.0" y="740.0" type="curve" smooth="yes"/>
      <point x="237.2" y="740.0"/>
      <point x="140.0" y="658.3"/>
      <point x="119.0" y="527.0" type="curve" smooth="yes"/>
      <point x="67.9" y="203.0" type="line" smooth="yes"/>
      <point x="46.9" y="71.7"/>
      <point x="118.2" y="-10.0"/>
    </contour>
    <contour>
      <point x="269.4" y="85.7" type="curve" smooth="yes"/>
      <point x="196.5" y="85.7"/>
      <point x="162.6" y="127.5"/>
      <point x="174.4" y="203.0" type="curve" smooth="yes"/>
      <point x="225.5" y="527.0" type="line" smooth="yes"/>
      <point x="237.6" y="602.5"/>
      <point x="285.0" y="644.3"/>
      <point x="357.9" y="644.3" type="curve" smooth="yes"/>
      <point x="430.8" y="644.3"/>
      <point x="465.4" y="602.5"/>
      <point x="453.3" y="527.0" type="curve" smooth="yes"/>
      <point x="402.2" y="203.0" type="line" smooth="yes"/>
      <point x="390.4" y="127.5"/>
      <point x="342.3" y="85.7"/>
    </contour>
  </outline>
</glyph>
<glyph name="Thorn" format="2">
  <advance width="600.0"/>
  <unicode hex="00DE"/>
  <outline>
    <contour>
      <point x="40.0" y="0.0" type="line"/>
      <point x="148.0" y="0.0" type="line"/>
      <point x="176.1" y="175.5" type="line"/>
      <point x="319.2" y="175.5" type="line" smooth="yes"/>
      <point x="454.5" y="175.5"/>
      <point x="552.4" y="254.4"/>
      <point x="572.0" y="380.0" type="curve" smooth="yes"/>
      <point x="591.9" y="504.5"/>
      <point x="518.6" y="584.5"/>
      <point x="383.7" y="584.5" type="curve" smooth="yes"/>
      <point x="240.6" y="584.5" type="line"/>
      <point x="264.0" y="730.0" type="line"/>
      <point x="156.0" y="730.0" type="line"/>
    </contour>
    <contour>
      <point x="190.5" y="269.0" type="line"/>
      <point x="225.5" y="491.0" type="line"/>
      <point x="361.1" y="491.0" type="line" smooth="yes"/>
      <point x="434.7" y="491.0"/>
      <point x="473.0" y="449.2"/>
      <point x="461.9" y="380.0" type="curve" smooth="yes"/>
      <point x="450.8" y="310.8"/>
      <point x="400.4" y="269.0"/>
      <point x="326.1" y="269.0" type="curve" smooth="yes"/>
    </contour>
  </outline>
</glyph>
<glyph name="germandbls" format="2">
  <advance width="600.0"/>
  <unicode hex="00DF"/>
  <outline>
    <contour>
      <point x="-132.0" y="-180.0" type="line"/>
      <point x="-76.2" y="-180.0" type="line" smooth="yes"/>
      <point x="41.7" y="-180.0"/>
      <point x="123.5" y="-115.1"/>
      <point x="140.4" y="-9.8" type="curve" smooth="yes"/>
      <point x="226.0" y="528.6" type="line" smooth="yes"/>
      <point x="237.4" y="600.8"/>
      <point x="288.4" y="645.1"/>
      <point x="358.5" y="645.1" type="curve" smooth="yes"/>
      <point x="428.2" y="645.1"/>
      <point x="465.4" y="602.2"/>
      <point x="454.3" y="530.3" type="curve" smooth="yes"/>
      <point x="443.9" y="464.1"/>
      <point x="394.1" y="417.5"/>
      <point x="325.5" y="417.5" type="curve" smooth="yes"/>
      <point x="282.6" y="417.5" type="line"/>
      <point x="268.8" y="329.9" type="line"/>
      <point x="313.7" y="329.9" type="line" smooth="yes"/>
      <point x="389.3" y="329.9"/>
      <point x="428.9" y="285.9"/>
      <point x="416.8" y="214.0" type="curve" smooth="yes"/>
      <point x="405.4" y="142.1"/>
      <point x="351.9" y="94.9"/>
      <point x="276.7" y="94.9" type="curve" smooth="yes"/>
      <point x="223.4" y="94.9" type="line"/>
      <point x="208.3" y="0.0" type="line"/>
      <point x="270.1" y="0.0" type="line" smooth="yes"/>
      <point x="405.1" y="0.0"/>
      <point x="508.7" y="85.4"/>
      <point x="528.0" y="208.3" type="curve" smooth="yes"/>
      <point x="546.0" y="324.1"/>
      <point x="480.0" y="399.1"/>
      <point x="362.0" y="397.1" type="curve"/>
      <point x="359.7" y="382.1" type="line"/>
      <point x="471.4" y="380.7"/>
      <point x="552.7" y="449.1"/>
      <point x="568.7" y="551.3" type="curve" smooth="yes"/>
      <point x="587.7" y="670.4"/>
      <point x="508.8" y="740.0"/>
      <point x="377.5" y="740.0" type="curve" smooth="yes"/>
      <point x="241.7" y="740.0"/>
      <point x="142.8" y="655.6"/>
      <point x="122.5" y="528.6" type="curve" smooth="yes"/>
      <point x="37.2" y="-8.3" type="line" smooth="yes"/>
      <point x="29.2" y="-59.8"/>
      <point x="-4.699999999999999" y="-86.6"/>
      <point x="-62.2" y="-86.6" type="curve" smooth="yes"/>
      <point x="-117.2" y="-86.6" type="line"/>
    </contour>
  </outline>
</glyph>
<glyph name="ae" format="2">
  <advance width="600.0"/>
  <unicode hex="00E6"/>
  <anchor x="343.0" y="550.0" name="top"/>
  <outline>
    <contour>
      <point x="124.6" y="-10.0" type="curve" smooth="yes"/>
      <point x="208.4" y="-10.0"/>
      <point x="255.2" y="35.1"/>
      <point x="266.2" y="68.5" type="curve"/>
      <point x="271.4" y="68.5" type="line"/>
      <point x="271.4" y="35.1"/>
      <point x="298.4" y="-10.0"/>
      <point x="374.0" y="-10.0" type="curve" smooth="yes"/>
      <point x="461.0" y="-10.0"/>
      <point x="528.3" y="47.2"/>
      <point x="542.3" y="133.0" type="curve"/>
      <point x="448.3" y="133.0" type="line"/>
      <point x="441.9" y="95.5"/>
      <point x="414.9" y="73.0"/>
      <point x="376.1" y="73.0" type="curve" smooth="yes"/>
      <point x="339.4" y="73.0"/>
      <point x="319.5" y="102.1"/>
      <point x="326.6" y="147.0" type="curve" smooth="yes"/>
      <point x="343.2" y="253.5" type="line"/>
      <point x="561.0" y="253.5" type="line"/>
      <point x="584.6" y="403.0" type="line" smooth="yes"/>
      <point x="600.0" y="499.3"/>
      <point x="554.1" y="560.0"/>
      <point x="465.0" y="560.0" type="curve" smooth="yes"/>
      <point x="390.1" y="560.0"/>
      <point x="347.7" y="514.9"/>
      <point x="337.0" y="481.5" type="curve"/>
      <point x="331.8" y="481.5" type="line"/>
      <point x="331.1" y="514.9"/>
      <point x="302.7" y="560.0"/>
      <point x="225.3" y="560.0" type="curve" smooth="yes"/>
      <point x="142.9" y="560.0"/>
      <point x="79.1" y="501.6"/>
      <point x="65.2" y="414.0" type="curve"/>
      <point x="159.2" y="414.0" type="line"/>
      <point x="165.5" y="452.6"/>
      <point x="191.4" y="477.0"/>
      <point x="227.3" y="477.0" type="curve" smooth="yes"/>
      <point x="267.9" y="477.0"/>
      <point x="283.7" y="452.8"/>
      <point x="275.9" y="402.3" type="curve" smooth="yes"/>
      <point x="263.6" y="326.5" type="line"/>
      <point x="198.9" y="326.5" type="line" smooth="yes"/>
      <point x="104.1" y="326.5"/>
      <point x="34.0" y="272.6"/>
      <point x="21.0" y="190.0" type="curve" smooth="yes"/>
      <point x="12.3" y="133.0" type="line" smooth="yes"/>
      <point x="-1.7" y="45.8"/>
      <point x="41.9" y="-10.0"/>
    </contour>
    <contour>
      <point x="160.6" y="73.0" type="curve" smooth="yes"/>
      <point x="123.3" y="73.0"/>
      <point x="103.4" y="95.8"/>
      <point x="109.8" y="133.0" type="curve" smooth="yes"/>
      <point x="118.5" y="190.0" type="line" smooth="yes"/>
      <point x="124.5" y="229.4"/>
      <point x="151.0" y="253.5"/>
      <point x="189.0" y="253.5" type="curve" smooth="yes"/>
      <point x="252.3" y="253.5" type="line"/>
      <point x="235.7" y="147.0" type="line" smooth="yes"/>
      <point x="228.6" y="102.1"/>
      <point x="199.1" y="73.0"/>
    </contour>
    <contour>
      <point x="354.5" y="326.5" type="line"/>
      <point x="366.8" y="403.0" type="line" smooth="yes"/>
      <point x="373.9" y="447.9"/>
      <point x="400.9" y="477.0"/>
      <point x="439.3" y="477.0" type="curve" smooth="yes"/>
      <point x="478.8" y="477.0"/>
      <point x="498.0" y="448.2"/>
      <point x="490.6" y="403.0" type="curve" smooth="yes"/>
      <point x="478.3" y="326.5" type="line"/>
    </contour>
  </outline>
</glyph>
<glyph name="ccedilla" format="2">
  <advance width="600.0"/>
  <unicode hex="00E7"/>
  <anchor x="259.7" y="0.0" name="_bottom"/>
  <anchor x="259.7" y="0.0" name="bottom"/>
  <anchor x="346.7" y="550.0" name="top"/>
  <outline>
    <contour>
      <point x="127.0" y="-209.6" type="line"/>
      <point x="219.5" y="-209.6" type="line" smooth="yes"/>
      <point x="295.1" y="-209.6"/>
      <point x="351.8" y="-170.8"/>
      <point x="359.1" y="-123.9" type="curve" smooth="yes"/>
      <point x="367.7" y="-69.2"/>
      <point x="300.5" y="-41.6"/>
      <point x="246.1" y="-36.2" type="curve"/>
      <point x="276.2" y="23.0" type="line"/>
      <point x="214.4" y="23.0" type="line"/>
      <point x="164.7" y="-69.0" type="line"/>
      <point x="233.5" y="-69.0"/>
      <point x="270.0" y="-88.7"/>
      <point x="265.7" y="-114.1" type="curve" smooth="yes"/>
      <point x="263.0" y="-131.5"/>
      <point x="239.8" y="-150.1"/>
      <point x="209.6" y="-150.1" type="curve" smooth="yes"/>
      <point x="136.6" y="-150.1" type="line"/>
    </contour>
    <component base="c"/>
  </outline>
</glyph>
<glyph name="eth" format="2">
  <advance width="600.0"/>
  <unicode hex="00F0"/>
  <outline>
    <contour>
      <point x="253.9" y="-7.0" type="curve" smooth="yes"/>
      <point x="398.9" y="-7.0"/>
      <point x="508.6" y="86.9"/>
      <point x="531.5" y="231.4" type="curve" smooth="yes"/>
      <point x="545.2" y="316.7"/>
      <point x="524.3" y="415.7"/>
      <point x="470.2" y="506.2" type="curve" smooth="yes"/>
      <point x="412.4" y="604.0" type="line"/>
      <point x="530.3" y="649.4" type="line"/>
      <point x="543.2" y="738.6" type="line"/>
      <point x="372.0" y="673.7" type="line"/>
      <point x="340.7" y="730.0" type="line"/>
      <point x="228.3" y="730.0" type="line"/>
      <point x="282.7" y="635.7" type="line"/>
      <point x="162.2" y="586.3" type="line"/>
      <point x="148.6" y="497.5" type="line"/>
      <point x="322.8" y="565.7" type="line"/>
      <point x="370.1" y="482.7" type="line" smooth="yes"/>
      <point x="403.5" y="424.6"/>
      <point x="417.1" y="389.1"/>
      <point x="419.3" y="378.5" type="curve"/>
      <point x="407.7" y="378.5" type="line"/>
      <point x="395.8" y="405.8"/>
      <point x="356.8" y="442.0"/>
      <point x="295.5" y="442.0" type="curve" smooth="yes"/>
      <point x="170.3" y="442.0"/>
      <point x="72.9" y="354.0"/>
      <point x="51.9" y="221.3" type="curve" smooth="yes"/>
      <point x="30.6" y="84.2"/>
      <point x="110.9" y="-7.0"/>
    </contour>
    <contour>
      <point x="269.0" y="86.5" type="curve" smooth="yes"/>
      <point x="190.8" y="86.5"/>
      <point x="147.1" y="140.0"/>
      <point x="159.9" y="221.0" type="curve" smooth="yes"/>
      <point x="173.0" y="302.0"/>
      <point x="233.5" y="355.5"/>
      <point x="311.7" y="355.5" type="curve" smooth="yes"/>
      <point x="391.0" y="355.5"/>
      <point x="435.0" y="301.7"/>
      <point x="421.9" y="221.0" type="curve" smooth="yes"/>
      <point x="409.1" y="140.0"/>
      <point x="348.6" y="86.5"/>
    </contour>
  </outline>
</glyph>
<glyph name="divide" format="2">
  <advance width="600.0"/>
  <unicode hex="00F7"/>
  <outline>
    <contour>
      <point x="101.5" y="284.5" type="line"/>
      <point x="501.5" y="284.5" type="line"/>
      <point x="516.5" y="379.0" type="line"/>
      <point x="116.5" y="379.0" type="line"/>
    </contour>
    <contour>
      <point x="329.3" y="460.0" type="curve" smooth="yes"/>
      <point x="382.3" y="460.0"/>
      <point x="422.7" y="491.8"/>
      <point x="430.0" y="539.5" type="curve" smooth="yes"/>
      <point x="437.6" y="587.2"/>
      <point x="407.5" y="619.0"/>
      <point x="354.5" y="619.0" type="curve" smooth="yes"/>
      <point x="301.5" y="619.0"/>
      <point x="261.4" y="587.2"/>
      <point x="253.8" y="539.5" type="curve" smooth="yes"/>
      <point x="246.5" y="491.8"/>
      <point x="276.3" y="460.0"/>
    </contour>
    <contour>
      <point x="263.5" y="44.5" type="curve" smooth="yes"/>
      <point x="316.5" y="44.5"/>
      <point x="356.9" y="76.3"/>
      <point x="364.2" y="124.0" type="curve" smooth="yes"/>
      <point x="371.8" y="171.7"/>
      <point x="342.0" y="203.5"/>
      <point x="289.0" y="203.5" type="curve" smooth="yes"/>
      <point x="236.0" y="203.5"/>
      <point x="195.6" y="171.7"/>
      <point x="188.0" y="124.0" type="curve" smooth="yes"/>
      <point x="180.7" y="76.3"/>
      <point x="210.5" y="44.5"/>
    </contour>
  </outline>
</glyph>
<glyph name="oslash" format="2">
  <advance width="600.0"/>
  <unicode hex="00F8"/>
  <anchor x="256.0" y="0.0" name="bottom"/>
  <anchor x="371.4" y="550.0" name="horn"/>
  <anchor x="343.0" y="550.0" name="top"/>
  <outline>
    <contour>
      <point x="-17.0" y="-30.0" type="line"/>
      <point x="81.9" y="-30.0" type="line"/>
      <point x="617.0" y="590.0" type="line"/>
      <point x="517.4" y="590.0" type="line"/>
    </contour>
    <contour>
      <point x="254.0" y="-10.0" type="curve" smooth="yes"/>
      <point x="389.8" y="-10.0"/>
      <point x="487.7" y="71.7"/>
      <point x="508.7" y="203.0" type="curve" smooth="yes"/>
      <point x="531.8" y="347.7" type="line" smooth="yes"/>
      <point x="552.8" y="478.3"/>
      <point x="480.8" y="560.0"/>
      <point x="345.0" y="560.0" type="curve" smooth="yes"/>
      <point x="209.2" y="560.0"/>
      <point x="110.6" y="478.3"/>
      <point x="90.3" y="347.0" type="curve" smooth="yes"/>
      <point x="67.9" y="203.0" type="line" smooth="yes"/>
      <point x="47.6" y="71.7"/>
      <point x="118.2" y="-10.0"/>
    </contour>
    <contour>
      <point x="269.4" y="85.0" type="curve" smooth="yes"/>
      <point x="194.5" y="85.0"/>
      <point x="157.6" y="128.8"/>
      <point x="169.4" y="203.0" type="curve" smooth="yes"/>
      <point x="191.8" y="347.0" type="line" smooth="yes"/>
      <point x="203.6" y="421.2"/>
      <point x="254.7" y="465.0"/>
      <point x="329.6" y="465.0" type="curve" smooth="yes"/>
      <point x="404.5" y="465.0"/>
      <point x="441.4" y="421.2"/>
      <point x="429.6" y="347.0" type="curve" smooth="yes"/>
      <point x="407.2" y="203.0" type="line" smooth="yes"/>
      <point x="395.4" y="128.8"/>
      <point x="344.3" y="85.0"/>
    </contour>
  </outline>
</glyph>
<glyph name="thorn" format="2">
  <advance width="600.0"/>
  <unicode hex="00FE"/>
  <anchor x="252.5" y="0.0" name="bottom"/>
  <anchor x="368.5" y="730.0" name="top"/>
  <outline>
    <contour>
      <point x="7.7" y="-180.0" type="line"/>
      <point x="114.2" y="-180.0" type="line"/>
      <point x="151.9" y="56.3" type="line"/>
      <point x="45.4" y="56.3" type="line"/>
    </contour>
    <component base="b" xOffset="-3.5"/>
  </outline>
</glyph>
<glyph name="Aogonek" format="2">
  <advance width="600.0"/>
  <unicode hex="0104"/>
  <anchor x="256.0" y="0.0" name="bottom"/>
  <anchor x="447.5" y="0.0" name="ogonek"/>
  <anchor x="372.0" y="730.0" name="top"/>
  <outline>
    <contour>
      <point x="416.9" y="-209.6" type="curve" smooth="yes"/>
      <point x="503.9" y="-209.6" type="line"/>
      <point x="515.3" y="-136.1" type="line"/>
      <point x="452.6" y="-136.1" type="line" smooth="yes"/>
      <point x="420.1" y="-136.1"/>
      <point x="404.0" y="-116.3"/>
      <point x="407.7" y="-90.0" type="curve" smooth="yes"/>
      <point x="412.1" y="-65.3"/>
      <point x="433.6" y="-37.8"/>
      <point x="478.3" y="-4.7" type="curve"/>
      <point x="498.5" y="10.3" type="line"/>
      <point x="420.2" y="10.3" type="line"/>
      <point x="349.3" y="-29.5"/>
      <point x="314.4" y="-70.8"/>
      <point x="308.1" y="-111.5" type="curve" smooth="yes"/>
      <point x="298.5" y="-168.8"/>
      <point x="340.8" y="-209.6"/>
    </contour>
    <component base="A"/>
  </outline>
</glyph>
<glyph name="aogonek" format="2">
  <advance width="600.0"/>
  <unicode hex="0105"/>
  <anchor x="261.0" y="0.0" name="bottom"/>
  <anchor x="411.0" y="0.0" name="ogonek"/>
  <anchor x="348.0" y="550.0" name="top"/>
  <outline>
    <contour>
      <point x="404.1" y="-209.6" type="curve" smooth="yes"/>
      <point x="491.1" y="-209.6" type="line"/>
      <point x="502.5" y="-136.1" type="line"/>
      <point x="439.8" y="-136.1" type="line" smooth="yes"/>
      <point x="407.3" y="-136.1"/>
      <point x="391.2" y="-116.3"/>
      <point x="394.9" y="-90.0" type="curve" smooth="yes"/>
      <point x="399.3" y="-65.3"/>
      <point x="420.8" y="-38.5"/>
      <point x="472.4" y="0.0" type="curve"/>
      <point x="407.4" y="10.3" type="line"/>
      <point x="336.5" y="-29.5"/>
      <point x="301.6" y="-70.8"/>
      <point x="295.3" y="-111.5" type="curve" smooth="yes"/>
      <point x="285.7" y="-168.8"/>
      <point x="328.0" y="-209.6"/>
    </contour>
    <component base="a"/>
  </outline>
</glyph>
<glyph name="dcaron" format="2">
  <advance width="600.0"/>
  <unicode hex="010F"/>
  <outline>
    <contour>
      <point x="551.5" y="550.0" type="line"/>
      <point x="637.5" y="550.0" type="line"/>
      <point x="676.5" y="730.0" type="line"/>
      <point x="580.5" y="730.0" type="line"/>
    </contour>
    <contour>
      <point x="174.5" y="-10.0" type="curve" smooth="yes"/>
      <point x="255.7" y="-10.0"/>
      <point x="316.1" y="44.5"/>
      <point x="329.4" y="130.2" type="curve"/>
      <point x="302.7" y="105.0" type="line"/>
      <point x="325.8" y="105.0" type="line"/>
      <point x="308.8" y="0.0" type="line"/>
      <point x="412.3" y="0.0" type="line"/>
      <point x="528.3" y="730.0" type="line"/>
      <point x="423.3" y="730.0" type="line"/>
      <point x="397.9" y="573.0" type="line"/>
      <point x="380.2" y="445.0" type="line"/>
      <point x="355.7" y="445.0" type="line"/>
      <point x="375.2" y="419.8" type="line"/>
      <point x="388.8" y="505.5"/>
      <point x="346.7" y="560.0"/>
      <point x="265.5" y="560.0" type="curve" smooth="yes"/>
      <point x="164.8" y="560.0"/>
      <point x="88.1" y="481.8"/>
      <point x="68.8" y="357.3" type="curve" smooth="yes"/>
      <point x="42.7" y="192.3" type="line" smooth="yes"/>
      <point x="23.1" y="68.2"/>
      <point x="73.8" y="-10.0"/>
    </contour>
    <contour>
      <point x="226.5" y="80.6" type="curve" smooth="yes"/>
      <point x="165.9" y="80.6"/>
      <point x="136.6" y="124.0"/>
      <point x="148.4" y="198.0" type="curve" smooth="yes"/>
      <point x="172.8" y="352.3" type="line" smooth="yes"/>
      <point x="184.6" y="426.0"/>
      <point x="227.3" y="469.4"/>
      <point x="287.9" y="469.4" type="curve" smooth="yes"/>
      <point x="346.7" y="469.4"/>
      <point x="374.8" y="426.0"/>
      <point x="363.0" y="352.3" type="curve" smooth="yes"/>
      <point x="338.6" y="198.0" type="line" smooth="yes"/>
      <point x="326.8" y="124.0"/>
      <point x="285.3" y="80.6"/>
    </contour>
  </outline>
</glyph>
<glyph name="Dcroat" format="2">
  <advance width="600.0"/>
  <unicode hex="0110"/>
  <anchor x="256.0" y="0.0" name="bottom"/>
  <anchor x="314.0" y="365.0" name="center"/>
  <anchor x="372.0" y="730.0" name="top"/>
  <outline>
    <contour>
      <point x="10.0" y="332.0" type="line"/>
      <point x="290.0" y="332.0" type="line"/>
      <point x="302.9" y="413.0" type="line"/>
      <point x="22.9" y="413.0" type="line"/>
    </contour>
    <component base="D"/>
  </outline>
</glyph>
<glyph name="dcroat" format="2">
  <advance width="600.0"/>
  <unicode hex="0111"/>
  <outline>
    <contour>
      <point x="68.3" y="197.3" type="line" smooth="yes"/>
      <point x="48.3" y="69.5"/>
      <point x="104.2" y="-10.0"/>
      <point x="214.5" y="-10.0" type="curve" smooth="yes"/>
      <point x="297.0" y="-10.0"/>
      <point x="357.4" y="32.7"/>
      <point x="378.6" y="105.0" type="curve"/>
      <point x="380.9" y="105.0" type="line"/>
      <point x="363.9" y="0.0" type="line"/>
      <point x="470.4" y="0.0" type="line"/>
      <point x="559.8" y="565.5" type="line"/>
      <point x="645.4" y="565.5" type="line"/>
      <point x="658.0" y="645.0" type="line"/>
      <point x="572.4" y="645.0" type="line"/>
      <point x="586.4" y="730.0" type="line"/>
      <point x="478.4" y="730.0" type="line"/>
      <point x="464.4" y="645.0" type="line"/>
      <point x="305.0" y="645.0" type="line"/>
      <point x="292.4" y="565.5" type="line"/>
      <point x="451.8" y="565.5" type="line"/>
      <point x="443.7" y="513.0" type="line"/>
      <point x="426.3" y="385.0" type="line"/>
      <point x="423.3" y="385.0" type="line"/>
      <point x="424.7" y="456.6"/>
      <point x="376.6" y="500.0"/>
      <point x="295.5" y="500.0" type="curve" smooth="yes"/>
      <point x="184.5" y="500.0"/>
      <point x="103.7" y="420.2"/>
      <point x="83.4" y="292.0" type="curve" smooth="yes"/>
    </contour>
    <contour>
      <point x="177.3" y="203.0" type="curve" smooth="yes"/>
      <point x="190.4" y="287.0" type="line" smooth="yes"/>
      <point x="202.2" y="363.6"/>
      <point x="248.3" y="406.4"/>
      <point x="318.3" y="406.4" type="curve" smooth="yes"/>
      <point x="386.6" y="406.4"/>
      <point x="419.6" y="362.2"/>
      <point x="407.8" y="287.0" type="curve" smooth="yes"/>
      <point x="394.7" y="203.0" type="line" smooth="yes"/>
      <point x="382.9" y="127.5"/>
      <point x="335.4" y="83.6"/>
      <point x="267.1" y="83.6" type="curve" smooth="yes"/>
      <point x="197.1" y="83.6"/>
      <point x="164.8" y="126.1"/>
    </contour>
  </outline>
</glyph>
<glyph name="Eogonek" format="2">
  <advance width="600.0"/>
  <unicode hex="0118"/>
  <anchor x="320.0" y="0.0" name="bottom"/>
  <anchor x="387.0" y="0.0" name="ogonek"/>
  <anchor x="392.0" y="730.0" name="top"/>
  <anchor x="92.0" y="730.0" name="topleft"/>
  <outline>
    <contour>
      <point x="363.5" y="-209.6" type="curve" smooth="yes"/>
      <point x="450.5" y="-209.6" type="line"/>
      <point x="461.9" y="-136.1" type="line"/>
      <point x="399.2" y="-136.1" type="line" smooth="yes"/>
      <point x="366.7" y="-136.1"/>
      <point x="350.6" y="-116.3"/>
      <point x="354.3" y="-90.0" type="curve" smooth="yes"/>
      <point x="358.7" y="-65.3"/>
      <point x="380.2" y="-37.8"/>
      <point x="424.9" y="-4.7" type="curve"/>
      <point x="445.1" y="10.3" type="line"/>
      <point x="366.8" y="10.3" type="line"/>
      <point x="295.9" y="-29.5"/>
      <point x="261.0" y="-70.8"/>
      <point x="254.7" y="-111.5" type="curve" smooth="yes"/>
      <point x="245.1" y="-168.8"/>
      <point x="287.4" y="-209.6"/>
    </contour>
    <component base="E"/>
  </outline>
</glyph>
<glyph name="eogonek" format="2">
  <advance width="600.0"/>
  <unicode hex="0119"/>
  <anchor x="343.0" y="550.0" name="top"/>
  <outline>
    <contour>
      <point x="291.9" y="-209.6" type="curve" smooth="yes"/>
      <point x="378.9" y="-209.6" type="line"/>
      <point x="390.3" y="-136.1" type="line"/>
      <point x="327.6" y="-136.1" type="line" smooth="yes"/>
      <point x="295.1" y="-136.1"/>
      <point x="279.0" y="-116.3"/>
      <point x="282.7" y="-90.0" type="curve" smooth="yes"/>
      <point x="287.1" y="-65.3"/>
      <point x="308.6" y="-37.8"/>
      <point x="353.3" y="-4.7" type="curve" smooth="yes"/>
      <point x="383.6" y="18.5" type="line"/>
      <point x="437.2" y="44.7"/>
      <point x="478.6" y="87.8"/>
      <point x="496.1" y="143.0" type="curve"/>
      <point x="389.0" y="143.0" type="line"/>
      <point x="372.2" y="100.3"/>
      <point x="331.4" y="77.7"/>
      <point x="269.0" y="77.7" type="curve" smooth="yes"/>
      <point x="191.5" y="77.7"/>
      <point x="159.3" y="121.4"/>
      <point x="172.4" y="203.0" type="curve" smooth="yes"/>
      <point x="179.5" y="249.1" type="line"/>
      <point x="515.8" y="249.1" type="line"/>
      <point x="531.1" y="347.0" type="line" smooth="yes"/>
      <point x="552.1" y="475.5"/>
      <point x="480.1" y="560.0"/>
      <point x="345.3" y="560.0" type="curve" smooth="yes"/>
      <point x="210.2" y="560.0"/>
      <point x="111.3" y="475.5"/>
      <point x="90.3" y="347.0" type="curve" smooth="yes"/>
      <point x="67.9" y="203.0" type="line" smooth="yes"/>
      <point x="47.6" y="74.5"/>
      <point x="119.2" y="-10.0"/>
      <point x="254.3" y="-10.0" type="curve" smooth="yes"/>
      <point x="266.9" y="-10.0"/>
      <point x="277.5" y="-4.3"/>
      <point x="280.8" y="1.6999999999999993" type="curve"/>
      <point x="221.5" y="-37.2"/>
      <point x="188.0" y="-76.4"/>
      <point x="183.1" y="-111.5" type="curve" smooth="yes"/>
      <point x="173.5" y="-168.8"/>
      <point x="215.8" y="-209.6"/>
    </contour>
    <contour>
      <point x="418.4" y="291.8" type="line"/>
      <point x="454.2" y="322.8" type="line"/>
      <point x="191.1" y="322.2" type="line"/>
      <point x="194.8" y="347.0" type="line" smooth="yes"/>
      <point x="207.9" y="428.3"/>
      <point x="254.3" y="473.6"/>
      <point x="331.5" y="473.6" type="curve" smooth="yes"/>
      <point x="408.4" y="473.6"/>
      <point x="439.7" y="428.9"/>
      <point x="426.6" y="347.6" type="curve" smooth="yes"/>
    </contour>
  </outline>
</glyph>
<glyph name="Iogonek" format="2">
  <advance width="600.0"/>
  <unicode hex="012E"/>
  <anchor x="256.0" y="0.0" name="bottom"/>
  <anchor x="280.0" y="0.0" name="ogonek"/>
  <anchor x="372.0" y="730.0" name="top"/>
  <anchor x="92.0" y="730.0" name="topleft"/>
  <outline>
    <contour>
      <point x="226.5" y="-209.6" type="curve" smooth="yes"/>
      <point x="313.5" y="-209.6" type="line"/>
      <point x="324.9" y="-136.1" type="line"/>
      <point x="262.2" y="-136.1" type="line" smooth="yes"/>
      <point x="229.7" y="-136.1"/>
      <point x="213.6" y="-116.3"/>
      <point x="217.3" y="-90.0" type="curve" smooth="yes"/>
      <point x="221.7" y="-65.3"/>
      <point x="243.2" y="-37.8"/>
      <point x="287.9" y="-4.7" type="curve"/>
      <point x="308.1" y="10.3" type="line"/>
      <point x="229.8" y="10.3" type="line"/>
      <point x="158.9" y="-29.5"/>
      <point x="124.0" y="-70.8"/>
      <point x="117.7" y="-111.5" type="curve" smooth="yes"/>
      <point x="108.1" y="-168.8"/>
      <point x="150.4" y="-209.6"/>
    </contour>
    <component base="I"/>
  </outline>
</glyph>
<glyph name="iogonek" format="2">
  <advance width="600.0"/>
  <unicode hex="012F"/>
  <anchor x="272.5" y="0.0" name="bottom"/>
  <anchor x="290.0" y="0.0" name="ogonek"/>
  <anchor x="396.1" y="781.8" name="top"/>
  <outline>
    <contour>
      <point x="243.0" y="-209.6" type="curve" smooth="yes"/>
      <point x="330.0" y="-209.6" type="line"/>
      <point x="341.4" y="-136.1" type="line"/>
      <point x="278.7" y="-136.1" type="line" smooth="yes"/>
      <point x="246.2" y="-136.1"/>
      <point x="230.1" y="-116.3"/>
      <point x="233.8" y="-90.0" type="curve" smooth="yes"/>
      <point x="238.2" y="-65.3"/>
      <point x="259.7" y="-37.8"/>
      <point x="304.4" y="-4.7" type="curve"/>
      <point x="324.6" y="10.3" type="line"/>
      <point x="246.3" y="10.3" type="line"/>
      <point x="175.4" y="-29.5"/>
      <point x="140.5" y="-70.8"/>
      <point x="134.2" y="-111.5" type="curve" smooth="yes"/>
      <point x="124.6" y="-168.8"/>
      <point x="166.9" y="-209.6"/>
    </contour>
    <component base="idotless"/>
    <component base="dotaccentcomb" xOffset="616.5"/>
  </outline>
</glyph>
<glyph name="idotless" format="2">
  <advance width="600.0"/>
  <unicode hex="0131"/>
  <anchor x="272.5" y="0.0" name="bottom"/>
  <anchor x="290.0" y="0.0" name="ogonek"/>
  <anchor x="359.5" y="550.0" name="top"/>
  <outline>
    <contour>
      <point x="33.0" y="0.0" type="line"/>
      <point x="509.0" y="0.0" type="line"/>
      <point x="524.7" y="98.2" type="line"/>
      <point x="347.2" y="98.2" type="line"/>
      <point x="418.5" y="550.0" type="line"/>
      <point x="145.0" y="550.0" type="line"/>
      <point x="129.6" y="452.1" type="line"/>
      <point x="298.1" y="452.1" type="line"/>
      <point x="242.2" y="98.2" type="line"/>
      <point x="48.7" y="98.2" type="line"/>
    </contour>
  </outline>
</glyph>
<glyph name="Lslash" format="2">
  <advance width="600.0"/>
  <unicode hex="0141"/>
  <anchor x="299.0" y="0.0" name="bottom"/>
  <anchor x="317.0" y="365.0" name="center"/>
  <anchor x="258.7" y="730.0" name="top"/>
  <anchor x="655.0" y="730.0" name="topright"/>
  <outline>
    <contour>
      <point x="12.0" y="225.7" type="line"/>
      <point x="422.3" y="462.0" type="line"/>
      <point x="438.0" y="564.3" type="line"/>
      <point x="28.0" y="328.0" type="line"/>
    </contour>
    <component base="L" xOffset="3.0"/>
  </outline>
</glyph>
<glyph name="Eng" format="2">
  <advance width="600.0"/>
  <unicode hex="014A"/>
  <outline>
    <contour>
      <point x="170.0" y="-180.0" type="line"/>
      <point x="230.5" y="-180.0" type="line" smooth="yes"/>
      <point x="359.6" y="-180.0"/>
      <point x="458.6" y="-100.9"/>
      <point x="477.6" y="18.0" type="curve" smooth="yes"/>
      <point x="591.0" y="730.0" type="line"/>
      <point x="490.5" y="730.0" type="line"/>
      <point x="443.5" y="435.7" type="line" smooth="yes"/>
      <point x="431.8" y="363.9"/>
      <point x="423.5" y="259.3"/>
      <point x="419.2" y="202.4" type="curve"/>
      <point x="286.6" y="730.0" type="line"/>
      <point x="153.0" y="730.0" type="line"/>
      <point x="37.0" y="0.0" type="line"/>
      <point x="137.5" y="0.0" type="line"/>
      <point x="198.3" y="383.0" type="line" smooth="yes"/>
      <point x="210.0" y="454.8"/>
      <point x="219.0" y="553.5"/>
      <point x="223.0" y="607.0" type="curve"/>
      <point x="370.2" y="22.8" type="line"/>
      <point x="360.4" y="-40.6"/>
      <point x="314.5" y="-79.1"/>
      <point x="249.5" y="-79.1" type="curve" smooth="yes"/>
      <point x="186.0" y="-79.1" type="line"/>
    </contour>
  </outline>
</glyph>
<glyph name="eng" format="2">
  <advance width="600.0"/>
  <unicode hex="014B"/>
  <outline>
    <contour>
      <point x="168.8" y="-180.0" type="line"/>
      <point x="227.9" y="-180.0" type="line" smooth="yes"/>
      <point x="357.0" y="-180.0"/>
      <point x="456.7" y="-100.9"/>
      <point x="475.0" y="18.0" type="curve" smooth="yes"/>
      <point x="530.5" y="365.5" type="line" smooth="yes"/>
      <point x="549.1" y="484.6"/>
      <point x="492.1" y="560.0"/>
      <point x="383.0" y="560.0" type="curve" smooth="yes"/>
      <point x="291.3" y="560.0"/>
      <point x="228.8" y="507.9"/>
      <point x="214.5" y="419.8" type="curve"/>
      <point x="244.6" y="445.0" type="line"/>
      <point x="218.1" y="445.0" type="line"/>
      <point x="235.1" y="550.0" type="line"/>
      <point x="128.6" y="550.0" type="line"/>
      <point x="41.6" y="0.0" type="line"/>
      <point x="149.6" y="0.0" type="line"/>
      <point x="204.3" y="347.0" type="line" smooth="yes"/>
      <point x="216.8" y="423.6"/>
      <point x="264.0" y="467.8"/>
      <point x="332.4" y="467.8" type="curve" smooth="yes"/>
      <point x="399.0" y="467.8"/>
      <point x="431.6" y="425.7"/>
      <point x="420.5" y="354.0" type="curve" smooth="yes"/>
      <point x="367.6" y="22.8" type="line" smooth="yes"/>
      <point x="357.8" y="-40.6"/>
      <point x="311.9" y="-79.1"/>
      <point x="246.9" y="-79.1" type="curve" smooth="yes"/>
      <point x="184.8" y="-79.1" type="line"/>
    </contour>
  </outline>
</glyph>
<glyph name="OE" format="2">
  <advance width="600.0"/>
  <unicode hex="0152"/>
  <outline>
    <contour>
      <point x="143.3" y="-8.2" type="curve" smooth="yes"/>
      <point x="213.2" y="-8.2"/>
      <point x="255.6" y="42.8"/>
      <point x="268.3" y="81.8" type="curve"/>
      <point x="273.3" y="81.8" type="line"/>
      <point x="260.0" y="0.0" type="line"/>
      <point x="532.5" y="0.0" type="line"/>
      <point x="547.6" y="95.2" type="line"/>
      <point x="375.4" y="95.2" type="line"/>
      <point x="412.1" y="328.5" type="line"/>
      <point x="559.3" y="328.5" type="line"/>
      <point x="574.4" y="423.7" type="line"/>
      <point x="427.2" y="423.7" type="line"/>
      <point x="461.2" y="635.1" type="line"/>
      <point x="633.4" y="635.1" type="line"/>
      <point x="648.5" y="730.0" type="line"/>
      <point x="376.0" y="730.0" type="line"/>
      <point x="363.0" y="650.0" type="line"/>
      <point x="358.0" y="650.0" type="line"/>
      <point x="358.3" y="689.0"/>
      <point x="331.9" y="740.0"/>
      <point x="262.0" y="740.0" type="curve" smooth="yes"/>
      <point x="167.5" y="740.0"/>
      <point x="98.7" y="666.7"/>
      <point x="79.7" y="547.3" type="curve" smooth="yes"/>
      <point x="22.6" y="184.5" type="line" smooth="yes"/>
      <point x="3.3000000000000003" y="65.1"/>
      <point x="48.8" y="-8.2"/>
    </contour>
    <contour>
      <point x="191.5" y="85.3" type="curve" smooth="yes"/>
      <point x="141.8" y="85.3"/>
      <point x="117.8" y="123.1"/>
      <point x="127.6" y="184.5" type="curve" smooth="yes"/>
      <point x="184.7" y="547.3" type="line" smooth="yes"/>
      <point x="194.5" y="608.7"/>
      <point x="231.0" y="646.5"/>
      <point x="280.7" y="646.5" type="curve" smooth="yes"/>
      <point x="330.7" y="646.5"/>
      <point x="354.7" y="609.0"/>
      <point x="344.9" y="547.3" type="curve" smooth="yes"/>
      <point x="287.8" y="184.5" type="line" smooth="yes"/>
      <point x="277.7" y="122.8"/>
      <point x="241.5" y="85.3"/>
    </contour>
  </outline>
</glyph>
<glyph name="oe" format="2">
  <advance width="600.0"/>
  <unicode hex="0153"/>
  <outline>
    <contour>
      <point x="134.0" y="-10.0" type="curve" smooth="yes"/>
      <point x="212.2" y="-10.0"/>
      <point x="255.2" y="35.1"/>
      <point x="264.1" y="68.5" type="curve"/>
      <point x="269.3" y="68.5" type="line"/>
      <point x="267.9" y="35.1"/>
      <point x="294.9" y="-10.0"/>
      <point x="374.0" y="-10.0" type="curve" smooth="yes"/>
      <point x="451.9" y="-10.0"/>
      <point x="517.1" y="44.4"/>
      <point x="539.5" y="129.5" type="curve"/>
      <point x="445.5" y="129.5" type="line"/>
      <point x="435.6" y="94.8"/>
      <point x="408.6" y="73.0"/>
      <point x="376.1" y="73.0" type="curve" smooth="yes"/>
      <point x="338.7" y="73.0"/>
      <point x="319.5" y="101.4"/>
      <point x="326.6" y="147.0" type="curve" smooth="yes"/>
      <point x="343.2" y="250.0" type="line"/>
      <point x="561.0" y="250.0" type="line"/>
      <point x="584.6" y="403.0" type="line" smooth="yes"/>
      <point x="600.0" y="498.6"/>
      <point x="553.4" y="560.0"/>
      <point x="465.0" y="560.0" type="curve" smooth="yes"/>
      <point x="385.9" y="560.0"/>
      <point x="343.5" y="514.9"/>
      <point x="334.9" y="481.5" type="curve"/>
      <point x="329.7" y="481.5" type="line"/>
      <point x="330.8" y="514.9"/>
      <point x="303.2" y="560.0"/>
      <point x="225.0" y="560.0" type="curve" smooth="yes"/>
      <point x="136.6" y="560.0"/>
      <point x="70.0" y="498.6"/>
      <point x="54.6" y="403.0" type="curve" smooth="yes"/>
      <point x="14.4" y="147.0" type="line" smooth="yes"/>
      <point x="-1.0" y="51.4"/>
      <point x="45.6" y="-10.0"/>
    </contour>
    <contour>
      <point x="160.0" y="73.0" type="curve" smooth="yes"/>
      <point x="121.2" y="73.0"/>
      <point x="101.3" y="101.4"/>
      <point x="108.4" y="147.0" type="curve" smooth="yes"/>
      <point x="148.6" y="403.0" type="line" smooth="yes"/>
      <point x="155.7" y="448.6"/>
      <point x="184.4" y="477.0"/>
      <point x="223.2" y="477.0" type="curve" smooth="yes"/>
      <point x="260.6" y="477.0"/>
      <point x="279.5" y="448.9"/>
      <point x="272.4" y="403.0" type="curve" smooth="yes"/>
      <point x="232.2" y="147.0" type="line" smooth="yes"/>
      <point x="225.1" y="101.1"/>
      <point x="197.4" y="73.0"/>
    </contour>
    <contour>
      <point x="354.5" y="325.1" type="line"/>
      <point x="366.8" y="403.0" type="line" smooth="yes"/>
      <point x="373.9" y="448.6"/>
      <point x="401.6" y="477.0"/>
      <point x="439.3" y="477.0" type="curve" smooth="yes"/>
      <point x="478.1" y="477.0"/>
      <point x="497.7" y="448.9"/>
      <point x="490.6" y="403.0" type="curve" smooth="yes"/>
      <point x="478.3" y="325.1" type="line"/>
    </contour>
  </outline>
</glyph>
<glyph name="Scedilla" format="2">
  <advance width="600.0"/>
  <unicode hex="015E"/>
  <anchor x="256.0" y="0.0" name="_bottom"/>
  <anchor x="256.0" y="0.0" name="bottom"/>
  <anchor x="372.0" y="730.0" name="top"/>
  <outline>
    <contour>
      <point x="124.8" y="-209.6" type="line"/>
      <point x="217.3" y="-209.6" type="line" smooth="yes"/>
      <point x="292.9" y="-209.6"/>
      <point x="349.6" y="-170.8"/>
      <point x="356.9" y="-123.9" type="curve" smooth="yes"/>
      <point x="365.5" y="-69.2"/>
      <point x="298.3" y="-41.6"/>
      <point x="243.9" y="-36.2" type="curve"/>
      <point x="274.0" y="23.0" type="line"/>
      <point x="212.2" y="23.0" type="line"/>
      <point x="162.5" y="-69.0" type="line"/>
      <point x="231.3" y="-69.0"/>
      <point x="267.8" y="-88.7"/>
      <point x="263.5" y="-114.1" type="curve" smooth="yes"/>
      <point x="260.8" y="-131.5"/>
      <point x="237.6" y="-150.1"/>
      <point x="207.4" y="-150.1" type="curve" smooth="yes"/>
      <point x="134.4" y="-150.1" type="line"/>
    </contour>
    <component base="S"/>
  </outline>
</glyph>
<glyph name="Tcedilla" format="2">
  <advance width="600.0"/>
  <unicode hex="0162"/>
  <anchor x="256.0" y="0.0" name="bottom"/>
  <anchor x="314.0" y="365.0" name="center"/>
  <anchor x="372.0" y="730.0" name="top"/>
  <outline>
    <contour>
      <point x="172.6" y="-209.6" type="line"/>
      <point x="265.1" y="-209.6" type="line" smooth="yes"/>
      <point x="340.7" y="-209.6"/>
      <point x="397.4" y="-170.8"/>
      <point x="404.7" y="-123.9" type="curve" smooth="yes"/>
      <point x="413.3" y="-69.2"/>
      <point x="346.1" y="-41.6"/>
      <point x="291.7" y="-36.2" type="curve"/>
      <point x="310.0" y="0.0" type="line"/>
      <point x="260.0" y="23.0" type="line"/>
      <point x="210.3" y="-69.0" type="line"/>
      <point x="279.1" y="-69.0"/>
      <point x="315.6" y="-88.7"/>
      <point x="311.3" y="-114.1" type="curve" smooth="yes"/>
      <point x="308.6" y="-131.5"/>
      <point x="285.4" y="-150.1"/>
      <point x="255.2" y="-150.1" type="curve" smooth="yes"/>
      <point x="182.2" y="-150.1" type="line"/>
    </contour>
    <component base="T"/>
  </outline>
</glyph>
<glyph name="tcedilla" format="2">
  <advance width="600.0"/>
  <unicode hex="0163"/>
  <anchor x="360.0" y="0.0" name="_bottom"/>
  <anchor x="316.0" y="0.0" name="bottom"/>
  <anchor x="300.0" y="275.0" name="center"/>
  <anchor x="375.0" y="700.0" name="top"/>
  <anchor x="624.0" y="550.0" name="topright"/>
  <outline>
    <contour>
      <point x="260.5" y="-209.6" type="line"/>
      <point x="353.0" y="-209.6" type="line" smooth="yes"/>
      <point x="428.6" y="-209.6"/>
      <point x="479.0" y="-170.8"/>
      <point x="479.0" y="-123.9" type="curve" smooth="yes"/>
      <point x="479.0" y="-69.2"/>
      <point x="407.1" y="-41.6"/>
      <point x="352.4" y="-36.2" type="curve"/>
      <point x="372.8" y="23.0" type="line"/>
      <point x="311.0" y="23.0" type="line"/>
      <point x="276.0" y="-69.0" type="line"/>
      <point x="344.8" y="-69.0"/>
      <point x="384.3" y="-88.7"/>
      <point x="384.3" y="-114.1" type="curve" smooth="yes"/>
      <point x="384.3" y="-131.5"/>
      <point x="363.7" y="-150.1"/>
      <point x="333.5" y="-150.1" type="curve" smooth="yes"/>
      <point x="260.5" y="-150.1" type="line"/>
    </contour>
    <component base="t"/>
  </outline>
</glyph>
<glyph name="tbar" format="2">
  <advance width="600.0"/>
  <unicode hex="0167"/>
  <anchor x="316.0" y="0.0" name="bottom"/>
  <anchor x="300.0" y="275.0" name="center"/>
  <anchor x="375.0" y="700.0" name="top"/>
  <anchor x="624.0" y="550.0" name="topright"/>
  <outline>
    <contour>
      <point x="73.6" y="233.3" type="line"/>
      <point x="472.6" y="233.3" type="line"/>
      <point x="486.4" y="320.3" type="line"/>
      <point x="87.4" y="320.3" type="line"/>
    </contour>
    <component base="t"/>
  </outline>
</glyph>
<glyph name="Uogonek" format="2">
  <advance width="600.0"/>
  <unicode hex="0172"/>
  <anchor x="457.0" y="730.0" name="horn"/>
  <anchor x="372.0" y="730.0" name="top"/>
  <outline>
    <contour>
      <point x="294.3" y="-209.6" type="curve" smooth="yes"/>
      <point x="381.3" y="-209.6" type="line"/>
      <point x="392.7" y="-136.1" type="line"/>
      <point x="330.0" y="-136.1" type="line" smooth="yes"/>
      <point x="297.5" y="-136.1"/>
      <point x="281.4" y="-116.3"/>
      <point x="285.1" y="-89.7" type="curve" smooth="yes"/>
      <point x="289.5" y="-65.0"/>
      <point x="307.6" y="-36.6"/>
      <point x="351.6" y="-4.3999999999999995" type="curve" smooth="yes"/>
      <point x="390.9" y="23.8" type="line"/>
      <point x="452.5" y="59.4"/>
      <point x="494.3" y="122.8"/>
      <point x="507.3" y="203.0" type="curve" smooth="yes"/>
      <point x="591.0" y="730.0" type="line"/>
      <point x="483.0" y="730.0" type="line"/>
      <point x="399.3" y="203.0" type="line" smooth="yes"/>
      <point x="387.5" y="127.5"/>
      <point x="342.0" y="85.7"/>
      <point x="269.4" y="85.7" type="curve" smooth="yes"/>
      <point x="196.8" y="85.7"/>
      <point x="165.5" y="127.5"/>
      <point x="177.3" y="203.0" type="curve" smooth="yes"/>
      <point x="261.0" y="730.0" type="line"/>
      <point x="153.0" y="730.0" type="line"/>
      <point x="69.3" y="203.0" type="line" smooth="yes"/>
      <point x="48.3" y="71.7"/>
      <point x="118.2" y="-10.0"/>
      <point x="254.0" y="-10.0" type="curve" smooth="yes"/>
      <point x="266.7" y="-10.0"/>
      <point x="275.9" y="-3.7"/>
      <point x="279.0" y="-0.7000000000000011" type="curve"/>
      <point x="228.7" y="-34.2"/>
      <point x="190.4" y="-77.8"/>
      <point x="185.5" y="-111.5" type="curve" smooth="yes"/>
      <point x="175.9" y="-168.8"/>
      <point x="218.2" y="-209.6"/>
    </contour>
  </outline>
</glyph>
<glyph name="uogonek" format="2">
  <advance width="600.0"/>
  <unicode hex="0173"/>
  <anchor x="460.0" y="550.0" name="horn"/>
  <anchor x="343.0" y="550.0" name="top"/>
  <outline>
    <contour>
      <point x="290.9" y="-209.6" type="curve" smooth="yes"/>
      <point x="377.9" y="-209.6" type="line"/>
      <point x="389.3" y="-136.1" type="line"/>
      <point x="326.6" y="-136.1" type="line" smooth="yes"/>
      <point x="294.1" y="-136.1"/>
      <point x="278.0" y="-116.3"/>
      <point x="281.7" y="-90.0" type="curve" smooth="yes"/>
      <point x="286.1" y="-65.3"/>
      <point x="307.6" y="-37.5"/>
      <point x="352.3" y="-4.7" type="curve" smooth="yes"/>
      <point x="390.4" y="24.0" type="line"/>
      <point x="452.5" y="59.5"/>
      <point x="493.4" y="122.4"/>
      <point x="506.1" y="203.0" type="curve" smooth="yes"/>
      <point x="560.8" y="550.0" type="line"/>
      <point x="452.8" y="550.0" type="line"/>
      <point x="398.1" y="203.0" type="line" smooth="yes"/>
      <point x="385.6" y="126.1"/>
      <point x="341.4" y="85.0"/>
      <point x="269.4" y="85.0" type="curve" smooth="yes"/>
      <point x="197.4" y="85.0"/>
      <point x="166.0" y="126.1"/>
      <point x="178.5" y="203.0" type="curve" smooth="yes"/>
      <point x="233.2" y="550.0" type="line"/>
      <point x="125.2" y="550.0" type="line"/>
      <point x="70.5" y="203.0" type="line" smooth="yes"/>
      <point x="49.5" y="71.7"/>
      <point x="118.2" y="-10.0"/>
      <point x="254.0" y="-10.0" type="curve" smooth="yes"/>
      <point x="262.4" y="-10.0"/>
      <point x="278.3" y="-3.4000000000000004"/>
      <point x="281.3" y="2.299999999999999" type="curve"/>
      <point x="214.9" y="-41.4"/>
      <point x="187.0" y="-77.1"/>
      <point x="182.1" y="-111.5" type="curve" smooth="yes"/>
      <point x="172.5" y="-168.8"/>
      <point x="214.8" y="-209.6"/>
    </contour>
  </outline>
</glyph>
<glyph name="longs" format="2">
  <advance width="600.0"/>
  <unicode hex="017F"/>
  <outline>
    <contour>
      <point x="-50.9" y="-180.0" type="line"/>
      <point x="58.4" y="-180.0" type="line" smooth="yes"/>
      <point x="176.3" y="-180.0"/>
      <point x="258.8" y="-115.1"/>
      <point x="275.0" y="-9.8" type="curve"/>
      <point x="365.9" y="565.5" type="line"/>
      <point x="372.7" y="610.7"/>
      <point x="400.0" y="633.6"/>
      <point x="447.3" y="633.6" type="curve" smooth="yes"/>
      <point x="616.6" y="633.6" type="line"/>
      <point x="632.0" y="730.0" type="line"/>
      <point x="461.9" y="730.0" type="line" smooth="yes"/>
      <point x="352.1" y="730.0"/>
      <point x="273.5" y="666.9"/>
      <point x="258.2" y="567.0" type="curve"/>
      <point x="167.3" y="-8.3" type="line"/>
      <point x="159.3" y="-60.4"/>
      <point x="127.5" y="-86.6"/>
      <point x="72.4" y="-86.6" type="curve" smooth="yes"/>
      <point x="-36.1" y="-86.6" type="line"/>
    </contour>
  </outline>
</glyph>
<glyph name="Schwa" format="2">
  <advance width="600.0"/>
  <unicode hex="018F"/>
  <outline>
    <contour>
      <point x="254.3" y="-10.0" type="curve" smooth="yes"/>
      <point x="389.4" y="-10.0"/>
      <point x="487.0" y="74.5"/>
      <point x="507.3" y="203.0" type="curve" smooth="yes"/>
      <point x="558.4" y="527.0" type="line" smooth="yes"/>
      <point x="579.4" y="658.6"/>
      <point x="510.5" y="740.0"/>
      <point x="373.3" y="740.0" type="curve" smooth="yes"/>
      <point x="237.8" y="740.0"/>
      <point x="141.6" y="657.5"/>
      <point x="121.0" y="527.0" type="curve"/>
      <point x="229.0" y="527.0" type="line"/>
      <point x="241.1" y="602.5"/>
      <point x="286.3" y="645.0"/>
      <point x="358.9" y="645.0" type="curve" smooth="yes"/>
      <point x="432.2" y="645.0"/>
      <point x="462.5" y="602.5"/>
      <point x="450.4" y="527.7" type="curve" smooth="yes"/>
      <point x="430.9" y="404.8" type="line"/>
      <point x="100.9" y="404.8" type="line"/>
      <point x="69.3" y="203.0" type="line" smooth="yes"/>
      <point x="49.0" y="74.5"/>
      <point x="119.5" y="-10.0"/>
    </contour>
    <contour>
      <point x="268.4" y="77.0" type="curve" smooth="yes"/>
      <point x="192.4" y="77.0"/>
      <point x="164.2" y="120.5"/>
      <point x="177.3" y="203.0" type="curve" smooth="yes"/>
      <point x="197.8" y="331.4" type="line"/>
      <point x="187.9" y="322.8" type="line"/>
      <point x="417.8" y="322.8" type="line"/>
      <point x="399.3" y="203.0" type="line" smooth="yes"/>
      <point x="386.2" y="121.7"/>
      <point x="345.6" y="77.0"/>
    </contour>
  </outline>
</glyph>
